{
.appVersion = "3133";
.formatVersion = 3;
axes = (
{
name = Weight;
tag = wght;
}
);
classes = (
{
automatic = 1;

glyphs = (
{
color = 4;
glyphname = .notdef;
layers = (
{
background = {
shapes = (
{
closed = 1;
nodes = (
(469,0,l),
(478,8,l),
(478,621,l),
(469,630,l),
(48,630,l),
(40,620,l),
(40,9,l),
(48,0,l)
);
},
{
closed = 1;
nodes = (
(144,150,l),
(234,316,l),
(144,479,l),
(163,514,l),
(253,350,l),
(344,514,l),
(363,479,l),
(273,314,l),
(363,150,l),
(344,116,l),
(253,279,l),
(163,116,l)
);
},
{
closed = 1;
nodes = (
(57,613,l),
(461,613,l),
(461,16,l),
(57,16,l)
);
},
{
closed = 1;
nodes = (
(427,49,l),
(427,577,l),
(92,577,l),
(92,49,l)
);
}
);
};
layerId = "C623C401-2266-4A98-B253-3D45160C29C7";
shapes = (
{
closed = 1;
nodes = (
(469,0,l),
(478,8,l),
(478,621,l),
(469,630,l),
(48,630,l),
(40,620,l),
(40,9,l),
(48,0,l)
);
},
{
closed = 1;
nodes = (
(144,150,l),
(234,316,l),
(144,479,l),
(163,514,l),
(253,350,l),
(344,514,l),
(363,479,l),
(273,314,l),
(363,150,l),
(344,116,l),
(253,279,l),
(163,116,l)
);
},
{
closed = 1;
nodes = (
(57,613,l),
(461,613,l),
(461,16,l),
(57,16,l)
);
},
{
closed = 1;
nodes = (
(427,49,l),
(427,577,l),
(92,577,l),
(92,49,l)
);
}
);
width = 518;
}
);
note = ".notdef";
},
{
color = 3;
glyphname = space;
layers = (
{
background = {
shapes = (
{
closed = 1;
nodes = (
(0,-230,l),
(200,-230,l),
(200,611,l),
(0,611,l)
);
}
);
};
layerId = "C623C401-2266-4A98-B253-3D45160C29C7";
width = 200;
}
);
note = space;
unicode = 32;
},
{
color = 5;
glyphname = A;
kernLeft = _A;
kernRight = _A;
layers = (
{
anchors = (
{
name = bottom;
pos = (256,0);
},
{
name = ogonek;
pos = (460,10);
},
{
name = top;
pos = (499,600);
}
);
background = {
anchors = (
{
name = bottom;
pos = (256,0);
},
{
name = ogonek;
pos = (460,10);
},
{
name = top;
pos = (256,633);
}
);
shapes = (
{
closed = 1;
nodes = (
(448,-12,o),
(473,-7,o),
(473,8,c),
(469,11,o),
(457,18,o),
(457,38,cs),
(457,123,o),
(499,273,o),
(580,380,cs),
(583,385,o),
(584,389,o),
(584,394,cs),
(584,428,o),
(497,439,o),
(464,445,c),
(370,250,o),
(291,45,o),
(207,43,cs),
(181,43,o),
(171,64,o),
(171,97,cs),
(171,146,o),
(194,219,o),
(223,281,cs),
(268,369,o),
(375,546,o),
(488,546,cs),
(519,546,o),
(565,537,o),
(569,509,cs),
(570,505,o),
(572,503,o),
(576,503,cs),
(585,503,o),
(598,513,o),
(598,533,cs),
(598,539,o),
(597,546,o),
(594,553,cs),
(580,588,o),
(547,607,o),
(489,607,cs),
(247,607,o),
(109,369,o),
(58,190,cs),
(49,160,o),
(45,132,o),
(45,107,cs),
(45,39,o),
(79,-5,o),
(157,-5,cs),
(239,-5,o),
(317,61,o),
(368,174,c),
(363,154,o),
(353,114,o),
(353,77,cs),
(353,37,o),
(364,0,o),
(402,-9,cs),
(408,-11,o),
(417,-12,o),
(427,-12,cs)
);
}
);
};
layerId = "C623C401-2266-4A98-B253-3D45160C29C7";
shapes = (
{
closed = 1;
nodes = (
(374,188,l),
(369,167,o),
(353,111,o),
(353,77,cs),
(353,16,o),
(377,-11,o),
(427,-11,cs),
(449,-11,o),
(467,-6,o),
(473,9,c),
(457,21,o),
(454,39,o),
(454,62,cs),
(454,107,o),
(478,177,o),
(490,207,cs),
(537,332,o),
(600,404,o),
(600,427,cs),
(600,450,o),
(569,463,o),
(480,478,c),
(386,283,o),
(291,45,o),
(207,43,cs),
(185,43,o),
(171,60,o),
(171,93,cs),
(171,176,o),
(218,292,o),
(299,407,cs),
(360,492,o),
(424,546,o),
(493,546,cs),
(526,546,o),
(549,536,o),
(564,522,cs),
(574,512,o),
(577,507,o),
(584,507,cs),
(592,507,o),
(597,519,o),
(597,534,cs),
(597,572,o),
(553,607,o),
(482,607,cs),
(395,607,o),
(320,574,o),
(252,516,cs),
(126,408,o),
(45,211,o),
(45,107,cs),
(45,32,o),
(85,-12,o),
(161,-12,cs),
(234,-12,o),
(317,55,o),
(373,188,c)
);
}
);
width = 540;
}
);
note = A;
unicode = 65;
},
{
color = 5;
glyphname = AE;
kernLeft = _E_ss02;
kernRight = _E_ss02;
layers = (
{
anchors = (
{
name = top;
pos = (642,610);
}
);
background = {
shapes = (
{
closed = 1;
nodes = (
(195,231,o),
(338,231,cs),
(388,231,o),
(441,228,o),
(480,226,cs),
(501,225,o),
(511,222,o),
(515,220,cs),
(517,219,o),
(518,218,o),
(520,218,cs),
(523,218,o),
(526,224,o),
(526,238,cs),
(526,249,o),
(511,256,o),
(482,263,cs),
(409,279,o),
(309,285,o),
(192,285,cs),
(119,285,o),
(73,274,o),
(51,243,cs),
(42,230,o),
(41,224,o),
(41,217,cs),
(41,212,o),
(44,208,o),
(48,208,cs),
(64,208,o)
);
},
{
closed = 1;
nodes = (
(570,525,o),
(632,587,cs),
(635,590,o),
(636,592,o),
(636,594,cs),
(636,602,o),
(618,606,o),
(596,606,cs),
(540,606,o),
(515,586,o),
(487,556,cs),
(381,443,ls),
(340,399,o),
(258,321,o),
(181,234,cs),
(135,182,o),
(68,116,o),
(21,74,cs),
(-5,52,o),
(-21,40,o),
(-34,32,cs),
(-39,29,o),
(-40,27,o),
(-40,24,cs),
(-40,10,o),
(11,-5,o),
(53,-5,cs),
(107,-5,o),
(137,29,o),
(175,80,cs),
(228,152,o),
(404,417,o),
(447,476,c),
(448,476,l),
(407,372,o),
(351,200,o),
(351,93,cs),
(351,38,o),
(361,5,o),
(399,-6,cs),
(420,-12,o),
(432,-13,o),
(444,-13,cs),
(450,-13,o),
(453,-12,o),
(453,-10,cs),
(453,-8,o),
(451,-7,o),
(449,-4,cs),
(444,3,o),
(442,14,o),
(442,27,cs),
(442,136,o)
);
},
{
pos = (279,14);
ref = E.ss02;
}
);
};
layerId = "C623C401-2266-4A98-B253-3D45160C29C7";
shapes = (
{
closed = 1;
nodes = (
(607,529,l),
(632,533,o),
(664,535,o),
(702,535,cs),
(732,535,o),
(757,531,o),
(770,522,cs),
(777,517,o),
(778,515,o),
(781,515,cs),
(785,515,o),
(788,526,o),
(788,540,cs),
(788,593,o),
(754,619,o),
(637,621,cs),
(534,623,o),
(520,611,o),
(499,564,c),
(325,385,o),
(81,127,o),
(21,74,cs),
(-5,52,o),
(-21,40,o),
(-34,32,cs),
(-39,29,o),
(-40,27,o),
(-40,24,cs),
(-40,10,o),
(11,-5,o),
(53,-5,cs),
(107,-5,o),
(136,30,o),
(175,80,cs),
(208,121,o),
(266,211,o),
(319,285,cs),
(390,385,o),
(443,452,o),
(488,505,c),
(489,505,l),
(478,480,o),
(429,372,o),
(381,263,cs),
(345,182,o),
(315,104,o),
(315,71,cs),
(315,34,o),
(345,-5,o),
(394,-5,cs),
(416,-5,o),
(460,6,o),
(510,12,cs),
(550,17,o),
(589,23,o),
(623,22,cs),
(642,22,o),
(658,20,o),
(667,15,cs),
(674,11,o),
(674,8,o),
(677,8,cs),
(682,8,o),
(685,28,o),
(685,49,cs),
(685,61,o),
(679,72,o),
(669,79,cs),
(649,93,o),
(609,99,o),
(551,99,cs),
(493,99,o),
(435,92,o),
(377,82,c),
(407,48,l),
(418,83,o),
(451,167,o),
(491,259,cs),
(541,373,o),
(601,499,o),
(642,560,c)
);
},
{
closed = 1;
nodes = (
(89,212,o),
(176,223,o),
(264,229,cs),
(363,234,o),
(465,234,o),
(490,234,cs),
(565,234,o),
(649,230,o),
(686,220,cs),
(692,218,o),
(694,215,o),
(696,215,cs),
(697,215,o),
(698,216,o),
(699,218,cs),
(701,223,o),
(702,231,o),
(702,239,cs),
(702,253,o),
(684,266,o),
(637,274,cs),
(586,283,o),
(480,289,o),
(374,289,cs),
(283,289,o),
(203,286,o),
(146,283,cs),
(100,280,o),
(64,264,o),
(49,241,cs),
(45,234,o),
(42,227,o),
(42,220,cs),
(42,214,o),
(45,209,o),
(58,210,cs)
);
}
);
width = 703;
}
);
metricLeft = A.ss02;
unicode = 198;
},
{
color = 5;
glyphname = B;
layers = (
{
background = {
shapes = (
{
closed = 1;
nodes = (
(357,-20,o),
(398,-13,o),
(433,0,cs),
(504,27,o),
(536,82,o),
(544,147,cs),
(551,212,o),
(504,277,o),
(428,294,c),
(540,299,o),
(624,391,o),
(627,475,cs),
(629,537,o),
(588,595,o),
(482,612,cs),
(466,615,o),
(446,616,o),
(423,616,cs),
(291,616,o),
(79,566,o),
(85,449,cs),
(88,414,o),
(136,409,o),
(146,406,c),
(156,458,o),
(212,518,o),
(288,553,cs),
(322,569,o),
(374,584,o),
(418,584,cs),
(470,584,o),
(513,563,o),
(511,499,cs),
(508,407,o),
(423,292,o),
(359,292,cs),
(352,292,o),
(348,287,o),
(347,281,cs),
(347,276,o),
(350,271,o),
(357,267,cs),
(398,242,o),
(416,171,o),
(414,123,c),
(409,103,o),
(408,94,o),
(406,87,cs),
(393,39,o),
(344,13,o),
(293,13,cs),
(284,13,o),
(275,13,o),
(266,15,cs),
(242,19,o),
(235,31,o),
(235,46,cs),
(235,50,o),
(237,55,o),
(238,59,cs),
(252,113,o),
(296,220,o),
(344,313,cs),
(374,372,o),
(427,477,o),
(472,526,cs),
(478,533,o),
(461,538,o),
(415,538,cs),
(373,538,o),
(334,525,o),
(308,486,cs),
(250,398,o),
(146,184,o),
(142,81,cs),
(141,52,o),
(145,30,o),
(159,20,cs),
(201,-7,o),
(259,-20,o),
(316,-20,cs)
);
}
);
};
layerId = "C623C401-2266-4A98-B253-3D45160C29C7";
shapes = (
{
closed = 1;
nodes = (
(421,294,l),
(535,296,o),
(627,388,o),
(627,481,cs),
(627,559,o),
(555,616,o),
(429,616,cs),
(239,616,o),
(85,545,o),
(85,455,cs),
(85,422,o),
(112,412,o),
(147,407,c),
(168,503,o),
(303,584,o),
(422,584,cs),
(479,584,o),
(511,555,o),
(511,502,cs),
(511,408,o),
(430,304,o),
(358,292,cs),
(350,291,o),
(347,287,o),
(347,281,cs),
(347,276,o),
(349,273,o),
(356,268,cs),
(399,240,o),
(414,174,o),
(414,136,cs),
(414,51,o),
(358,13,o),
(293,13,cs),
(254,13,o),
(236,21,o),
(236,43,cs),
(236,74,o),
(280,181,o),
(332,288,cs),
(377,382,o),
(430,476,o),
(465,520,cs),
(468,524,o),
(471,527,o),
(471,529,cs),
(471,531,o),
(469,533,o),
(458,535,cs),
(447,537,o),
(429,538,o),
(415,538,cs),
(367,538,o),
(327,522,o),
(295,466,cs),
(269,420,o),
(240,366,o),
(214,311,cs),
(175,226,o),
(144,139,o),
(142,75,cs),
(141,51,o),
(145,30,o),
(161,19,cs),
(200,-7,o),
(259,-20,o),
(316,-20,cs),
(440,-20,o),
(545,40,o),
(545,157,cs),
(545,230,o),
(495,273,o),
(421,293,c)
);
}
);
width = 572;
}
);
note = B;
unicode = 66;
},
{
color = 5;
glyphname = C;
kernLeft = _C;
kernRight = _C;
layers = (
{
anchors = (
{
name = bottom;
pos = (167,-8);
},
{
name = top;
pos = (418,601);
}
);
background = {
anchors = (
{
name = bottom;
pos = (231,0);
},
{
name = top;
pos = (231,633);
}
);
shapes = (
{
closed = 1;
nodes = (
(196,-6,o),
(222,-3,o),
(252,5,cs),
(325,23,o),
(404,83,o),
(447,154,cs),
(467,188,o),
(474,208,o),
(474,221,cs),
(474,245,o),
(449,241,o),
(440,242,c),
(400,165,o),
(316,40,o),
(241,40,cs),
(205,40,o),
(192,67,o),
(192,107,cs),
(192,159,o),
(215,232,o),
(241,292,cs),
(258,329,o),
(301,411,o),
(349,475,cs),
(392,534,o),
(423,556,o),
(442,556,cs),
(454,556,o),
(461,546,o),
(461,528,cs),
(461,511,o),
(455,488,o),
(443,463,cs),
(418,408,o),
(366,343,o),
(350,328,cs),
(344,322,o),
(338,316,o),
(338,312,cs),
(338,310,o),
(340,308,o),
(345,308,cs),
(348,308,o),
(351,308,o),
(355,309,cs),
(442,326,o),
(517,431,o),
(517,510,cs),
(517,560,o),
(487,600,o),
(410,600,cs),
(367,600,o),
(317,582,o),
(277,547,cs),
(189,472,o),
(100,297,o),
(71,194,cs),
(62,163,o),
(58,134,o),
(58,109,cs),
(58,39,o),
(93,-6,o),
(173,-6,cs)
);
}
);
};
guides = (
{
pos = (137,602);
},
{
pos = (137,-20);
}
);
layerId = "C623C401-2266-4A98-B253-3D45160C29C7";
shapes = (
{
closed = 1;
nodes = (
(244,-20,o),
(300,6,o),
(346,40,cs),
(425,100,o),
(476,185,o),
(476,214,cs),
(476,228,o),
(463,239,o),
(438,239,c),
(368,101,o),
(292,25,o),
(237,25,cs),
(205,25,o),
(185,51,o),
(187,95,cs),
(190,192,o),
(251,347,o),
(347,476,cs),
(383,526,o),
(419,557,o),
(440,557,cs),
(453,557,o),
(459,546,o),
(459,529,cs),
(459,470,o),
(386,367,o),
(344,325,cs),
(339,320,o),
(336,316,o),
(336,313,cs),
(336,311,o),
(338,309,o),
(343,309,cs),
(413,309,o),
(515,414,o),
(515,511,cs),
(515,568,o),
(477,601,o),
(408,601,c),
(364,601,o),
(313,580,o),
(275,548,cs),
(170,457,o),
(60,252,o),
(60,108,cs),
(60,36,o),
(98,-20,o),
(183,-20,cs)
);
}
);
width = 465;
}
);
note = C;
unicode = 67;
},
{
color = 5;
glyphname = D;
kernLeft = _D;
layers = (
{
anchors = (
{
name = bottom;
pos = (276,0);
},
{
name = center;
pos = (251,321);
},
{
name = top;
pos = (503,630);
}
);
background = {
anchors = (
{
name = bottom;
pos = (276,0);
},
{
name = center;
pos = (251,321);
},
{
name = top;
pos = (503,630);
}
);
shapes = (
{
closed = 1;
nodes = (
(325,-8,o),
(420,65,o),
(489,158,cs),
(544,232,o),
(624,382,o),
(624,493,cs),
(624,570,o),
(582,630,o),
(468,631,cs),
(406,631,o),
(343,618,o),
(290,596,cs),
(177,548,o),
(116,485,o),
(108,475,cs),
(79,438,o),
(70,417,o),
(70,405,cs),
(70,384,o),
(95,388,o),
(103,387,c),
(145,454,o),
(246,529,o),
(334,570,cs),
(375,589,o),
(408,598,o),
(433,598,cs),
(487,598,o),
(507,558,o),
(507,502,cs),
(507,403,o),
(426,224,o),
(386,159,cs),
(347,94,o),
(281,24,o),
(222,24,cs),
(218,24,o),
(214,24,o),
(210,25,c),
(201,70,o),
(264,223,o),
(320,333,cs),
(351,393,o),
(401,486,o),
(444,535,cs),
(450,542,o),
(423,547,o),
(377,547,cs),
(335,547,o),
(302,533,o),
(276,495,cs),
(226,419,o),
(123,207,o),
(108,83,cs),
(102,33,o),
(124,36,o),
(157,20,c),
(169,16,l),
(191,0,o),
(216,-8,o),
(243,-8,cs)
);
}
);
};
layerId = "C623C401-2266-4A98-B253-3D45160C29C7";
shapes = (
{
closed = 1;
nodes = (
(214,136,o),
(386,447,o),
(449,527,cs),
(452,531,o),
(453,533,o),
(453,535,cs),
(453,537,o),
(451,539,o),
(440,541,cs),
(429,543,o),
(411,544,o),
(397,544,cs),
(334,544,o),
(302,527,o),
(271,473,cs),
(200,349,o),
(108,148,o),
(108,50,cs),
(108,28,o),
(113,19,o),
(156,4,cs),
(172,-3,o),
(190,-10,o),
(199,-15,cs),
(216,-24,o),
(227,-27,o),
(242,-27,cs),
(335,-27,o),
(431,48,o),
(502,144,cs),
(558,220,o),
(641,374,o),
(641,489,cs),
(641,568,o),
(598,630,o),
(480,631,cs),
(416,631,o),
(358,622,o),
(267,582,cs),
(156,532,o),
(70,447,o),
(70,404,cs),
(70,392,o),
(84,384,o),
(103,384,c),
(164,462,o),
(253,526,o),
(342,568,cs),
(384,588,o),
(418,597,o),
(444,597,cs),
(500,597,o),
(520,556,o),
(520,498,cs),
(520,396,o),
(437,212,o),
(396,145,cs),
(355,78,o),
(287,6,o),
(227,6,cs),
(222,6,o),
(217,7,o),
(213,8,c)
);
}
);
width = 591;
}
);
note = D;
unicode = 68;
},
{
color = 5;
glyphname = Eth;
kernLeft = _D;
layers = (
{
anchors = (
{
name = _center;
pos = (251,321);
}
);
background = {
shapes = (
{
closed = 1;
nodes = (
(168,222,o),
(268,222,o),
(346,222,cs),
(350,222,o),
(353,223,o),
(355,226,cs),
(363,233,o),
(383,263,o),
(383,275,cs),
(383,280,o),
(380,282,o),
(374,282,cs),
(301,282,o),
(208,282,o),
(135,282,cs),
(120,282,o),
(118,281,o),
(109,272,cs),
(98,260,o),
(84,236,o),
(84,226,cs),
(84,223,o),
(87,222,o),
(89,222,cs)
);
}
);
};
layerId = "C623C401-2266-4A98-B253-3D45160C29C7";
shapes = (
{
closed = 1;
nodes = (
(175,222,o),
(276,222,o),
(352,222,cs),
(356,222,o),
(358,223,o),
(361,226,cs),
(368,233,o),
(381,256,o),
(381,273,cs),
(381,278,o),
(379,280,o),
(373,280,cs),
(303,280,o),
(191,280,o),
(121,280,cs),
(116,280,o),
(114,279,o),
(111,276,cs),
(104,269,o),
(91,246,o),
(91,229,cs),
(91,224,o),
(93,222,o),
(99,222,cs)
);
},
{
ref = D;
}
);
width = 591;
}
);
note = Eth;
unicode = 208;
},
{
color = 5;
glyphname = Dzcaron;
kernLeft = _D;
lastChange = "2022-11-23 04:35:08 +0000";
layers = (
{
anchors = (
{
name = bottom;
pos = (729,0);
},
{
name = center;
pos = (784,213);
},
{
name = top;
pos = (853,414);
}
);
background = {
shapes = (
{
alignment = -1;
pos = (552,0);
ref = z;
}
);
};
layerId = "C623C401-2266-4A98-B253-3D45160C29C7";
shapes = (
{
closed = 1;
nodes = (
(853,303,l),
(751,227,o),
(635,115,o),
(580,33,cs),
(572,20,o),
(567,8,o),
(567,2,cs),
(567,-6,o),
(575,-14,o),
(583,-14,cs),
(588,-14,o),
(591,-11,o),
(595,-2,cs),
(605,18,o),
(615,35,o),
(634,35,cs),
(658,35,o),
(680,24,o),
(708,15,cs),
(736,5,o),
(768,-4,o),
(801,-4,cs),
(837,-4,o),
(863,5,o),
(886,28,cs),
(921,63,o),
(969,154,o),
(991,201,cs),
(993,205,o),
(994,208,o),
(994,211,cs),
(994,217,o),
(987,227,o),
(980,227,cs),
(976,227,o),
(973,224,o),
(971,220,cs),
(961,201,o),
(942,162,o),
(920,133,cs),
(897,104,o),
(879,92,o),
(854,92,cs),
(812,92,o),
(753,108,o),
(725,130,c),
(876,239,o),
(974,328,o),
(974,434,cs),
(974,440,o),
(970,444,o),
(961,444,cs),
(953,444,o),
(949,441,o),
(948,434,cs),
(943,404,o),
(919,396,o),
(888,396,cs),
(840,397,o),
(807,422,o),
(773,422,cs),
(746,422,o),
(722,409,o),
(694,366,cs),
(678,341,o),
(666,322,o),
(666,304,cs),
(666,296,o),
(669,291,o),
(673,291,cs),
(676,291,o),
(679,293,o),
(682,298,cs),
(690,312,o),
(700,319,o),
(717,319,cs),
(745,319,o),
(785,302,o),
(824,302,cs),
(834,302,o),
(844,303,o),
(852,305,c)
);
},
{
ref = D;
}
);
width = 904;
}
);
unicode = 453;
},
{
color = 5;
glyphname = E;
kernLeft = _E;
kernRight = _E;
layers = (
{
anchors = (
{
name = bottom;
pos = (146,5);
},
{
name = ogonek;
pos = (349,71);
},
{
name = top;
pos = (370,600);
},
{
name = topleft;
pos = (31,600);
}
);
background = {
anchors = (
{
name = bottom;
pos = (226,0);
},
{
name = ogonek;
pos = (398,10);
},
{
name = top;
pos = (226,633);
},
{
name = topleft;
pos = (31,633);
}
);
shapes = (
{
closed = 1;
nodes = (
(235,-1,o),
(374,68,o),
(433,160,cs),
(456,196,o),
(464,218,o),
(464,231,cs),
(464,257,o),
(435,252,o),
(425,254,c),
(380,172,o),
(263,40,o),
(188,40,cs),
(155,40,o),
(140,59,o),
(140,87,cs),
(140,151,o),
(218,262,o),
(341,307,cs),
(351,311,o),
(355,319,o),
(355,328,cs),
(355,350,o),
(328,382,o),
(304,383,c),
(268,396,o),
(256,415,o),
(256,434,cs),
(256,468,o),
(294,505,o),
(318,517,cs),
(347,532,o),
(374,537,o),
(398,537,cs),
(405,537,o),
(411,537,o),
(417,536,c),
(406,503,o),
(400,462,o),
(400,429,cs),
(400,394,o),
(408,368,o),
(428,375,c),
(433,431,o),
(464,485,o),
(494,525,cs),
(509,544,o),
(528,564,o),
(556,586,cs),
(563,591,o),
(566,597,o),
(566,602,cs),
(566,617,o),
(546,629,o),
(520,629,cs),
(492,629,o),
(457,615,o),
(433,574,c),
(415,590,o),
(385,606,o),
(340,606,cs),
(267,605,o),
(184,578,o),
(156,525,cs),
(147,509,o),
(143,494,o),
(143,480,cs),
(143,421,o),
(210,381,o),
(270,376,c),
(107,326,o),
(30,208,o),
(30,115,cs),
(30,50,o),
(71,-1,o),
(148,-1,cs)
);
}
);
};
layerId = "C623C401-2266-4A98-B253-3D45160C29C7";
shapes = (
{
closed = 1;
nodes = (
(272,375,l),
(111,325,o),
(30,207,o),
(30,115,cs),
(30,34,o),
(79,-15,o),
(151,-15,cs),
(197,-15,o),
(255,2,o),
(309,36,cs),
(385,84,o),
(464,172,o),
(464,226,cs),
(464,240,o),
(449,249,o),
(425,249,c),
(380,167,o),
(259,25,o),
(184,25,cs),
(155,25,o),
(140,48,o),
(140,87,cs),
(140,151,o),
(219,266,o),
(336,305,cs),
(351,310,o),
(355,319,o),
(355,328,cs),
(355,350,o),
(331,378,o),
(308,383,cs),
(271,392,o),
(256,415,o),
(256,434,cs),
(256,481,o),
(322,537,o),
(398,537,cs),
(405,537,o),
(413,536,o),
(418,535,c),
(407,510,o),
(400,462,o),
(400,429,cs),
(400,395,o),
(408,374,o),
(421,374,cs),
(423,374,o),
(425,374,o),
(428,375,c),
(435,451,o),
(493,537,o),
(548,579,cs),
(561,590,o),
(566,596,o),
(566,602,cs),
(566,617,o),
(546,629,o),
(520,629,cs),
(492,629,o),
(457,615,o),
(433,574,c),
(415,590,o),
(384,606,o),
(338,606,cs),
(240,605,o),
(143,556,o),
(143,480,cs),
(143,425,o),
(203,382,o),
(272,376,c)
);
}
);
width = 451;
}
);
note = E;
unicode = 69;
},
{
color = 5;
glyphname = Schwa;
layers = (
{
background = {
shapes = (
{
closed = 1;
nodes = (
(813,-6,o),
(934,174,o),
(984,322,cs),
(1000,367,o),
(1008,409,o),
(1008,447,cs),
(1008,547,o),
(949,613,o),
(810,613,cs),
(728,613,o),
(664,580,o),
(603,509,cs),
(547,448,o),
(503,357,o),
(477,308,cs),
(475,304,o),
(473,299,o),
(473,295,cs),
(473,287,o),
(479,280,o),
(485,280,cs),
(489,280,o),
(494,283,o),
(497,290,cs),
(584,459,o),
(679,559,o),
(796,559,cs),
(867,559,o),
(895,526,o),
(895,473,cs),
(895,440,o),
(884,399,o),
(867,354,c),
(728,354,o),
(578,267,o),
(533,176,cs),
(516,141,o),
(508,111,o),
(508,87,cs),
(508,23,o),
(562,-6,o),
(630,-6,cs)
);
},
{
closed = 1;
nodes = (
(622,43,o),
(605,58,o),
(605,85,cs),
(605,91,o),
(606,97,o),
(607,103,cs),
(630,202,o),
(771,298,o),
(856,329,c),
(841,288,ls),
(824,242,o),
(796,174,o),
(752,114,cs),
(716,65,o),
(675,43,o),
(646,43,cs)
);
},
{
pos = (-20,0);
ref = O.ss02;
}
);
};
layerId = "C623C401-2266-4A98-B253-3D45160C29C7";
shapes = (
{
closed = 1;
nodes = (
(412,370,l),
(237,374,o),
(50,237,o),
(50,93,cs),
(50,28,o),
(98,-19,o),
(177,-19,cs),
(360,-19,o),
(472,160,o),
(522,308,cs),
(538,353,o),
(543,395,o),
(543,433,cs),
(543,544,o),
(478,602,o),
(378,602,cs),
(212,602,o),
(113,418,o),
(85,354,cs),
(80,341,o),
(78,334,o),
(78,329,cs),
(78,322,o),
(82,316,o),
(88,316,cs),
(93,316,o),
(98,321,o),
(104,332,cs),
(192,483,o),
(282,553,o),
(362,553,cs),
(403,553,o),
(418,525,o),
(417,464,cs),
(416,375,o),
(333,175,o),
(275,97,cs),
(237,45,o),
(205,16,o),
(181,17,cs),
(162,17,o),
(142,32,o),
(142,72,cs),
(142,185,o),
(274,305,o),
(399,347,c)
);
}
);
width = 503;
}
);
metricRight = O;
unicode = 399;
},
{
color = 5;
glyphname = F;
layers = (
{
background = {
shapes = (
{
closed = 1;
nodes = (
(331,-7,o),
(334,-6,o),
(334,-4,cs),
(334,-3,o),
(333,-2,o),
(332,0,c),
(325,8,o),
(321,21,o),
(321,38,cs),
(321,83,o),
(346,154,o),
(389,236,c),
(435,246,o),
(467,269,o),
(486,308,c),
(484,306,o),
(476,301,o),
(442,300,c),
(439,299,o),
(432,300,o),
(424,301,c),
(463,367,o),
(511,438,o),
(566,510,cs),
(577,524,o),
(581,537,o),
(581,549,cs),
(581,556,o),
(580,562,o),
(578,568,cs),
(572,588,o),
(553,622,o),
(530,627,cs),
(457,641,o),
(265,499,o),
(194,499,cs),
(187,499,o),
(181,501,o),
(176,504,c),
(174,506,o),
(170,505,o),
(170,509,cs),
(170,512,o),
(171,516,o),
(175,523,cs),
(177,527,o),
(172,529,o),
(165,529,cs),
(158,529,o),
(150,527,o),
(147,523,cs),
(120,484,o),
(100,438,o),
(100,408,cs),
(100,393,o),
(105,382,o),
(117,378,cs),
(127,374,o),
(137,373,o),
(147,373,cs),
(244,373,o),
(356,532,o),
(413,553,cs),
(422,556,o),
(426,553,o),
(426,547,cs),
(426,526,o),
(390,470,o),
(383,460,cs),
(355,416,o),
(330,367,o),
(308,319,c),
(301,320,o),
(296,322,o),
(291,323,cs),
(279,326,o),
(269,327,o),
(260,327,cs),
(226,327,o),
(206,306,o),
(186,248,cs),
(183,239,o),
(232,236,o),
(273,234,c),
(249,173,o),
(234,120,o),
(230,90,cs),
(229,82,o),
(228,74,o),
(228,66,cs),
(228,15,o),
(259,-7,o),
(324,-7,cs)
);
}
);
};
layerId = "C623C401-2266-4A98-B253-3D45160C29C7";
shapes = (
{
closed = 1;
nodes = (
(331,-17,o),
(334,-16,o),
(334,-14,cs),
(334,-12,o),
(331,-9,o),
(327,-2,cs),
(324,3,o),
(321,15,o),
(321,26,cs),
(321,86,o),
(356,175,o),
(407,269,cs),
(462,371,o),
(524,453,o),
(548,486,cs),
(568,513,o),
(581,531,o),
(581,544,cs),
(581,577,o),
(555,628,o),
(520,628,cs),
(473,628,o),
(398,588,o),
(329,553,cs),
(274,524,o),
(223,499,o),
(195,499,cs),
(180,499,o),
(171,504,o),
(171,513,cs),
(171,520,o),
(177,528,o),
(177,533,cs),
(177,537,o),
(174,539,o),
(169,539,cs),
(162,539,o),
(153,533,o),
(136,507,cs),
(119,481,o),
(100,435,o),
(100,408,cs),
(100,382,o),
(112,373,o),
(146,373,cs),
(185,373,o),
(237,399,o),
(316,475,cs),
(361,518,o),
(402,554,o),
(419,554,cs),
(424,554,o),
(426,551,o),
(426,546,cs),
(426,523,o),
(398,471,o),
(368,418,cs),
(325,340,o),
(228,138,o),
(228,56,cs),
(228,5,o),
(259,-17,o),
(324,-17,cs)
);
},
{
closed = 1;
nodes = (
(440,233,o),
(485,262,o),
(506,306,c),
(505,307,l),
(493,302,o),
(478,300,o),
(463,300,cs),
(403,300,o),
(297,327,o),
(260,327,cs),
(229,327,o),
(213,313,o),
(195,272,cs),
(192,265,o),
(187,252,o),
(187,248,cs),
(187,244,o),
(191,242,o),
(202,240,cs),
(234,234,o),
(309,234,o),
(375,233,cs)
);
}
);
width = 466;
}
);
note = F;
unicode = 70;
},
{
color = 5;
glyphname = G;
kernLeft = _G;
kernRight = _G;
layers = (
{
anchors = (
{
name = bottom;
pos = (166,10);
},
{
name = top;
pos = (418,600);
}
);
background = {
anchors = (
{
name = bottom;
pos = (245,0);
},
{
name = top;
pos = (245,633);
}
);
shapes = (
{
closed = 1;
nodes = (
(264,-129,o),
(310,-99,o),
(350,-45,cs),
(372,-15,o),
(415,55,o),
(442,129,cs),
(485,243,o),
(525,301,o),
(538,307,c),
(544,311,o),
(547,315,o),
(547,318,cs),
(547,321,o),
(544,323,o),
(539,323,cs),
(430,323,ls),
(399,323,o),
(387,299,o),
(373,263,cs),
(341,189,ls),
(306,111,o),
(260,42,o),
(213,42,cs),
(179,42,o),
(167,68,o),
(167,106,cs),
(167,156,o),
(189,226,o),
(214,284,cs),
(229,320,o),
(277,416,o),
(324,480,cs),
(369,540,o),
(408,564,o),
(433,564,cs),
(453,564,o),
(465,549,o),
(465,526,cs),
(465,483,o),
(420,405,o),
(396,373,cs),
(393,369,o),
(391,366,o),
(391,364,cs),
(391,361,o),
(394,359,o),
(400,359,cs),
(405,359,ls),
(454,365,o),
(527,440,o),
(527,497,cs),
(527,552,o),
(484,605,o),
(386,605,cs),
(342,605,o),
(293,586,o),
(252,552,cs),
(213,518,o),
(149,436,o),
(104,332,cs),
(76,265,o),
(55,192,o),
(55,132,cs),
(55,56,o),
(87,0,o),
(175,0,cs),
(230,0,o),
(275,42,o),
(312,95,c),
(301,62,o),
(291,36,o),
(286,24,cs),
(261,-35,o),
(247,-93,o),
(197,-93,cs),
(186,-93,o),
(173,-90,o),
(157,-83,cs),
(154,-82,o),
(151,-81,o),
(148,-81,cs),
(140,-81,o),
(136,-86,o),
(136,-92,cs),
(136,-96,o),
(138,-101,o),
(143,-105,cs),
(166,-124,o),
(192,-129,o),
(216,-129,cs)
);
}
);
};
layerId = "C623C401-2266-4A98-B253-3D45160C29C7";
shapes = (
{
closed = 1;
nodes = (
(299,47,o),
(282,-2,o),
(260,-49,cs),
(241,-90,o),
(221,-103,o),
(198,-103,cs),
(173,-103,o),
(158,-91,o),
(147,-91,cs),
(141,-91,o),
(136,-95,o),
(136,-102,cs),
(136,-120,o),
(176,-139,o),
(213,-139,cs),
(262,-139,o),
(303,-117,o),
(350,-55,cs),
(382,-12,o),
(411,44,o),
(433,98,cs),
(489,236,o),
(508,266,o),
(532,292,cs),
(541,301,o),
(547,304,o),
(547,308,cs),
(547,311,o),
(545,313,o),
(538,313,cs),
(438,313,ls),
(403,313,o),
(395,305,o),
(373,253,cs),
(302,89,o),
(250,32,o),
(211,32,cs),
(185,32,o),
(167,51,o),
(167,96,cs),
(167,183,o),
(232,351,o),
(326,484,cs),
(370,546,o),
(412,569,o),
(437,569,cs),
(457,569,o),
(474,554,o),
(474,531,cs),
(474,499,o),
(439,421,o),
(406,379,cs),
(403,375,o),
(400,372,o),
(400,369,cs),
(400,366,o),
(403,364,o),
(409,364,cs),
(459,364,o),
(542,447,o),
(542,505,cs),
(542,571,o),
(486,610,o),
(399,610,cs),
(354,610,o),
(292,586,o),
(255,553,cs),
(159,470,o),
(55,253,o),
(55,122,cs),
(55,35,o),
(97,-10,o),
(175,-10,cs),
(230,-10,o),
(275,32,o),
(312,85,c)
);
}
);
width = 507;
}
);
note = G;
unicode = 71;
},
{
color = 5;
glyphname = Gcommaaccent;
kernLeft = _G;
kernRight = _G;
lastChange = "2022-11-23 04:35:08 +0000";
layers = (
{
anchors = (
{
name = bottom;
pos = (166,10);
},
{
name = top;
pos = (418,600);
}
);
background = {
shapes = (
{
ref = G;
},
{
pos = (5,9);
ref = commaaccentcomb;
}
);
};
layerId = "C623C401-2266-4A98-B253-3D45160C29C7";
shapes = (
{
closed = 1;
nodes = (
(237,-98,o),
(214,-119,cs),
(209,-123,o),
(208,-125,o),
(208,-127,cs),
(208,-134,o),
(218,-139,o),
(231,-139,cs),
(264,-139,o),
(297,-117,o),
(326,-84,cs),
(372,-31,o),
(412,46,o),
(433,98,cs),
(489,236,o),
(508,266,o),
(532,292,cs),
(541,301,o),
(547,304,o),
(547,308,cs),
(547,311,o),
(545,313,o),
(538,313,cs),
(438,313,ls),
(403,313,o),
(395,305,o),
(373,253,cs),
(302,89,o),
(250,32,o),
(211,32,cs),
(185,32,o),
(167,51,o),
(167,96,cs),
(167,183,o),
(232,351,o),
(326,484,cs),
(370,546,o),
(412,569,o),
(437,569,cs),
(457,569,o),
(474,554,o),
(474,531,cs),
(474,499,o),
(439,421,o),
(406,379,cs),
(403,375,o),
(400,372,o),
(400,369,cs),
(400,366,o),
(403,364,o),
(409,364,cs),
(459,364,o),
(542,447,o),
(542,505,cs),
(542,571,o),
(486,610,o),
(399,610,cs),
(354,610,o),
(292,586,o),
(255,553,cs),
(159,470,o),
(55,253,o),
(55,122,cs),
(55,35,o),
(97,-10,o),
(175,-10,cs),
(230,-10,o),
(275,32,o),
(312,85,c),
(299,47,o),
(284,7,o),
(267,-34,cs),
(254,-66,o)
);
}
);
width = 507;
}
);
unicode = 290;
},
{
color = 5;
glyphname = H;
kernLeft = _H;
kernRight = _H;
layers = (
{
anchors = (
{
name = bottom;
pos = (242,0);
},
{
name = center;
pos = (242,300);
},
{
name = top;
pos = (510,600);
},
{
name = topleft;
pos = (12,600);
}
);
background = {
anchors = (
{
name = bottom;
pos = (232,0);
},
{
name = center;
pos = (232,317);
},
{
name = top;
pos = (232,633);
},
{
name = topleft;
pos = (2,633);
}
);
shapes = (
{
closed = 1;
nodes = (
(160,-18,o),
(164,-15,o),
(164,-11,cs),
(164,-9,o),
(163,-7,o),
(162,-5,c),
(158,-1,o),
(156,7,o),
(156,17,cs),
(156,45,o),
(171,94,o),
(194,151,c),
(238,120,o),
(289,71,o),
(323,40,c),
(330,28,o),
(340,18,o),
(355,13,cs),
(359,11,o),
(360,11,o),
(361,12,c),
(375,8,o),
(393,6,o),
(403,1,cs),
(410,-3,o),
(414,0,o),
(414,4,cs),
(414,6,o),
(413,8,o),
(412,10,cs),
(408,15,o),
(406,22,o),
(406,32,cs),
(406,140,o),
(615,535,o),
(681,583,cs),
(685,586,o),
(686,588,o),
(686,590,cs),
(686,600,o),
(654,607,o),
(618,607,cs),
(549,607,o),
(519,580,o),
(481,517,cs),
(462,486,o),
(401,379,o),
(358,271,c),
(249,273,l),
(317,412,o),
(403,555,o),
(442,583,cs),
(446,586,o),
(447,588,o),
(447,590,cs),
(447,601,o),
(415,608,o),
(377,608,cs),
(306,608,o),
(274,579,o),
(235,515,cs),
(216,484,o),
(159,382,o),
(116,277,c),
(97,277,l),
(92,278,o),
(86,279,o),
(81,279,cs),
(77,279,o),
(74,278,o),
(70,278,cs),
(42,275,o),
(20,253,o),
(20,234,cs),
(20,223,o),
(27,214,o),
(45,210,cs),
(60,207,o),
(73,204,o),
(87,199,c),
(72,154,o),
(63,111,o),
(63,76,cs),
(63,37,o),
(75,9,o),
(105,-2,cs),
(119,-6,o),
(141,-9,o),
(153,-14,cs)
);
},
{
closed = 1;
nodes = (
(293,116,o),
(258,164,o),
(217,205,c),
(235,245,l),
(272,243,o),
(310,242,o),
(347,242,c),
(326,184,o),
(311,127,o),
(313,85,c)
);
}
);
};
guides = (
{
pos = (160,-26);
}
);
layerId = "C623C401-2266-4A98-B253-3D45160C29C7";
shapes = (
{
closed = 1;
nodes = (
(65,35,o),
(74,15,o),
(94,3,cs),
(113,-8,o),
(153,-19,o),
(165,-19,cs),
(169,-19,o),
(171,-18,o),
(171,-15,cs),
(171,-12,o),
(168,-9,o),
(166,-4,cs),
(163,2,o),
(161,10,o),
(161,24,cs),
(161,76,o),
(206,227,o),
(261,343,cs),
(319,465,o),
(379,550,o),
(415,587,cs),
(425,597,o),
(430,601,o),
(430,606,cs),
(430,613,o),
(409,618,o),
(376,618,cs),
(302,618,o),
(278,591,o),
(235,530,cs),
(201,481,o),
(167,410,o),
(143,355,cs),
(90,236,o),
(63,128,o),
(64,68,cs)
);
},
{
closed = 1;
nodes = (
(404,184,o),
(553,476,o),
(661,587,cs),
(671,597,o),
(676,601,o),
(676,606,cs),
(676,613,o),
(653,618,o),
(616,618,cs),
(554,618,o),
(524,591,o),
(481,530,cs),
(408,424,o),
(286,199,o),
(317,66,c),
(332,67,l),
(216,262,o),
(127,281,o),
(76,281,cs),
(42,281,o),
(20,256,o),
(20,234,cs),
(20,222,o),
(29,213,o),
(45,210,cs),
(186,186,o),
(270,42,o),
(346,-1,cs),
(376,-18,o),
(399,-19,o),
(408,-19,cs),
(416,-19,o),
(420,-17,o),
(420,-13,cs),
(420,-10,o),
(418,-8,o),
(416,-4,cs),
(411,6,o),
(404,30,o),
(404,45,cs)
);
},
{
closed = 1;
nodes = (
(205,233,l),
(251,229,o),
(301,228,o),
(353,228,c),
(365,262,l),
(316,260,o),
(267,261,o),
(216,263,c)
);
}
);
width = 496;
}
);
note = H;
unicode = 72;
},
{
color = 5;
glyphname = Hbar;
kernLeft = _H;
kernRight = _H;
layers = (
{
background = {
shapes = (
{
ref = H;
},
{
pos = (-44,188);
ref = emdash;
}
);
};
layerId = "C623C401-2266-4A98-B253-3D45160C29C7";
shapes = (
{
closed = 1;
nodes = (
(154,443,o),
(592,443,o),
(634,443,cs),
(636,443,o),
(638,444,o),
(639,445,cs),
(643,448,o),
(653,461,o),
(653,466,cs),
(653,469,o),
(652,470,o),
(649,470,cs),
(609,470,o),
(176,470,o),
(137,470,cs),
(131,470,o),
(127,469,o),
(122,464,cs),
(115,457,o),
(110,450,o),
(110,446,cs),
(110,444,o),
(111,443,o),
(113,443,cs)
);
},
{
ref = H;
}
);
width = 496;
}
);
unicode = 294;
},
{
color = 5;
glyphname = I;
kernLeft = _I;
kernRight = _I;
layers = (
{
anchors = (
{
name = bottom;
pos = (105,-21);
},
{
name = ogonek;
pos = (130,2);
},
{
name = top;
pos = (401,610);
},
{
name = topleft;
pos = (4,610);
}
);
background = {
anchors = (
{
name = bottom;
pos = (166,0);
},
{
name = ogonek;
pos = (312,10);
},
{
name = top;
pos = (166,633);
},
{
name = topleft;
pos = (4,633);
}
);
shapes = (
{
closed = 1;
nodes = (
(122,-31,o),
(164,-16,o),
(188,-1,cs),
(244,37,o),
(299,141,o),
(341,238,cs),
(376,320,o),
(437,507,o),
(444,556,cs),
(448,589,o),
(432,604,o),
(401,604,cs),
(302,604,o),
(173,504,o),
(130,421,cs),
(113,388,o),
(107,368,o),
(107,355,cs),
(107,328,o),
(134,335,o),
(143,334,c),
(175,406,o),
(239,519,o),
(306,544,c),
(302,524,ls),
(277,386,o),
(182,138,o),
(115,52,cs),
(109,44,o),
(85,15,o),
(60,12,cs),
(29,9,o),
(18,23,o),
(7,30,cs),
(0,34,o),
(-10,30,o),
(-10,20,cs),
(-10,15,o),
(-8,9,o),
(-2,1,cs),
(14,-19,o),
(41,-31,o),
(75,-31,cs)
);
}
);
};
layerId = "C623C401-2266-4A98-B253-3D45160C29C7";
shapes = (
{
closed = 1;
nodes = (
(214,207,o),
(119,68,cs),
(96,34,o),
(69,21,o),
(52,21,cs),
(21,21,o),
(11,42,o),
(1,42,cs),
(-5,42,o),
(-10,37,o),
(-10,30,cs),
(-10,5,o),
(30,-21,o),
(83,-21,cs),
(134,-21,o),
(187,-4,o),
(232,51,cs),
(340,183,o),
(444,531,o),
(444,573,cs),
(444,600,o),
(432,614,o),
(401,614,cs),
(302,614,o),
(173,514,o),
(130,431,cs),
(113,398,o),
(107,378,o),
(107,365,cs),
(107,351,o),
(116,345,o),
(126,344,cs),
(136,343,o),
(144,348,o),
(149,358,cs),
(175,411,o),
(239,529,o),
(306,554,c),
(282,435,o)
);
}
);
width = 354;
}
);
note = I;
unicode = 73;
},
{
color = 5;
glyphname = J;
kernLeft = _J;
kernRight = _J;
layers = (
{
anchors = (
{
name = bottom;
pos = (214,-20);
},
{
name = top;
pos = (453,600);
}
);
background = {
anchors = (
{
name = bottom;
pos = (214,0);
},
{
name = top;
pos = (453,620);
}
);
shapes = (
{
closed = 1;
nodes = (
(271,-7,o),
(344,132,o),
(396,255,cs),
(428,331,o),
(484,485,o),
(505,565,c),
(543,565,o),
(573,562,o),
(577,554,cs),
(579,551,o),
(583,551,o),
(583,557,cs),
(582,564,o),
(584,574,o),
(584,582,cs),
(584,620,o),
(505,630,o),
(425,630,cs),
(353,630,o),
(281,622,o),
(263,618,cs),
(229,611,o),
(223,605,o),
(212,572,cs),
(209,562,o),
(207,552,o),
(207,545,cs),
(207,536,o),
(210,530,o),
(213,531,cs),
(223,534,o),
(244,539,o),
(271,544,cs),
(298,549,o),
(330,552,o),
(363,557,cs),
(370,558,l),
(345,438,o),
(266,227,o),
(206,116,cs),
(176,61,o),
(144,27,o),
(117,27,cs),
(98,27,o),
(88,45,o),
(88,73,cs),
(88,104,o),
(102,153,o),
(127,200,cs),
(155,253,o),
(197,304,o),
(241,326,cs),
(247,329,o),
(251,331,o),
(251,335,cs),
(251,342,o),
(240,346,o),
(222,346,cs),
(165,346,o),
(106,304,o),
(66,245,cs),
(35,200,o),
(15,145,o),
(15,92,cs),
(15,34,o),
(44,-7,o),
(112,-7,cs)
);
}
);
};
layerId = "C623C401-2266-4A98-B253-3D45160C29C7";
shapes = (
{
closed = 1;
nodes = (
(211,509,o),
(217,512,cs),
(258,530,o),
(409,544,o),
(456,544,cs),
(471,544,o),
(508,547,o),
(539,542,cs),
(568,537,o),
(575,531,o),
(579,531,cs),
(582,531,o),
(584,534,o),
(584,555,cs),
(584,569,o),
(583,577,o),
(568,587,cs),
(540,606,o),
(476,610,o),
(420,610,cs),
(378,610,o),
(290,605,o),
(263,598,cs),
(232,591,o),
(226,587,o),
(218,568,cs),
(213,557,o),
(207,535,o),
(207,523,cs),
(207,513,o)
);
},
{
closed = 1;
nodes = (
(372,550,l),
(350,432,o),
(268,211,o),
(206,96,cs),
(176,41,o),
(144,7,o),
(117,7,cs),
(98,7,o),
(88,25,o),
(88,53,cs),
(88,84,o),
(102,133,o),
(127,180,cs),
(155,233,o),
(197,284,o),
(241,306,cs),
(247,309,o),
(251,311,o),
(251,315,cs),
(251,322,o),
(240,326,o),
(222,326,cs),
(165,326,o),
(106,284,o),
(66,225,cs),
(35,180,o),
(15,125,o),
(15,72,cs),
(15,14,o),
(44,-27,o),
(112,-27,cs),
(229,-27,o),
(318,54,o),
(387,214,cs),
(430,315,o),
(489,479,o),
(508,555,c)
);
}
);
width = 434;
}
);
note = J;
unicode = 74;
},
{
color = 5;
glyphname = K;
kernLeft = _K;
kernRight = _K;
layers = (
{
anchors = (
{
name = bottom;
pos = (426,2);
},
{
name = top;
pos = (358,602);
}
);
background = {
anchors = (
{
name = bottom;
pos = (358,0);
},
{
name = top;
pos = (358,633);
}
);
shapes = (
{
closed = 1;
nodes = (
(627,-15,o),
(679,58,o),
(668,56,cs),
(616,46,o),
(525,288,o),
(522,306,c),
(599,346,o),
(770,451,o),
(770,554,cs),
(770,585,o),
(750,598,o),
(730,598,cs),
(719,598,o),
(707,595,o),
(698,588,cs),
(627,541,o),
(563,335,o),
(408,305,c),
(458,400,o),
(513,491,o),
(539,529,cs),
(549,542,o),
(556,554,o),
(556,567,cs),
(556,572,o),
(555,577,o),
(553,582,cs),
(544,601,o),
(528,623,o),
(510,627,cs),
(437,641,o),
(244,499,o),
(173,499,cs),
(162,499,o),
(151,502,o),
(151,511,cs),
(151,514,o),
(153,518,o),
(155,523,cs),
(157,526,o),
(158,529,o),
(158,531,cs),
(158,536,o),
(155,538,o),
(150,538,cs),
(144,538,o),
(134,534,o),
(127,523,cs),
(100,484,o),
(80,438,o),
(80,408,cs),
(80,393,o),
(85,382,o),
(97,378,cs),
(107,374,o),
(118,372,o),
(128,372,cs),
(224,372,o),
(328,522,o),
(383,546,cs),
(391,550,o),
(394,547,o),
(394,542,cs),
(394,524,o),
(363,474,o),
(358,464,cs),
(322,398,o),
(211,196,o),
(211,81,cs),
(211,42,o),
(224,14,o),
(255,3,cs),
(269,-2,o),
(291,-4,o),
(303,-9,cs),
(310,-13,o),
(314,-10,o),
(314,-6,cs),
(314,-4,o),
(313,-2,o),
(312,0,c),
(306,7,o),
(303,17,o),
(303,31,cs),
(303,83,o),
(344,179,o),
(393,275,c),
(399,275,ls),
(408,274,o),
(420,275,o),
(435,278,c),
(436,275,l),
(443,226,o),
(466,-15,o),
(574,-15,cs)
);
}
);
};
layerId = "C623C401-2266-4A98-B253-3D45160C29C7";
shapes = (
{
closed = 1;
nodes = (
(385,277,l),
(475,270,o),
(598,344,o),
(666,401,cs),
(725,449,o),
(770,505,o),
(770,556,cs),
(770,583,o),
(755,600,o),
(730,600,cs),
(703,600,o),
(679,579,o),
(635,517,cs),
(590,453,o),
(527,328,o),
(398,305,c)
);
},
{
closed = 1;
nodes = (
(311,-5,o),
(314,-4,o),
(314,-2,cs),
(314,0,o),
(310,3,o),
(307,10,cs),
(304,16,o),
(303,23,o),
(303,34,cs),
(303,95,o),
(366,228,o),
(416,321,cs),
(471,423,o),
(498,469,o),
(537,528,cs),
(552,551,o),
(556,557,o),
(556,571,cs),
(556,589,o),
(530,630,o),
(500,630,cs),
(453,630,o),
(378,590,o),
(309,555,cs),
(254,526,o),
(203,501,o),
(175,501,cs),
(160,501,o),
(151,506,o),
(151,515,cs),
(151,522,o),
(157,530,o),
(157,535,cs),
(157,539,o),
(154,541,o),
(149,541,cs),
(142,541,o),
(133,535,o),
(116,509,cs),
(99,483,o),
(80,437,o),
(80,410,cs),
(80,384,o),
(94,374,o),
(128,374,cs),
(167,374,o),
(217,398,o),
(296,475,cs),
(341,519,o),
(377,550,o),
(389,550,cs),
(393,550,o),
(394,548,o),
(394,544,cs),
(394,526,o),
(366,481,o),
(338,429,cs),
(294,347,o),
(211,182,o),
(211,80,cs),
(211,29,o),
(239,-5,o),
(304,-5,cs)
);
},
{
closed = 1;
nodes = (
(432,299,l),
(444,228,o),
(464,-13,o),
(574,-13,cs),
(621,-13,o),
(671,45,o),
(671,58,cs),
(671,60,o),
(670,62,o),
(667,62,cs),
(665,62,o),
(663,61,o),
(659,61,cs),
(614,61,o),
(522,290,o),
(517,327,c)
);
}
);
width = 680;
}
);
note = K;
unicode = 75;
},
{
color = 5;
glyphname = L;
kernLeft = _L;
kernRight = _L;
layers = (
{
anchors = (
{
name = bottom;
pos = (215,-10);
},
{
name = center;
pos = (215,290);
},
{
name = top;
pos = (398,590);
},
{
name = topright;
pos = (484,590);
}
);
background = {
anchors = (
{
name = bottom;
pos = (215,0);
},
{
name = center;
pos = (215,317);
},
{
name = top;
pos = (215,633);
},
{
name = topright;
pos = (405,633);
}
);
shapes = (
{
closed = 1;
nodes = (
(170,-3,o),
(195,7,o),
(236,12,cs),
(275,16,o),
(314,19,o),
(347,19,cs),
(391,19,o),
(423,14,o),
(423,3,cs),
(423,5,ls),
(422,13,o),
(425,27,o),
(425,36,cs),
(425,83,o),
(351,95,o),
(275,95,cs),
(231,95,o),
(187,91,o),
(155,87,c),
(168,126,o),
(190,181,o),
(214,233,c),
(339,294,o),
(457,427,o),
(457,523,cs),
(457,555,o),
(424,578,o),
(389,589,cs),
(372,594,o),
(355,597,o),
(340,597,cs),
(275,595,o),
(260,586,o),
(223,523,cs),
(201,486,o),
(123,349,o),
(80,225,c),
(70,226,o),
(61,228,o),
(51,232,cs),
(38,237,o),
(26,227,o),
(26,219,cs),
(26,215,o),
(29,212,o),
(34,210,cs),
(46,205,o),
(59,202,o),
(72,201,c),
(58,158,o),
(49,117,o),
(49,84,cs),
(49,47,o),
(60,20,o),
(87,9,cs),
(108,0,o),
(125,-3,o),
(141,-3,cs)
);
},
{
closed = 1;
nodes = (
(242,294,ls),
(272,359,o),
(361,547,o),
(391,547,cs),
(399,547,o),
(403,538,o),
(403,524,cs),
(403,506,o),
(396,480,o),
(381,451,cs),
(353,399,o),
(299,328,o),
(235,280,c)
);
}
);
};
layerId = "C623C401-2266-4A98-B253-3D45160C29C7";
shapes = (
{
closed = 1;
nodes = (
(231,85,o),
(187,81,o),
(155,77,c),
(168,116,o),
(192,185,o),
(216,237,c),
(341,298,o),
(457,437,o),
(457,533,cs),
(457,582,o),
(387,607,o),
(334,607,cs),
(281,607,o),
(256,592,o),
(223,533,cs),
(202,496,o),
(136,369,o),
(94,256,c),
(75,257,o),
(62,261,o),
(54,261,cs),
(44,261,o),
(35,254,o),
(35,245,cs),
(35,239,o),
(39,233,o),
(48,230,cs),
(61,225,o),
(76,224,o),
(82,223,c),
(67,176,o),
(49,117,o),
(49,74,cs),
(49,37,o),
(60,10,o),
(87,-1,cs),
(108,-10,o),
(125,-13,o),
(141,-13,cs),
(166,-13,o),
(193,-5,o),
(226,0,cs),
(268,6,o),
(302,9,o),
(328,9,cs),
(343,9,o),
(359,9,o),
(380,6,cs),
(409,2,o),
(416,-5,o),
(420,-5,cs),
(423,-5,o),
(425,-2,o),
(425,19,cs),
(425,39,o),
(421,50,o),
(406,60,cs),
(378,79,o),
(331,85,o),
(275,85,cs)
);
},
{
closed = 1;
nodes = (
(258,339,o),
(317,463,o),
(356,521,cs),
(370,543,o),
(383,557,o),
(391,557,cs),
(399,557,o),
(403,548,o),
(403,534,cs),
(403,504,o),
(386,466,o),
(371,437,cs),
(343,385,o),
(295,330,o),
(231,282,c)
);
}
);
width = 417;
}
);
note = L;
unicode = 76;
},
{
color = 5;
glyphname = LJ;
kernLeft = _L;
layers = (
{
anchors = (
{
name = bottom;
pos = (215,-10);
},
{
name = center;
pos = (215,290);
},
{
name = top;
pos = (398,590);
},
{
name = topright;
pos = (484,590);
}
);
background = {
shapes = (
{
ref = L;
},
{
pos = (421,0);
ref = J;
}
);
};
layerId = "C623C401-2266-4A98-B253-3D45160C29C7";
shapes = (
{
closed = 1;
nodes = (
(302,85,o),
(261,85,cs),
(229,85,o),
(184,81,o),
(155,77,c),
(168,116,o),
(192,185,o),
(216,237,c),
(341,298,o),
(457,437,o),
(457,533,cs),
(457,582,o),
(387,607,o),
(334,607,cs),
(281,607,o),
(256,592,o),
(223,533,cs),
(202,496,o),
(136,369,o),
(94,256,c),
(75,257,o),
(62,261,o),
(54,261,cs),
(44,261,o),
(35,254,o),
(35,245,cs),
(35,239,o),
(39,233,o),
(48,230,cs),
(61,225,o),
(76,224,o),
(82,223,c),
(67,176,o),
(49,117,o),
(49,74,cs),
(49,37,o),
(60,10,o),
(87,-1,cs),
(107,-10,o),
(122,-13,o),
(141,-13,cs),
(180,-13,o),
(253,9,o),
(311,9,cs),
(321,9,o),
(334,8,o),
(344,6,cs),
(373,2,o),
(380,-5,o),
(384,-5,cs),
(387,-5,o),
(389,-2,o),
(389,19,cs),
(389,39,o),
(385,50,o),
(370,60,cs),
(342,79,o)
);
},
{
closed = 1;
nodes = (
(258,339,o),
(317,463,o),
(356,521,cs),
(370,543,o),
(383,557,o),
(391,557,cs),
(399,557,o),
(403,548,o),
(403,534,cs),
(403,504,o),
(386,466,o),
(371,437,cs),
(343,385,o),
(295,330,o),
(231,282,c)
);
},
{
pos = (417,0);
ref = J;
}
);
width = 851;
}
);
metricLeft = L;
metricRight = J;
unicode = 455;
},
{
color = 5;
glyphname = Lj;
kernLeft = _L;
layers = (
{
anchors = (
{
name = bottom;
pos = (215,-10);
},
{
name = center;
pos = (215,290);
},
{
name = top;
pos = (398,590);
},
{
name = topright;
pos = (484,590);
}
);
background = {
shapes = (
{
ref = L;
},
{
pos = (421,0);
ref = j;
}
);
};
layerId = "C623C401-2266-4A98-B253-3D45160C29C7";
shapes = (
{
closed = 1;
nodes = (
(231,86,o),
(187,81,o),
(155,77,c),
(168,116,o),
(192,185,o),
(216,237,c),
(341,298,o),
(457,437,o),
(457,533,cs),
(457,582,o),
(387,607,o),
(334,607,cs),
(281,607,o),
(256,592,o),
(223,533,cs),
(202,496,o),
(136,369,o),
(94,256,c),
(75,257,o),
(62,261,o),
(54,261,cs),
(44,261,o),
(35,254,o),
(35,245,cs),
(35,239,o),
(39,233,o),
(48,230,cs),
(61,225,o),
(76,224,o),
(82,223,c),
(67,176,o),
(49,117,o),
(49,74,cs),
(49,37,o),
(60,10,o),
(87,-1,cs),
(108,-10,o),
(125,-13,o),
(141,-13,cs),
(166,-13,o),
(193,-5,o),
(226,0,cs),
(260,5,o),
(294,9,o),
(321,9,cs),
(336,9,o),
(352,8,o),
(369,4,cs),
(390,-1,o),
(396,-5,o),
(400,-5,cs),
(403,-5,o),
(406,-2,o),
(405,23,cs),
(404,73,o),
(330,86,o),
(275,86,cs)
);
},
{
closed = 1;
nodes = (
(258,339,o),
(317,463,o),
(356,521,cs),
(370,543,o),
(383,557,o),
(391,557,cs),
(399,557,o),
(403,548,o),
(403,534,cs),
(403,504,o),
(386,466,o),
(371,437,cs),
(343,385,o),
(295,330,o),
(231,282,c)
);
},
{
closed = 1;
nodes = (
(691,456,o),
(733,501,o),
(733,545,cs),
(733,570,o),
(716,588,o),
(692,588,cs),
(653,588,o),
(611,544,o),
(611,499,cs),
(611,474,o),
(627,456,o),
(652,456,cs)
);
},
{
closed = 1;
nodes = (
(284,-158,o),
(277,-148,o),
(277,-135,cs),
(277,-95,o),
(359,-68,o),
(418,-52,c),
(393,-113,o),
(350,-158,o),
(309,-158,cs)
);
},
{
closed = 1;
nodes = (
(557,327,o),
(472,60,o),
(432,-21,c),
(358,-40,o),
(235,-73,o),
(235,-142,cs),
(235,-180,o),
(269,-199,o),
(331,-199,cs),
(422,-199,o),
(487,-136,o),
(543,-13,c),
(578,3,o),
(620,36,o),
(651,70,cs),
(683,105,o),
(712,150,o),
(736,197,cs),
(738,201,o),
(741,208,o),
(741,211,cs),
(741,217,o),
(734,227,o),
(727,227,cs),
(723,227,o),
(720,224,o),
(718,220,cs),
(699,182,o),
(678,143,o),
(651,110,cs),
(625,77,o),
(594,50,o),
(561,27,c),
(593,100,o),
(633,196,o),
(659,268,cs),
(676,316,o),
(689,352,o),
(689,368,cs),
(689,386,o),
(681,400,o),
(662,409,cs),
(634,423,o),
(593,428,o),
(558,428,cs),
(553,428,o),
(550,426,o),
(550,423,cs),
(550,419,o),
(557,415,o),
(557,399,cs)
);
}
);
width = 651;
}
);
metricLeft = L;
unicode = 456;
},
{
color = 5;
glyphname = Lslash;
kernLeft = _L;
kernRight = _L;
layers = (
{
anchors = (
{
name = bottom;
pos = (215,-10);
},
{
name = center;
pos = (215,290);
},
{
name = top;
pos = (398,590);
},
{
name = topright;
pos = (484,590);
}
);
background = {
shapes = (
{
ref = L;
},
{
angle = 9.99983;
pos = (-142,-90);
ref = hyphen;
scale = (1.1,0.7225);
}
);
};
layerId = "C623C401-2266-4A98-B253-3D45160C29C7";
shapes = (
{
closed = 1;
nodes = (
(231,85,o),
(187,81,o),
(155,77,c),
(172,128,o),
(199,204,o),
(229,265,c),
(354,326,o),
(457,437,o),
(457,533,cs),
(457,582,o),
(387,607,o),
(334,607,cs),
(281,607,o),
(256,592,o),
(223,533,cs),
(202,496,o),
(154,407,o),
(114,296,c),
(95,297,o),
(82,301,o),
(74,301,cs),
(64,301,o),
(55,294,o),
(55,285,cs),
(55,279,o),
(59,273,o),
(68,270,cs),
(81,265,o),
(96,264,o),
(102,263,c),
(87,216,o),
(49,117,o),
(49,74,cs),
(49,37,o),
(60,10,o),
(87,-1,cs),
(108,-10,o),
(125,-13,o),
(141,-13,cs),
(166,-13,o),
(193,-5,o),
(226,0,cs),
(268,6,o),
(302,9,o),
(328,9,cs),
(343,9,o),
(359,9,o),
(380,6,cs),
(409,2,o),
(416,-5,o),
(420,-5,cs),
(423,-5,o),
(425,-2,o),
(425,19,cs),
(425,39,o),
(421,50,o),
(406,60,cs),
(378,79,o),
(331,85,o),
(275,85,cs)
);
},
{
closed = 1;
nodes = (
(272,371,o),
(317,463,o),
(356,521,cs),
(370,543,o),
(383,557,o),
(391,557,cs),
(399,557,o),
(403,548,o),
(403,534,cs),
(403,504,o),
(386,466,o),
(371,437,cs),
(343,385,o),
(308,356,o),
(244,308,c)
);
},
{
closed = 1;
nodes = (
(96,127,o),
(232,148,o),
(282,180,cs),
(294,188,o),
(305,197,o),
(305,207,cs),
(305,213,o),
(303,216,o),
(298,216,cs),
(291,216,o),
(262,196,o),
(214,185,cs),
(171,175,o),
(58,161,o),
(42,161,cs),
(25,161,o),
(18,155,o),
(18,146,cs),
(18,132,o),
(29,127,o),
(46,127,cs)
);
}
);
width = 417;
}
);
unicode = 321;
},
{
color = 5;
glyphname = M;
kernLeft = _N;
layers = (
{
background = {
shapes = (
{
closed = 1;
nodes = (
(776,-92,o),
(790,-87,o),
(798,-79,c),
(791,-69,o),
(789,-54,o),
(789,-36,cs),
(789,88,o),
(923,371,o),
(955,429,cs),
(972,461,o),
(996,506,o),
(996,546,cs),
(996,572,o),
(985,595,o),
(956,610,cs),
(933,622,o),
(920,629,o),
(909,629,cs),
(901,629,o),
(893,625,o),
(882,617,cs),
(869,607,o),
(708,421,o),
(640,336,c),
(696,423,o),
(744,490,o),
(744,533,cs),
(744,549,o),
(738,562,o),
(723,571,cs),
(706,582,o),
(691,585,o),
(677,585,cs),
(652,585,o),
(633,573,o),
(626,568,cs),
(589,540,o),
(471,399,o),
(413,322,cs),
(408,315,o),
(406,327,o),
(414,340,cs),
(434,370,o),
(478,429,o),
(504,462,cs),
(520,484,o),
(579,551,o),
(573,568,cs),
(567,588,o),
(548,622,o),
(525,627,cs),
(452,641,o),
(259,499,o),
(188,499,cs),
(177,499,o),
(166,502,o),
(166,511,cs),
(166,514,o),
(168,518,o),
(170,523,cs),
(172,526,o),
(173,529,o),
(173,531,cs),
(173,536,o),
(170,538,o),
(165,538,cs),
(159,538,o),
(149,534,o),
(142,523,cs),
(115,484,o),
(95,438,o),
(95,408,cs),
(95,393,o),
(100,382,o),
(112,378,cs),
(122,374,o),
(132,373,o),
(142,373,cs),
(239,373,o),
(351,532,o),
(408,553,cs),
(416,556,o),
(420,554,o),
(420,549,cs),
(420,530,o),
(375,469,o),
(369,459,cs),
(288,326,o),
(231,155,o),
(223,89,cs),
(222,81,o),
(221,74,o),
(221,68,cs),
(221,15,o),
(253,-7,o),
(319,-7,cs),
(326,-7,o),
(329,-6,o),
(329,-4,cs),
(329,-3,o),
(328,-2,o),
(327,0,c),
(320,8,o),
(316,20,o),
(316,35,cs),
(316,192,o),
(516,418,o),
(623,515,c),
(609,492,o),
(563,413,o),
(535,347,cs),
(501,268,o),
(471,176,o),
(471,108,cs),
(471,51,o),
(493,10,o),
(554,10,cs),
(568,10,o),
(578,14,o),
(578,20,cs),
(578,21,o),
(577,22,o),
(577,23,c),
(573,30,o),
(571,41,o),
(571,54,cs),
(571,106,o),
(600,194,o),
(611,220,cs),
(669,352,o),
(819,494,o),
(861,531,c),
(811,448,o),
(687,188,o),
(687,30,cs),
(687,-30,o),
(705,-75,o),
(752,-90,cs),
(756,-91,o),
(760,-92,o),
(764,-92,cs)
);
}
);
};
layerId = "C623C401-2266-4A98-B253-3D45160C29C7";
shapes = (
{
closed = 1;
nodes = (
(633,326,l),
(666,376,o),
(744,493,o),
(744,531,cs),
(744,549,o),
(738,563,o),
(717,575,cs),
(710,580,o),
(690,585,o),
(678,585,cs),
(663,585,o),
(645,580,o),
(631,571,cs),
(603,554,o),
(475,405,o),
(415,324,c),
(413,326,l),
(446,388,o),
(518,478,o),
(537,504,cs),
(557,531,o),
(573,552,o),
(573,565,cs),
(573,577,o),
(550,628,o),
(515,628,cs),
(468,628,o),
(393,588,o),
(324,553,cs),
(269,524,o),
(218,499,o),
(190,499,cs),
(175,499,o),
(166,504,o),
(166,513,cs),
(166,520,o),
(172,528,o),
(172,533,cs),
(172,537,o),
(169,539,o),
(164,539,cs),
(157,539,o),
(148,533,o),
(131,507,cs),
(114,481,o),
(95,435,o),
(95,408,cs),
(95,382,o),
(107,373,o),
(141,373,cs),
(180,373,o),
(232,399,o),
(311,475,cs),
(356,518,o),
(397,554,o),
(414,554,cs),
(418,554,o),
(420,552,o),
(420,548,cs),
(420,530,o),
(375,471,o),
(345,418,cs),
(302,340,o),
(221,149,o),
(221,67,cs),
(221,16,o),
(254,-7,o),
(319,-7,cs),
(326,-7,o),
(329,-6,o),
(329,-4,cs),
(329,-2,o),
(326,1,o),
(322,8,cs),
(319,13,o),
(316,25,o),
(316,36,cs),
(316,95,o),
(345,164,o),
(387,234,cs),
(455,345,o),
(555,454,o),
(622,514,c),
(567,427,o),
(471,234,o),
(471,108,cs),
(471,45,o),
(499,10,o),
(549,10,cs),
(563,10,o),
(577,14,o),
(581,21,c),
(575,29,o),
(570,41,o),
(570,60,cs),
(570,85,o),
(581,151,o),
(611,220,cs),
(669,352,o),
(819,494,o),
(861,531,c),
(811,448,o),
(687,188,o),
(687,30,cs),
(687,-44,o),
(717,-91,o),
(765,-91,cs),
(777,-91,o),
(790,-87,o),
(798,-79,c),
(791,-69,o),
(789,-54,o),
(789,-36,cs),
(789,88,o),
(923,371,o),
(955,429,cs),
(972,461,o),
(996,506,o),
(996,546,cs),
(996,572,o),
(987,592,o),
(956,610,cs),
(935,622,o),
(920,629,o),
(911,629,cs),
(901,629,o),
(892,625,o),
(882,617,cs),
(855,594,o),
(708,421,o),
(635,324,c)
);
}
);
width = 891;
}
);
note = M;
unicode = 77;
},
{
color = 5;
glyphname = N;
kernLeft = _N;
kernRight = _N;
layers = (
{
anchors = (
{
name = bottom;
pos = (420,20);
},
{
name = top;
pos = (636,600);
}
);
background = {
anchors = (
{
name = bottom;
pos = (379,0);
},
{
name = top;
pos = (379,633);
}
);
shapes = (
{
closed = 1;
nodes = (
(326,-7,o),
(329,-6,o),
(329,-4,cs),
(329,-3,o),
(328,-2,o),
(327,0,c),
(320,8,o),
(316,21,o),
(316,36,cs),
(316,206,o),
(512,418,o),
(620,515,c),
(615,499,o),
(600,464,o),
(582,424,cs),
(549,353,o),
(476,208,o),
(476,106,cs),
(476,54,o),
(504,-1,o),
(559,-1,cs),
(574,-1,o),
(590,3,o),
(594,11,c),
(587,20,o),
(583,40,o),
(583,65,cs),
(583,97,o),
(590,138,o),
(604,179,cs),
(634,264,o),
(687,356,o),
(750,480,cs),
(760,500,o),
(767,523,o),
(767,544,cs),
(767,570,o),
(757,594,o),
(729,609,cs),
(711,619,o),
(699,626,o),
(686,626,cs),
(678,626,o),
(669,623,o),
(659,615,cs),
(622,587,o),
(485,426,o),
(414,323,cs),
(409,316,o),
(408,330,o),
(416,343,cs),
(436,373,o),
(478,429,o),
(504,462,cs),
(520,484,o),
(579,551,o),
(573,568,cs),
(567,588,o),
(548,622,o),
(525,627,cs),
(452,641,o),
(259,499,o),
(188,499,cs),
(177,499,o),
(166,502,o),
(166,511,cs),
(166,514,o),
(168,518,o),
(170,523,cs),
(172,526,o),
(173,529,o),
(173,531,cs),
(173,536,o),
(170,538,o),
(165,538,cs),
(159,538,o),
(149,534,o),
(142,523,cs),
(115,484,o),
(95,438,o),
(95,408,cs),
(95,393,o),
(100,382,o),
(112,378,cs),
(122,374,o),
(132,373,o),
(142,373,cs),
(239,373,o),
(351,532,o),
(408,553,cs),
(416,556,o),
(420,554,o),
(420,549,cs),
(420,530,o),
(375,469,o),
(369,459,cs),
(288,326,o),
(231,155,o),
(223,89,cs),
(222,81,o),
(221,74,o),
(221,68,cs),
(221,15,o),
(253,-7,o),
(319,-7,cs)
);
}
);
};
layerId = "C623C401-2266-4A98-B253-3D45160C29C7";
shapes = (
{
closed = 1;
nodes = (
(454,390,o),
(518,468,o),
(537,494,cs),
(557,521,o),
(573,542,o),
(573,555,cs),
(573,567,o),
(550,618,o),
(515,618,cs),
(468,618,o),
(393,578,o),
(324,543,cs),
(269,514,o),
(218,489,o),
(190,489,cs),
(175,489,o),
(166,494,o),
(166,503,cs),
(166,510,o),
(172,518,o),
(172,523,cs),
(172,527,o),
(169,529,o),
(164,529,cs),
(157,529,o),
(148,523,o),
(131,497,cs),
(114,471,o),
(95,425,o),
(95,398,cs),
(95,372,o),
(107,363,o),
(141,363,cs),
(180,363,o),
(232,389,o),
(311,465,cs),
(356,508,o),
(397,544,o),
(414,544,cs),
(418,544,o),
(420,542,o),
(420,538,cs),
(420,520,o),
(375,461,o),
(345,408,cs),
(302,330,o),
(221,139,o),
(221,57,cs),
(221,6,o),
(254,-17,o),
(319,-17,cs),
(326,-17,o),
(329,-16,o),
(329,-14,cs),
(329,-12,o),
(326,-9,o),
(322,-2,cs),
(319,3,o),
(316,15,o),
(316,26,cs),
(316,196,o),
(512,408,o),
(620,505,c),
(615,489,o),
(600,454,o),
(582,414,cs),
(549,343,o),
(476,198,o),
(476,96,cs),
(476,44,o),
(504,-11,o),
(559,-11,cs),
(574,-11,o),
(590,-7,o),
(594,1,c),
(587,10,o),
(583,30,o),
(583,55,cs),
(583,87,o),
(590,128,o),
(604,169,cs),
(634,254,o),
(687,346,o),
(750,470,cs),
(760,490,o),
(767,513,o),
(767,534,cs),
(767,560,o),
(759,581,o),
(729,599,cs),
(711,610,o),
(699,616,o),
(686,616,cs),
(678,616,o),
(669,613,o),
(659,605,cs),
(624,578,o),
(496,429,o),
(423,326,c),
(421,328,l)
);
}
);
width = 667;
}
);
note = N;
unicode = 78;
},
{
color = 5;
glyphname = Nj;
kernLeft = _N;
layers = (
{
background = {
shapes = (
{
ref = N;
},
{
pos = (633,0);
ref = j;
}
);
};
layerId = "C623C401-2266-4A98-B253-3D45160C29C7";
shapes = (
{
closed = 1;
nodes = (
(937,456,o),
(979,501,o),
(979,545,cs),
(979,570,o),
(962,588,o),
(938,588,cs),
(899,588,o),
(857,544,o),
(857,499,cs),
(857,474,o),
(873,456,o),
(898,456,cs)
);
},
{
closed = 1;
nodes = (
(530,-158,o),
(523,-148,o),
(523,-135,cs),
(523,-95,o),
(605,-68,o),
(664,-52,c),
(639,-113,o),
(596,-158,o),
(555,-158,cs)
);
},
{
closed = 1;
nodes = (
(803,327,o),
(718,60,o),
(678,-21,c),
(604,-40,o),
(481,-73,o),
(481,-142,cs),
(481,-180,o),
(515,-199,o),
(577,-199,cs),
(668,-199,o),
(733,-136,o),
(789,-13,c),
(824,3,o),
(866,36,o),
(897,70,cs),
(929,105,o),
(958,150,o),
(982,197,cs),
(984,201,o),
(987,208,o),
(987,211,cs),
(987,217,o),
(980,227,o),
(973,227,cs),
(969,227,o),
(966,224,o),
(964,220,cs),
(945,182,o),
(924,143,o),
(897,110,cs),
(871,77,o),
(840,50,o),
(807,27,c),
(839,100,o),
(879,196,o),
(905,268,cs),
(922,316,o),
(935,352,o),
(935,368,cs),
(935,386,o),
(927,400,o),
(908,409,cs),
(880,423,o),
(839,428,o),
(804,428,cs),
(799,428,o),
(796,426,o),
(796,423,cs),
(796,419,o),
(803,415,o),
(803,399,cs)
);
},
{
ref = N;
}
);
width = 897;
}
);
unicode = 459;
},
{
color = 5;
glyphname = Eng;
kernLeft = _N;
layers = (
{
anchors = (
{
name = bottom;
pos = (420,20);
},
{
name = top;
pos = (636,600);
}
);
background = {
shapes = (
{
closed = 1;
nodes = (
(404,-349,o),
(493,-177,o),
(609,99,cs),
(685,280,o),
(764,466,o),
(764,548,cs),
(764,572,o),
(756,594,o),
(729,609,cs),
(711,619,o),
(699,626,o),
(686,626,cs),
(678,626,o),
(669,623,o),
(659,615,cs),
(622,587,o),
(485,426,o),
(414,323,cs),
(409,316,o),
(408,330,o),
(416,343,cs),
(436,373,o),
(478,429,o),
(504,462,cs),
(520,484,o),
(579,551,o),
(573,568,cs),
(567,588,o),
(548,622,o),
(525,627,cs),
(452,641,o),
(259,499,o),
(188,499,cs),
(177,499,o),
(166,502,o),
(166,511,cs),
(166,514,o),
(168,518,o),
(170,523,cs),
(172,526,o),
(173,529,o),
(173,531,cs),
(173,536,o),
(170,538,o),
(165,538,cs),
(159,538,o),
(149,534,o),
(142,523,cs),
(115,484,o),
(95,438,o),
(95,408,cs),
(95,393,o),
(100,382,o),
(112,378,cs),
(122,374,o),
(132,373,o),
(142,373,cs),
(239,373,o),
(351,532,o),
(408,553,cs),
(416,556,o),
(420,554,o),
(420,549,cs),
(420,530,o),
(375,469,o),
(369,459,cs),
(288,326,o),
(231,155,o),
(223,89,cs),
(222,81,o),
(221,74,o),
(221,68,cs),
(221,15,o),
(253,-7,o),
(319,-7,cs),
(326,-7,o),
(329,-6,o),
(329,-4,cs),
(329,-3,o),
(328,-2,o),
(327,0,c),
(320,8,o),
(316,21,o),
(316,36,cs),
(316,206,o),
(512,418,o),
(620,515,c),
(620,499,o),
(609,432,o),
(597,391,cs),
(548,219,o),
(432,-56,o),
(340,-226,cs),
(307,-286,o),
(280,-310,o),
(262,-310,cs),
(247,-310,o),
(238,-292,o),
(238,-265,cs),
(238,-251,o),
(241,-234,o),
(246,-216,c),
(248,-177,o),
(285,-130,o),
(308,-122,c),
(316,-118,o),
(321,-112,o),
(321,-107,cs),
(321,-99,o),
(313,-92,o),
(298,-92,cs),
(294,-92,o),
(289,-93,o),
(284,-94,cs),
(199,-113,o),
(147,-195,o),
(147,-259,cs),
(147,-312,o),
(181,-349,o),
(243,-349,cs)
);
}
);
};
layerId = "C623C401-2266-4A98-B253-3D45160C29C7";
shapes = (
{
closed = 1;
nodes = (
(765,564,o),
(759,581,o),
(729,599,cs),
(711,610,o),
(699,616,o),
(686,616,cs),
(678,616,o),
(669,613,o),
(659,605,cs),
(624,578,o),
(496,429,o),
(423,326,c),
(421,328,l),
(454,390,o),
(518,468,o),
(537,494,cs),
(557,521,o),
(573,542,o),
(573,555,cs),
(573,567,o),
(550,618,o),
(515,618,cs),
(468,618,o),
(393,578,o),
(324,543,cs),
(269,514,o),
(218,489,o),
(190,489,cs),
(175,489,o),
(166,494,o),
(166,503,cs),
(166,510,o),
(172,518,o),
(172,523,cs),
(172,527,o),
(169,529,o),
(164,529,cs),
(157,529,o),
(148,523,o),
(131,497,cs),
(114,471,o),
(95,425,o),
(95,398,cs),
(95,372,o),
(107,363,o),
(141,363,cs),
(180,363,o),
(232,389,o),
(311,465,cs),
(356,508,o),
(397,544,o),
(414,544,cs),
(418,544,o),
(420,542,o),
(420,538,cs),
(420,520,o),
(375,461,o),
(345,408,cs),
(302,330,o),
(221,139,o),
(221,57,cs),
(221,6,o),
(254,-17,o),
(319,-17,cs),
(326,-17,o),
(329,-16,o),
(329,-14,cs),
(329,-12,o),
(326,-9,o),
(322,-2,cs),
(319,3,o),
(316,15,o),
(316,26,cs),
(316,196,o),
(512,408,o),
(620,505,c),
(620,489,o),
(609,432,o),
(597,391,cs),
(548,219,o),
(432,-56,o),
(340,-226,cs),
(311,-278,o),
(281,-310,o),
(262,-310,cs),
(247,-310,o),
(238,-292,o),
(238,-265,cs),
(238,-213,o),
(264,-149,o),
(308,-122,cs),
(316,-117,o),
(321,-111,o),
(321,-106,cs),
(321,-97,o),
(312,-92,o),
(298,-92,cs),
(232,-92,o),
(147,-176,o),
(147,-259,cs),
(147,-312,o),
(181,-349,o),
(243,-349,cs),
(372,-349,o),
(463,-242,o),
(609,79,cs),
(690,258,o),
(765,471,o),
(765,538,cs)
);
}
);
width = 685;
}
);
metricLeft = N;
unicode = 330;
},
{
color = 5;
glyphname = O;
kernLeft = _O;
kernRight = _O;
layers = (
{
anchors = (
{
name = bottom;
pos = (169,0);
},
{
name = center;
pos = (254,300);
},
{
name = ogonek;
pos = (198,10);
},
{
name = top;
pos = (444,600);
},
{
name = topleft;
pos = (39,600);
},
{
name = topright;
pos = (469,600);
}
);
background = {
anchors = (
{
name = bottom;
pos = (274,0);
},
{
name = center;
pos = (274,317);
},
{
name = ogonek;
pos = (462,10);
},
{
name = top;
pos = (274,633);
},
{
name = topleft;
pos = (59,633);
},
{
name = topright;
pos = (489,633);
}
);
shapes = (
{
closed = 1;
nodes = (
(280,-10,o),
(332,7,o),
(371,38,cs),
(433,86,o),
(487,169,o),
(522,245,cs),
(542,288,o),
(563,355,o),
(563,417,cs),
(563,473,o),
(545,524,o),
(493,547,cs),
(486,550,o),
(480,551,o),
(475,551,cs),
(468,551,o),
(463,549,o),
(463,544,cs),
(463,542,o),
(465,539,o),
(468,535,cs),
(481,520,o),
(488,492,o),
(488,455,cs),
(488,404,o),
(474,338,o),
(443,272,cs),
(367,112,o),
(292,27,o),
(238,27,cs),
(213,27,o),
(204,47,o),
(204,78,cs),
(204,143,o),
(247,257,o),
(276,320,cs),
(307,388,o),
(346,461,o),
(384,506,cs),
(417,543,o),
(458,583,o),
(495,583,cs),
(507,583,o),
(519,578,o),
(530,569,cs),
(534,565,o),
(537,564,o),
(540,564,cs),
(547,564,o),
(550,573,o),
(550,581,cs),
(550,587,o),
(548,593,o),
(545,596,cs),
(530,612,o),
(493,621,o),
(453,621,cs),
(372,621,o),
(312,594,o),
(254,542,cs),
(148,448,o),
(80,282,o),
(80,150,cs),
(80,142,o),
(80,134,o),
(81,126,cs),
(86,31,o),
(155,-10,o),
(231,-10,cs)
);
},
{
closed = 1;
nodes = (
(240,265,o),
(272,297,o),
(272,337,cs),
(272,377,o),
(240,410,o),
(200,410,cs),
(160,410,o),
(127,377,o),
(127,337,cs),
(127,297,o),
(160,265,o),
(200,265,cs)
);
}
);
};
layerId = "C623C401-2266-4A98-B253-3D45160C29C7";
shapes = (
{
closed = 1;
nodes = (
(260,-10,o),
(314,9,o),
(351,38,cs),
(451,115,o),
(543,291,o),
(543,417,cs),
(543,480,o),
(519,527,o),
(475,546,cs),
(467,550,o),
(459,551,o),
(455,551,cs),
(448,551,o),
(443,548,o),
(443,544,cs),
(443,542,o),
(444,540,o),
(448,535,cs),
(461,520,o),
(468,492,o),
(468,455,cs),
(468,404,o),
(454,338,o),
(423,272,cs),
(352,121,o),
(273,27,o),
(218,27,cs),
(195,27,o),
(184,45,o),
(184,78,cs),
(184,131,o),
(213,226,o),
(256,320,cs),
(277,366,o),
(314,447,o),
(360,501,cs),
(391,538,o),
(437,583,o),
(475,583,cs),
(487,583,o),
(499,578,o),
(510,569,cs),
(513,566,o),
(517,564,o),
(520,564,cs),
(526,564,o),
(530,571,o),
(530,581,cs),
(530,587,o),
(529,591,o),
(525,596,cs),
(512,610,o),
(478,621,o),
(433,621,cs),
(355,621,o),
(292,594,o),
(234,542,cs),
(129,447,o),
(60,283,o),
(60,144,cs),
(60,55,o),
(109,-10,o),
(211,-10,cs)
);
}
);
width = 503;
}
);
note = O;
unicode = 79;
},
{
color = 5;
glyphname = Oslash;
kernLeft = _O;
kernRight = _O;
layers = (
{
anchors = (
{
name = bottom;
pos = (239,0);
},
{
name = top;
pos = (451,600);
}
);
background = {
shapes = (
{
closed = 1;
nodes = (
(73,-80,o),
(89,-74,o),
(93,-70,cs),
(106,-55,o),
(126,-30,o),
(150,0,c),
(169,-7,o),
(190,-10,o),
(211,-10,cs),
(253,-10,o),
(296,2,o),
(331,26,cs),
(399,73,o),
(459,163,o),
(497,246,cs),
(517,293,o),
(546,383,o),
(546,461,cs),
(546,495,o),
(541,527,o),
(527,552,c),
(546,585,o),
(560,615,o),
(560,636,cs),
(560,653,o),
(551,663,o),
(528,663,cs),
(519,663,o),
(517,662,o),
(517,660,cs),
(517,658,o),
(521,656,o),
(519,655,c),
(514,642,o),
(503,621,o),
(487,594,c),
(466,608,o),
(440,612,o),
(412,612,cs),
(195,612,o),
(60,342,o),
(60,148,cs),
(60,90,o),
(78,51,o),
(108,24,c),
(57,-48,ls),
(50,-58,o),
(47,-65,o),
(47,-70,cs),
(47,-77,o),
(53,-80,o),
(61,-80,cs)
);
},
{
closed = 1;
nodes = (
(201,28,o),
(192,36,o),
(187,50,c),
(272,164,o),
(385,330,o),
(469,460,cs),
(480,477,l),
(472,415,o),
(447,336,o),
(418,274,cs),
(343,113,o),
(270,28,o),
(217,28,cs)
);
},
{
closed = 1;
nodes = (
(206,205,o),
(233,276,o),
(254,322,cs),
(277,375,o),
(376,574,o),
(447,574,cs),
(456,574,o),
(464,570,o),
(469,563,c),
(405,457,o),
(291,289,o),
(192,144,c)
);
}
);
};
layerId = "C623C401-2266-4A98-B253-3D45160C29C7";
shapes = (
{
closed = 1;
nodes = (
(60,49,o),
(117,-11,o),
(211,-11,cs),
(403,-11,o),
(546,279,o),
(546,461,cs),
(546,554,o),
(505,612,o),
(412,612,cs),
(195,612,o),
(60,342,o),
(60,148,cs)
);
},
{
closed = 1;
nodes = (
(482,331,o),
(314,28,o),
(217,28,cs),
(198,28,o),
(183,42,o),
(183,74,cs),
(183,222,o),
(357,574,o),
(447,574,cs),
(468,574,o),
(482,550,o),
(482,504,cs)
);
},
{
closed = 1;
nodes = (
(561,568,o),
(561,636,cs),
(561,651,o),
(549,663,o),
(533,663,cs),
(527,663,o),
(522,660,o),
(517,648,cs),
(442,477,o),
(234,192,o),
(62,-48,cs),
(55,-57,o),
(52,-65,o),
(52,-70,cs),
(52,-77,o),
(58,-80,o),
(66,-80,cs),
(78,-80,o),
(94,-74,o),
(98,-70,cs),
(156,-2,o)
);
}
);
width = 506;
}
);
note = Oslash;
unicode = 216;
},
{
color = 5;
glyphname = OE;
kernLeft = _O;
kernRight = _E_ss02;
layers = (
{
anchors = (
{
name = bottom;
pos = (520,10);
},
{
name = center;
pos = (496,298);
},
{
name = ogonek;
pos = (665,37);
},
{
name = top;
pos = (675,611);
},
{
name = topleft;
pos = (317,618);
},
{
name = topright;
pos = (750,607);
}
);
background = {
shapes = (
{
closed = 1;
nodes = (
(254,-10,o),
(296,2,o),
(331,26,cs),
(338,31,o),
(345,37,o),
(352,43,c),
(365,15,o),
(393,-3,o),
(428,-3,cs),
(434,-3,o),
(442,-3,o),
(449,-1,cs),
(483,5,o),
(592,23,o),
(660,23,cs),
(689,23,o),
(711,20,o),
(715,11,cs),
(717,6,o),
(722,7,o),
(722,14,cs),
(722,23,o),
(727,39,o),
(727,49,cs),
(727,88,o),
(660,99,o),
(586,99,cs),
(540,99,o),
(491,95,o),
(455,90,c),
(467,125,o),
(488,172,o),
(513,226,c),
(532,227,ls),
(570,229,o),
(607,231,o),
(639,231,cs),
(685,231,o),
(719,228,o),
(725,221,cs),
(733,213,o),
(734,238,o),
(734,242,cs),
(734,274,o),
(632,285,o),
(541,287,c),
(545,294,ls),
(580,355,o),
(608,420,o),
(637,471,cs),
(651,496,o),
(664,518,o),
(675,536,c),
(695,537,o),
(714,538,o),
(732,538,cs),
(778,538,o),
(812,515,o),
(812,524,cs),
(812,526,ls),
(812,534,o),
(814,547,o),
(814,556,cs),
(814,600,o),
(762,618,o),
(679,619,cs),
(652,619,o),
(625,619,o),
(600,615,cs),
(558,609,o),
(545,598,o),
(533,577,cs),
(523,559,l),
(515,573,o),
(503,584,o),
(489,593,cs),
(468,608,o),
(441,612,o),
(412,612,cs),
(187,612,o),
(50,321,o),
(61,126,cs),
(67,32,o),
(137,-10,o),
(213,-10,cs)
);
},
{
closed = 1;
nodes = (
(192,28,o),
(183,48,o),
(183,79,cs),
(183,145,o),
(225,258,o),
(254,322,cs),
(277,375,o),
(376,574,o),
(447,574,cs),
(472,574,o),
(482,549,o),
(482,512,cs),
(482,448,o),
(453,349,o),
(418,274,cs),
(343,113,o),
(270,28,o),
(217,28,cs)
);
}
);
};
layerId = "C623C401-2266-4A98-B253-3D45160C29C7";
shapes = (
{
closed = 1;
nodes = (
(60,43,o),
(122,-10,o),
(216,-10,cs),
(408,-10,o),
(546,339,o),
(546,461,cs),
(546,554,o),
(505,612,o),
(412,612,cs),
(195,612,o),
(60,342,o),
(60,148,cs)
);
},
{
closed = 1;
nodes = (
(485,352,o),
(320,27,o),
(225,27,cs),
(199,27,o),
(183,52,o),
(183,94,cs),
(183,252,o),
(357,574,o),
(447,574,cs),
(474,574,o),
(485,554,o),
(485,508,cs)
);
},
{
closed = 1;
nodes = (
(467,-2,o),
(564,24,o),
(658,24,cs),
(678,24,o),
(698,22,o),
(708,16,cs),
(715,12,o),
(715,9,o),
(718,9,cs),
(723,9,o),
(726,30,o),
(726,51,cs),
(726,64,o),
(720,70,o),
(710,77,cs),
(689,92,o),
(644,99,o),
(584,99,cs),
(544,99,o),
(484,94,o),
(455,90,c),
(500,211,o),
(610,435,o),
(681,556,c),
(547,556,l),
(496,460,o),
(457,345,o),
(417,252,cs),
(383,170,o),
(347,102,o),
(347,74,cs),
(347,36,o),
(373,-2,o),
(423,-2,cs)
);
},
{
closed = 1;
nodes = (
(445,222,l),
(507,226,o),
(586,231,o),
(640,231,cs),
(680,231,o),
(705,228,o),
(717,224,cs),
(723,222,o),
(725,218,o),
(727,218,cs),
(728,218,o),
(729,220,o),
(730,222,cs),
(732,227,o),
(733,235,o),
(733,243,cs),
(733,258,o),
(710,271,o),
(652,279,cs),
(617,284,o),
(552,290,o),
(465,287,c)
);
},
{
closed = 1;
nodes = (
(646,620,o),
(625,619,o),
(600,615,cs),
(558,609,o),
(544,597,o),
(533,577,cs),
(514,543,l),
(512,523,l),
(592,534,o),
(684,538,o),
(734,538,cs),
(766,538,o),
(787,534,o),
(796,529,cs),
(804,525,o),
(805,522,o),
(808,522,cs),
(812,522,o),
(815,533,o),
(815,548,cs),
(815,593,o),
(772,620,o),
(673,620,cs)
);
}
);
width = 750;
}
);
metricLeft = O;
metricRight = E.ss02;
note = OE;
unicode = 338;
},
{
color = 5;
glyphname = P;
kernLeft = _R;
layers = (
{
background = {
shapes = (
{
closed = 1;
nodes = (
(225,-7,o),
(228,-5,o),
(228,-1,cs),
(228,1,o),
(228,3,o),
(226,5,cs),
(222,10,o),
(220,18,o),
(220,29,cs),
(220,70,o),
(247,152,o),
(283,239,c),
(288,233,o),
(302,231,o),
(318,231,cs),
(346,231,o),
(383,237,o),
(401,243,cs),
(523,281,o),
(616,402,o),
(616,498,cs),
(616,576,o),
(553,634,o),
(419,634,cs),
(222,634,o),
(75,573,o),
(75,472,cs),
(75,437,o),
(132,425,o),
(140,424,c),
(163,546,o),
(321,603,o),
(409,603,cs),
(476,603,o),
(501,566,o),
(501,516,cs),
(501,414,o),
(399,261,o),
(337,261,cs),
(326,261,o),
(299,263,o),
(295,267,c),
(303,285,o),
(311,304,o),
(320,322,cs),
(348,381,o),
(391,476,o),
(434,525,cs),
(440,532,o),
(423,537,o),
(377,537,cs),
(335,537,o),
(301,524,o),
(276,485,cs),
(256,453,o),
(133,219,o),
(133,88,cs),
(133,50,o),
(143,21,o),
(170,8,cs),
(183,2,o),
(206,1,o),
(217,-4,cs)
);
}
);
};
layerId = "C623C401-2266-4A98-B253-3D45160C29C7";
shapes = (
{
closed = 1;
nodes = (
(133,45,o),
(142,19,o),
(157,8,cs),
(178,-9,o),
(213,-15,o),
(225,-15,cs),
(228,-15,o),
(230,-14,o),
(230,-11,cs),
(230,-9,o),
(228,-7,o),
(226,-4,cs),
(222,2,o),
(220,10,o),
(220,19,cs),
(220,60,o),
(247,142,o),
(283,229,c),
(291,225,o),
(309,220,o),
(327,220,cs),
(466,220,o),
(616,361,o),
(616,488,cs),
(616,566,o),
(553,624,o),
(419,624,cs),
(211,624,o),
(75,555,o),
(75,462,cs),
(75,438,o),
(105,419,o),
(140,414,c),
(159,518,o),
(294,593,o),
(413,593,cs),
(470,593,o),
(501,559,o),
(501,506,cs),
(501,452,o),
(465,361,o),
(415,303,cs),
(387,270,o),
(359,249,o),
(327,249,cs),
(313,249,o),
(301,253,o),
(295,257,c),
(330,354,o),
(374,449,o),
(436,531,cs),
(439,535,o),
(440,537,o),
(440,539,cs),
(440,541,o),
(438,543,o),
(427,545,cs),
(416,547,o),
(399,548,o),
(385,548,cs),
(337,548,o),
(299,532,o),
(270,479,cs),
(203,359,o),
(133,172,o),
(133,77,cs)
);
}
);
width = 531;
}
);
note = P;
unicode = 80;
},
{
color = 5;
glyphname = Thorn;
layers = (
{
background = {
shapes = (
{
closed = 1;
nodes = (
(718,231,l),
(723,227,o),
(744,220,o),
(765,220,cs),
(904,220,o),
(1054,361,o),
(1054,488,cs),
(1054,566,o),
(991,624,o),
(857,624,cs),
(649,624,o),
(513,555,o),
(513,462,cs),
(513,438,o),
(543,419,o),
(578,414,c),
(597,518,o),
(732,593,o),
(851,593,cs),
(908,593,o),
(939,559,o),
(939,506,cs),
(939,452,o),
(903,361,o),
(853,303,cs),
(825,270,o),
(797,249,o),
(765,249,cs),
(748,249,o),
(734,255,o),
(730,260,c)
);
},
{
closed = 1;
nodes = (
(415,440,o),
(484,531,cs),
(487,535,o),
(488,537,o),
(488,539,cs),
(488,541,o),
(486,543,o),
(475,545,cs),
(464,547,o),
(447,548,o),
(433,548,cs),
(385,548,o),
(347,532,o),
(318,479,cs),
(251,359,o),
(181,172,o),
(181,77,cs),
(181,45,o),
(190,19,o),
(205,8,cs),
(226,-9,o),
(261,-15,o),
(273,-15,cs),
(276,-15,o),
(278,-14,o),
(278,-11,cs),
(278,-9,o),
(276,-7,o),
(274,-4,cs),
(270,2,o),
(268,10,o),
(268,19,cs),
(268,113,o)
);
},
{
closed = 1;
nodes = (
(456,519,o),
(533,610,cs),
(536,614,o),
(537,616,o),
(537,618,cs),
(537,620,o),
(535,622,o),
(524,624,cs),
(513,626,o),
(492,628,o),
(478,628,cs),
(430,628,o),
(393,611,o),
(361,558,cs),
(273,413,o),
(181,172,o),
(181,77,cs),
(181,45,o),
(190,19,o),
(205,8,cs),
(226,-9,o),
(261,-15,o),
(273,-15,cs),
(276,-15,o),
(278,-14,o),
(278,-11,cs),
(278,-9,o),
(276,-7,o),
(274,-4,cs),
(270,2,o),
(268,10,o),
(268,19,cs),
(268,133,o)
);
}
);
};
layerId = "C623C401-2266-4A98-B253-3D45160C29C7";
shapes = (
{
closed = 1;
nodes = (
(255,180,l),
(269,170,o),
(291,146,o),
(350,146,cs),
(506,146,o),
(631,266,o),
(631,392,cs),
(631,474,o),
(542,530,o),
(401,530,cs),
(213,530,o),
(70,458,o),
(70,360,cs),
(70,335,o),
(102,315,o),
(138,309,c),
(158,419,o),
(300,497,o),
(395,497,cs),
(463,497,o),
(506,469,o),
(506,407,cs),
(506,329,o),
(441,182,o),
(343,182,cs),
(290,182,o),
(272,205,o),
(268,211,c)
);
},
{
closed = 1;
nodes = (
(469,529,o),
(581,656,cs),
(584,660,o),
(585,662,o),
(585,664,cs),
(585,667,o),
(583,669,o),
(572,671,cs),
(560,673,o),
(537,675,o),
(522,675,cs),
(473,675,o),
(439,654,o),
(399,600,cs),
(285,445,o),
(177,176,o),
(177,74,cs),
(177,40,o),
(191,12,o),
(210,-2,cs),
(233,-18,o),
(262,-24,o),
(275,-24,cs),
(279,-24,o),
(281,-23,o),
(281,-20,cs),
(281,-18,o),
(279,-15,o),
(276,-12,cs),
(272,-6,o),
(270,3,o),
(270,12,cs),
(270,159,o)
);
}
);
width = 583;
}
);
note = Thorn;
unicode = 222;
},
{
color = 5;
glyphname = Q;
kernLeft = _O;
layers = (
{
anchors = (
{
name = bottom;
pos = (165,-2);
},
{
name = center;
pos = (250,298);
},
{
name = ogonek;
pos = (194,8);
},
{
name = top;
pos = (440,598);
},
{
name = topleft;
pos = (35,598);
},
{
name = topright;
pos = (465,598);
}
);
background = {
shapes = (
{
closed = 1;
nodes = (
(256,1,o),
(305,18,o),
(343,48,cs),
(404,96,o),
(458,177,o),
(492,252,cs),
(511,294,o),
(531,361,o),
(531,422,cs),
(531,477,o),
(514,528,o),
(463,550,cs),
(456,553,o),
(450,554,o),
(445,554,cs),
(438,554,o),
(434,552,o),
(434,547,cs),
(434,545,o),
(436,542,o),
(439,538,cs),
(452,524,o),
(458,496,o),
(458,460,cs),
(458,410,o),
(445,345,o),
(414,279,cs),
(341,122,o),
(268,38,o),
(215,38,cs),
(191,38,o),
(182,58,o),
(182,88,cs),
(182,153,o),
(224,264,o),
(252,327,cs),
(282,394,o),
(320,465,o),
(357,509,cs),
(389,546,o),
(429,585,o),
(466,585,cs),
(478,585,o),
(489,581,o),
(500,572,cs),
(504,568,o),
(507,567,o),
(510,567,cs),
(516,567,o),
(519,575,o),
(519,583,cs),
(519,589,o),
(517,596,o),
(514,599,cs),
(499,615,o),
(462,623,o),
(425,623,cs),
(345,623,o),
(287,596,o),
(230,545,cs),
(121,447,o),
(54,268,o),
(62,135,cs),
(67,42,o),
(135,1,o),
(209,1,cs)
);
},
{
closed = 1;
nodes = (
(395,-208,o),
(425,-163,o),
(425,-123,cs),
(425,-110,o),
(422,-97,o),
(415,-87,c),
(403,-104,o),
(387,-113,o),
(370,-113,cs),
(363,-113,o),
(356,-111,o),
(349,-108,cs),
(277,-71,o),
(216,-5,o),
(132,-5,cs),
(92,-5,o),
(64,-23,o),
(60,-53,cs),
(60,-56,o),
(61,-60,o),
(66,-56,cs),
(73,-50,o),
(81,-48,o),
(90,-48,cs),
(114,-48,o),
(142,-64,o),
(152,-71,cs),
(176,-89,o),
(231,-157,o),
(284,-189,cs),
(306,-203,o),
(327,-208,o),
(345,-208,cs)
);
}
);
};
layerId = "C623C401-2266-4A98-B253-3D45160C29C7";
shapes = (
{
closed = 1;
nodes = (
(388,-221,o),
(425,-184,o),
(425,-136,cs),
(425,-123,o),
(422,-110,o),
(415,-100,c),
(415,-100,o),
(414,-100,o),
(414,-100,c),
(402,-116,o),
(387,-126,o),
(371,-126,cs),
(341,-126,o),
(299,-89,o),
(257,-63,cs),
(212,-35,o),
(176,-18,o),
(132,-18,cs),
(92,-18,o),
(60,-39,o),
(60,-64,cs),
(60,-68,o),
(61,-70,o),
(63,-70,cs),
(65,-70,o),
(68,-68,o),
(74,-65,cs),
(78,-63,o),
(84,-61,o),
(91,-61,cs),
(128,-61,o),
(177,-108,o),
(201,-132,cs),
(266,-198,o),
(304,-221,o),
(345,-221,cs)
);
},
{
closed = 1;
nodes = (
(256,-12,o),
(307,7,o),
(344,36,cs),
(444,113,o),
(531,284,o),
(531,410,cs),
(531,473,o),
(510,516,o),
(466,535,cs),
(458,539,o),
(450,540,o),
(446,540,cs),
(439,540,o),
(434,537,o),
(434,533,cs),
(434,531,o),
(435,529,o),
(439,524,cs),
(452,509,o),
(459,481,o),
(459,444,cs),
(459,298,o),
(306,25,o),
(214,25,cs),
(193,25,o),
(182,41,o),
(182,77,cs),
(182,180,o),
(287,410,o),
(353,491,cs),
(384,529,o),
(428,572,o),
(466,572,cs),
(477,572,o),
(486,569,o),
(494,564,cs),
(502,559,o),
(505,554,o),
(510,554,cs),
(515,554,o),
(519,561,o),
(519,571,cs),
(519,577,o),
(518,581,o),
(514,586,cs),
(501,600,o),
(469,610,o),
(424,610,cs),
(346,610,o),
(288,584,o),
(230,532,cs),
(126,438,o),
(61,277,o),
(61,139,cs),
(61,46,o),
(117,-12,o),
(207,-12,cs)
);
}
);
width = 491;
}
);
metricLeft = O;
metricRight = O;
note = Q;
unicode = 81;
},
{
color = 5;
glyphname = R;
kernLeft = _R;
kernRight = _R;
layers = (
{
anchors = (
{
name = bottom;
pos = (310,0);
},
{
name = top;
pos = (493,600);
}
);
background = {
anchors = (
{
name = bottom;
pos = (299,0);
},
{
name = top;
pos = (299,633);
}
);
shapes = (
{
closed = 1;
nodes = (
(563,-76,o),
(599,0,o),
(587,-3,cs),
(538,-16,o),
(425,194,o),
(401,243,c),
(523,281,o),
(616,402,o),
(616,498,cs),
(616,576,o),
(553,634,o),
(419,634,cs),
(222,634,o),
(75,573,o),
(75,472,cs),
(75,437,o),
(132,425,o),
(140,424,c),
(163,546,o),
(321,603,o),
(409,603,cs),
(476,603,o),
(501,566,o),
(501,516,cs),
(501,414,o),
(399,261,o),
(337,261,cs),
(326,261,o),
(319,263,o),
(315,267,c),
(350,364,o),
(402,473,o),
(460,546,cs),
(466,553,o),
(449,558,o),
(403,558,cs),
(361,558,o),
(324,543,o),
(299,504,cs),
(279,471,o),
(153,225,o),
(153,90,cs),
(153,51,o),
(164,21,o),
(190,8,cs),
(203,2,o),
(226,1,o),
(237,-4,cs),
(245,-7,o),
(248,-5,o),
(248,-1,cs),
(248,1,o),
(248,3,o),
(246,5,cs),
(242,10,o),
(240,18,o),
(240,29,cs),
(240,70,o),
(267,152,o),
(303,239,c),
(306,235,o),
(310,232,o),
(315,229,c),
(325,164,o),
(376,-78,o),
(491,-77,cs)
);
}
);
};
layerId = "C623C401-2266-4A98-B253-3D45160C29C7";
shapes = (
{
closed = 1;
nodes = (
(312,225,l),
(325,144,o),
(373,-99,o),
(493,-97,cs),
(553,-96,o),
(590,-38,o),
(590,-25,cs),
(590,-23,o),
(589,-21,o),
(586,-21,cs),
(584,-21,o),
(582,-22,o),
(578,-22,cs),
(528,-22,o),
(411,197,o),
(397,229,c)
);
},
{
closed = 1;
nodes = (
(153,35,o),
(162,9,o),
(177,-2,cs),
(198,-19,o),
(233,-25,o),
(245,-25,cs),
(248,-25,o),
(250,-24,o),
(250,-21,cs),
(250,-19,o),
(248,-17,o),
(246,-14,cs),
(242,-8,o),
(240,0,o),
(240,9,cs),
(240,50,o),
(267,132,o),
(303,219,c),
(312,214,o),
(327,212,o),
(342,212,cs),
(462,212,o),
(616,347,o),
(616,478,cs),
(616,556,o),
(553,614,o),
(419,614,cs),
(211,614,o),
(75,535,o),
(75,458,cs),
(75,428,o),
(105,409,o),
(140,404,c),
(159,508,o),
(294,583,o),
(413,583,cs),
(470,583,o),
(501,549,o),
(501,496,cs),
(501,398,o),
(403,241,o),
(337,241,cs),
(326,241,o),
(319,243,o),
(315,247,c),
(350,344,o),
(394,439,o),
(456,521,cs),
(459,525,o),
(460,527,o),
(460,529,cs),
(460,531,o),
(458,533,o),
(447,535,cs),
(436,537,o),
(419,538,o),
(405,538,cs),
(357,538,o),
(319,522,o),
(290,469,cs),
(223,349,o),
(153,162,o),
(153,67,cs)
);
}
);
width = 566;
}
);
note = R;
unicode = 82;
},
{
color = 5;
glyphname = S;
kernLeft = _S;
kernRight = _S;
layers = (
{
anchors = (
{
name = bottom;
pos = (214,-12);
},
{
name = top;
pos = (415,600);
}
);
background = {
anchors = (
{
name = bottom;
pos = (243,0);
},
{
name = top;
pos = (243,633);
}
);
shapes = (
{
closed = 1;
nodes = (
(370,-24,o),
(446,29,o),
(446,115,cs),
(446,147,o),
(435,184,o),
(411,225,cs),
(371,290,o),
(315,357,o),
(315,426,cs),
(315,444,o),
(319,463,o),
(328,481,cs),
(353,531,o),
(381,545,o),
(404,545,cs),
(421,545,o),
(435,538,o),
(443,530,c),
(430,495,o),
(421,446,o),
(421,409,cs),
(421,377,o),
(427,354,o),
(442,354,cs),
(444,354,o),
(447,355,o),
(450,356,c),
(454,412,o),
(485,470,o),
(514,513,cs),
(529,535,o),
(548,557,o),
(575,583,cs),
(582,589,o),
(585,595,o),
(585,601,cs),
(585,613,o),
(571,621,o),
(551,621,cs),
(525,621,o),
(489,607,o),
(462,568,c),
(447,574,ls),
(414,587,o),
(373,590,o),
(343,590,cs),
(243,590,o),
(164,529,o),
(164,422,cs),
(164,377,o),
(185,333,o),
(212,292,cs),
(263,216,o),
(338,141,o),
(338,64,cs),
(338,23,o),
(318,6,o),
(289,6,cs),
(242,6,o),
(173,54,o),
(146,134,cs),
(131,179,o),
(120,233,o),
(120,270,cs),
(120,284,o),
(122,296,o),
(125,304,c),
(64,293,o),
(42,232,o),
(42,171,cs),
(42,135,o),
(49,100,o),
(61,75,cs),
(96,4,o),
(176,-24,o),
(254,-24,cs)
);
},
{
closed = 1;
nodes = (
(343,209,o),
(371,237,o),
(371,271,cs),
(371,305,o),
(343,333,o),
(309,333,cs),
(275,333,o),
(247,305,o),
(247,271,cs),
(247,237,o),
(275,209,o),
(309,209,cs)
);
}
);
};
layerId = "C623C401-2266-4A98-B253-3D45160C29C7";
shapes = (
{
closed = 1;
nodes = (
(377,-24,o),
(451,39,o),
(451,124,cs),
(451,178,o),
(418,222,o),
(385,272,cs),
(352,321,o),
(325,373,o),
(325,426,cs),
(325,484,o),
(371,545,o),
(414,545,cs),
(431,545,o),
(445,538,o),
(453,530,c),
(435,487,o),
(429,446,o),
(429,419,cs),
(429,369,o),
(440,354,o),
(452,354,cs),
(455,354,o),
(458,355,o),
(460,356,c),
(466,430,o),
(514,518,o),
(585,583,cs),
(593,591,o),
(595,595,o),
(595,601,cs),
(595,613,o),
(581,621,o),
(561,621,cs),
(535,621,o),
(498,607,o),
(471,568,c),
(447,581,o),
(400,590,o),
(361,590,cs),
(246,590,o),
(174,525,o),
(174,422,cs),
(174,358,o),
(215,299,o),
(257,242,cs),
(302,183,o),
(341,128,o),
(341,66,cs),
(341,30,o),
(322,8,o),
(289,8,cs),
(235,8,o),
(193,48,o),
(164,103,cs),
(140,149,o),
(126,203,o),
(126,254,cs),
(126,271,o),
(129,288,o),
(132,304,c),
(80,295,o),
(40,233,o),
(40,160,cs),
(40,40,o),
(129,-24,o),
(259,-24,cs)
);
}
);
width = 465;
}
);
note = S;
unicode = 83;
},
{
color = 5;
glyphname = Germandbls;
layers = (
{
background = {
shapes = (
{
closed = 1;
nodes = (
(3,-112,o),
(95,-26,o),
(137,34,cs),
(184,101,o),
(270,366,o),
(306,441,cs),
(340,509,o),
(364,554,o),
(408,554,cs),
(428,554,o),
(436,534,o),
(436,506,cs),
(436,459,o),
(413,390,o),
(384,358,cs),
(349,319,o),
(324,308,o),
(298,303,cs),
(290,302,o),
(286,298,o),
(286,295,cs),
(286,291,o),
(289,288,o),
(295,285,cs),
(333,268,o),
(347,217,o),
(347,172,cs),
(347,91,o),
(293,24,o),
(228,24,cs),
(214,24,o),
(200,27,o),
(186,34,cs),
(178,38,o),
(171,40,o),
(166,40,cs),
(159,40,o),
(156,37,o),
(156,32,cs),
(156,28,o),
(158,24,o),
(161,19,cs),
(181,-13,o),
(243,-10,o),
(275,-10,cs),
(390,-10,o),
(454,63,o),
(461,127,cs),
(462,136,o),
(462,145,o),
(462,154,cs),
(462,207,o),
(444,268,o),
(362,303,c),
(425,309,o),
(542,368,o),
(542,465,cs),
(542,578,o),
(446,605,o),
(368,605,cs),
(275,605,o),
(219,536,o),
(181,455,cs),
(152,394,o),
(100,197,o),
(76,145,cs),
(31,49,o),
(-35,-50,o),
(-84,-65,cs),
(-92,-68,o),
(-97,-76,o),
(-97,-86,cs),
(-97,-98,o),
(-88,-112,o),
(-67,-112,cs)
);
}
);
};
layerId = "C623C401-2266-4A98-B253-3D45160C29C7";
shapes = (
{
closed = 1;
nodes = (
(-15,-112,o),
(77,-26,o),
(119,34,cs),
(166,101,o),
(252,366,o),
(288,441,cs),
(330,526,o),
(355,554,o),
(390,554,cs),
(407,554,o),
(418,536,o),
(418,506,cs),
(418,418,o),
(365,326,o),
(280,303,cs),
(272,301,o),
(268,298,o),
(268,294,cs),
(268,290,o),
(271,288,o),
(278,284,cs),
(310,265,o),
(329,223,o),
(329,172,cs),
(329,91,o),
(275,24,o),
(210,24,cs),
(196,24,o),
(182,27,o),
(168,34,cs),
(160,38,o),
(153,40,o),
(148,40,cs),
(141,40,o),
(138,37,o),
(138,32,cs),
(138,7,o),
(182,-12,o),
(233,-12,cs),
(366,-12,o),
(444,52,o),
(444,154,cs),
(444,207,o),
(426,268,o),
(344,303,c),
(407,309,o),
(524,368,o),
(524,465,cs),
(524,552,o),
(458,605,o),
(350,605,cs),
(270,605,o),
(211,558,o),
(163,455,cs),
(134,394,o),
(82,197,o),
(58,145,cs),
(12,45,o),
(-32,-26,o),
(-96,-63,cs),
(-109,-71,o),
(-115,-76,o),
(-115,-86,cs),
(-115,-98,o),
(-106,-112,o),
(-85,-112,cs)
);
}
);
width = 461;
}
);
unicode = 7838;
},
{
color = 5;
glyphname = T;
kernLeft = _T;
kernRight = _T;
layers = (
{
anchors = (
{
name = bottom;
pos = (194,0);
},
{
name = center;
pos = (279,328);
},
{
name = top;
pos = (412,600);
}
);
background = {
anchors = (
{
name = bottom;
pos = (326,0);
},
{
name = center;
pos = (326,317);
},
{
name = top;
pos = (326,633);
}
);
shapes = (
{
closed = 1;
nodes = (
(305,-27,o),
(308,-25,o),
(308,-21,cs),
(308,-19,o),
(308,-17,o),
(306,-15,cs),
(302,-10,o),
(300,-1,o),
(300,11,cs),
(300,70,o),
(349,201,o),
(405,317,cs),
(447,403,o),
(492,479,o),
(524,529,c),
(605,531,o),
(678,524,o),
(688,508,cs),
(691,503,o),
(696,504,o),
(696,510,cs),
(696,512,ls),
(696,520,o),
(698,535,o),
(698,545,cs),
(698,600,o),
(582,615,o),
(473,615,cs),
(390,615,o),
(311,607,o),
(287,602,cs),
(190,583,o),
(156,527,o),
(156,476,cs),
(156,423,o),
(191,375,o),
(228,375,cs),
(231,375,o),
(234,375,o),
(237,376,cs),
(241,377,o),
(246,381,o),
(246,387,cs),
(246,391,o),
(244,395,o),
(238,400,cs),
(220,414,o),
(213,427,o),
(213,439,cs),
(213,481,o),
(310,505,o),
(377,516,c),
(339,451,o),
(207,201,o),
(207,68,cs),
(207,28,o),
(220,-2,o),
(250,-12,cs),
(264,-16,o),
(286,-19,o),
(297,-24,cs)
);
},
{
closed = 1;
nodes = (
(398,307,o),
(426,335,o),
(426,369,cs),
(426,403,o),
(398,431,o),
(364,431,cs),
(330,431,o),
(302,403,o),
(302,369,cs),
(302,335,o),
(330,307,o),
(364,307,cs)
);
}
);
};
layerId = "C623C401-2266-4A98-B253-3D45160C29C7";
shapes = (
{
closed = 1;
nodes = (
(504,533,o),
(528,530,cs),
(554,527,o),
(579,521,o),
(595,509,cs),
(599,506,o),
(600,505,o),
(602,505,cs),
(605,505,o),
(607,508,o),
(607,514,cs),
(607,520,o),
(607,540,o),
(607,549,cs),
(607,604,o),
(521,619,o),
(412,619,cs),
(329,619,o),
(250,611,o),
(226,606,cs),
(129,587,o),
(95,531,o),
(95,480,cs),
(95,427,o),
(130,379,o),
(167,379,cs),
(178,379,o),
(185,384,o),
(185,391,cs),
(185,395,o),
(183,399,o),
(177,404,cs),
(159,418,o),
(152,431,o),
(152,443,cs),
(152,478,o),
(215,507,o),
(316,520,c),
(297,488,o),
(256,412,o),
(219,322,cs),
(190,252,o),
(146,143,o),
(146,69,cs),
(146,48,o),
(151,14,o),
(171,0,cs),
(192,-15,o),
(231,-23,o),
(243,-23,cs),
(246,-23,o),
(248,-22,o),
(248,-19,cs),
(248,-17,o),
(246,-15,o),
(244,-12,cs),
(240,-6,o),
(238,2,o),
(238,11,cs),
(238,63,o),
(278,169,o),
(322,269,cs),
(369,376,o),
(426,477,o),
(463,533,c),
(480,533,o)
);
}
);
width = 442;
}
);
note = T;
unicode = 84;
},
{
color = 5;
glyphname = U;
kernLeft = _U;
kernRight = _U;
layers = (
{
anchors = (
{
name = bottom;
pos = (370,0);
},
{
name = ogonek;
pos = (566,10);
},
{
name = top;
pos = (645,600);
},
{
name = topright;
pos = (766,589);
}
);
background = {
anchors = (
{
name = bottom;
pos = (351,0);
},
{
name = ogonek;
pos = (585,10);
},
{
name = top;
pos = (351,633);
},
{
name = topright;
pos = (624,633);
}
);
shapes = (
{
closed = 1;
nodes = (
(548,-23,o),
(565,-20,o),
(585,-13,c),
(580,-7,o),
(578,4,o),
(578,20,cs),
(578,80,o),
(612,204,o),
(664,314,cs),
(703,396,o),
(754,505,o),
(807,578,cs),
(815,589,o),
(795,598,o),
(749,597,cs),
(684,594,o),
(669,586,o),
(632,523,cs),
(624,510,o),
(609,479,o),
(587,440,cs),
(539,355,o),
(448,202,o),
(419,161,cs),
(394,127,o),
(352,83,o),
(332,83,cs),
(326,83,o),
(322,88,o),
(322,100,cs),
(322,105,o),
(323,113,o),
(325,122,cs),
(355,254,o),
(446,384,o),
(529,491,cs),
(550,517,o),
(566,544,o),
(566,565,cs),
(566,569,o),
(565,573,o),
(564,576,cs),
(558,596,o),
(542,622,o),
(519,627,cs),
(447,641,o),
(250,499,o),
(185,499,cs),
(171,499,o),
(161,503,o),
(161,513,cs),
(161,516,o),
(162,519,o),
(164,523,cs),
(166,527,o),
(167,531,o),
(167,533,cs),
(167,537,o),
(165,539,o),
(161,539,cs),
(154,539,o),
(143,533,o),
(136,523,cs),
(110,483,o),
(90,438,o),
(90,408,cs),
(90,393,o),
(94,382,o),
(106,378,cs),
(116,374,o),
(126,373,o),
(136,373,cs),
(233,373,o),
(345,532,o),
(402,553,cs),
(408,555,o),
(411,552,o),
(411,547,cs),
(411,527,o),
(379,470,o),
(373,460,cs),
(289,327,o),
(217,199,o),
(200,125,cs),
(197,110,o),
(195,96,o),
(195,84,cs),
(195,35,o),
(220,5,o),
(261,-9,cs),
(270,-12,o),
(278,-14,o),
(287,-14,cs),
(328,-14,o),
(366,20,o),
(394,64,cs),
(411,91,o),
(454,161,o),
(496,232,c),
(485,201,o),
(476,170,o),
(469,140,cs),
(463,115,o),
(460,91,o),
(460,71,cs),
(460,15,o),
(482,-23,o),
(533,-23,cs)
);
},
{
closed = 1;
nodes = (
(659,317,o),
(687,345,o),
(687,379,cs),
(687,413,o),
(659,441,o),
(625,441,cs),
(591,441,o),
(563,413,o),
(563,379,cs),
(563,345,o),
(591,317,o),
(625,317,cs)
);
}
);
};
layerId = "C623C401-2266-4A98-B253-3D45160C29C7";
shapes = (
{
closed = 1;
nodes = (
(493,223,l),
(479,183,o),
(460,119,o),
(460,71,cs),
(460,15,o),
(482,-23,o),
(533,-23,cs),
(549,-23,o),
(563,-20,o),
(585,-13,c),
(581,-3,o),
(578,7,o),
(578,24,cs),
(578,80,o),
(612,204,o),
(664,314,cs),
(698,386,o),
(741,477,o),
(787,549,cs),
(799,567,o),
(808,578,o),
(808,583,cs),
(808,589,o),
(796,597,o),
(751,597,cs),
(687,597,o),
(665,580,o),
(632,523,cs),
(573,421,o),
(470,224,o),
(392,131,cs),
(370,104,o),
(347,83,o),
(333,83,cs),
(326,83,o),
(322,88,o),
(322,98,cs),
(322,135,o),
(353,221,o),
(395,295,cs),
(441,376,o),
(499,453,o),
(529,491,cs),
(550,517,o),
(566,544,o),
(566,565,cs),
(566,588,o),
(540,628,o),
(510,628,cs),
(463,628,o),
(388,588,o),
(319,553,cs),
(264,524,o),
(213,499,o),
(185,499,cs),
(170,499,o),
(161,504,o),
(161,513,cs),
(161,520,o),
(167,528,o),
(167,533,cs),
(167,537,o),
(164,539,o),
(159,539,cs),
(152,539,o),
(143,533,o),
(126,507,cs),
(109,481,o),
(90,435,o),
(90,408,cs),
(90,382,o),
(102,373,o),
(136,373,cs),
(175,373,o),
(227,399,o),
(306,475,cs),
(351,518,o),
(390,553,o),
(405,553,cs),
(409,553,o),
(411,550,o),
(411,546,cs),
(411,532,o),
(396,498,o),
(373,460,cs),
(316,368,o),
(289,322,o),
(266,278,cs),
(215,185,o),
(195,131,o),
(195,80,cs),
(195,24,o),
(240,-14,o),
(287,-14,cs),
(374,-14,o),
(451,155,o),
(491,224,c)
);
}
);
width = 674;
}
);
note = U;
unicode = 85;
},
{
color = 5;
glyphname = V;
kernLeft = _W;
layers = (
{
background = {
shapes = (
{
closed = 1;
nodes = (
(426,-14,o),
(595,246,o),
(636,363,cs),
(647,393,o),
(660,428,o),
(660,460,cs),
(660,490,o),
(648,518,o),
(614,539,cs),
(581,559,o),
(540,569,o),
(522,569,cs),
(515,569,o),
(510,566,o),
(510,562,cs),
(510,560,o),
(513,558,o),
(519,558,cs),
(533,557,o),
(545,513,o),
(545,481,cs),
(545,398,o),
(394,31,o),
(312,31,cs),
(298,31,o),
(293,45,o),
(293,66,cs),
(293,180,o),
(409,381,o),
(449,498,cs),
(452,507,o),
(454,516,o),
(454,525,cs),
(454,573,o),
(406,611,o),
(325,611,cs),
(292,611,o),
(233,583,o),
(191,541,cs),
(137,486,o),
(97,401,o),
(97,336,cs),
(97,304,o),
(106,278,o),
(128,261,cs),
(137,254,o),
(145,251,o),
(150,251,cs),
(156,251,o),
(159,254,o),
(159,259,cs),
(159,262,o),
(159,265,o),
(157,268,cs),
(153,276,o),
(151,286,o),
(151,297,cs),
(151,346,o),
(184,423,o),
(244,507,cs),
(272,547,o),
(306,570,o),
(322,570,cs),
(334,570,o),
(340,562,o),
(340,548,cs),
(340,538,o),
(337,526,o),
(331,512,cs),
(289,412,o),
(178,247,o),
(178,90,cs),
(178,24,o),
(213,-14,o),
(280,-14,cs)
);
}
);
};
layerId = "C623C401-2266-4A98-B253-3D45160C29C7";
shapes = (
{
closed = 1;
nodes = (
(452,576,o),
(401,611,o),
(333,611,cs),
(267,611,o),
(212,588,o),
(169,541,cs),
(119,485,o),
(85,418,o),
(85,350,cs),
(85,292,o),
(122,251,o),
(148,251,cs),
(154,251,o),
(157,254,o),
(157,259,cs),
(157,267,o),
(149,275,o),
(149,299,cs),
(149,351,o),
(185,415,o),
(204,449,cs),
(243,517,o),
(292,576,o),
(320,576,cs),
(332,576,o),
(338,568,o),
(338,554,cs),
(338,518,o),
(283,426,o),
(235,313,cs),
(205,243,o),
(177,152,o),
(177,105,cs),
(177,27,o),
(218,-14,o),
(298,-14,cs),
(434,-14,o),
(576,193,o),
(641,329,cs),
(665,379,o),
(679,435,o),
(679,467,cs),
(679,498,o),
(665,534,o),
(619,563,cs),
(595,578,o),
(559,589,o),
(531,589,cs),
(524,589,o),
(520,586,o),
(520,583,cs),
(520,580,o),
(522,578,o),
(527,577,cs),
(534,575,o),
(538,572,o),
(543,563,cs),
(550,551,o),
(555,529,o),
(555,506,cs),
(555,437,o),
(500,294,o),
(451,203,cs),
(382,76,o),
(340,31,o),
(312,31,cs),
(297,31,o),
(291,49,o),
(291,71,cs),
(291,115,o),
(313,187,o),
(348,269,cs),
(392,371,o),
(452,486,o),
(452,523,cs)
);
}
);
width = 619;
}
);
note = V;
unicode = 86;
},
{
color = 5;
glyphname = W;
kernLeft = _W;
kernRight = _W;
layers = (
{
anchors = (
{
name = bottom;
pos = (437,-11);
},
{
name = top;
pos = (674,562);
}
);
background = {
anchors = (
{
name = bottom;
pos = (437,0);
},
{
name = top;
pos = (437,633);
}
);
shapes = (
{
closed = 1;
nodes = (
(332,-14,o),
(386,41,o),
(431,115,c),
(432,33,o),
(475,-13,o),
(551,-13,cs),
(687,-13,o),
(829,211,o),
(891,373,cs),
(907,414,o),
(921,466,o),
(921,510,cs),
(921,563,o),
(900,606,o),
(838,606,cs),
(827,606,o),
(816,605,o),
(803,602,cs),
(794,601,o),
(788,594,o),
(788,590,cs),
(788,586,o),
(791,584,o),
(796,584,cs),
(808,584,o),
(813,571,o),
(813,550,cs),
(813,473,o),
(745,286,o),
(721,236,cs),
(669,127,o),
(606,28,o),
(558,28,cs),
(544,28,o),
(538,44,o),
(538,70,cs),
(538,163,o),
(619,393,o),
(713,517,cs),
(720,525,o),
(695,532,o),
(659,530,cs),
(607,529,o),
(591,538,o),
(556,486,cs),
(538,459,o),
(505,383,o),
(470,286,c),
(404,146,o),
(342,31,o),
(300,31,cs),
(286,31,o),
(281,45,o),
(281,66,cs),
(281,180,o),
(397,381,o),
(437,498,cs),
(440,507,o),
(442,517,o),
(442,525,cs),
(442,573,o),
(395,611,o),
(313,611,cs),
(280,611,o),
(221,583,o),
(179,541,cs),
(125,486,o),
(85,401,o),
(85,336,cs),
(85,304,o),
(94,278,o),
(116,261,cs),
(125,254,o),
(133,251,o),
(138,251,cs),
(144,251,o),
(147,254,o),
(147,259,cs),
(147,262,o),
(147,265,o),
(145,268,cs),
(141,276,o),
(139,286,o),
(139,297,cs),
(139,346,o),
(172,423,o),
(232,507,cs),
(260,547,o),
(295,570,o),
(311,570,cs),
(322,570,o),
(328,562,o),
(328,549,cs),
(328,539,o),
(325,526,o),
(319,512,cs),
(277,412,o),
(166,247,o),
(166,90,cs),
(166,24,o),
(201,-14,o),
(268,-14,cs)
);
}
);
};
layerId = "C623C401-2266-4A98-B253-3D45160C29C7";
shapes = (
{
closed = 1;
nodes = (
(342,31,o),
(301,31,cs),
(286,31,o),
(281,43,o),
(281,66,cs),
(281,113,o),
(303,187,o),
(338,269,cs),
(382,371,o),
(442,487,o),
(442,523,cs),
(442,577,o),
(386,611,o),
(323,611,cs),
(272,611,o),
(212,578,o),
(169,531,cs),
(119,475,o),
(85,396,o),
(85,338,cs),
(85,280,o),
(115,251,o),
(138,251,cs),
(144,251,o),
(147,254,o),
(147,259,cs),
(147,267,o),
(139,275,o),
(139,299,cs),
(139,351,o),
(175,415,o),
(194,449,cs),
(233,517,o),
(282,570,o),
(310,570,cs),
(322,570,o),
(328,562,o),
(328,548,cs),
(328,510,o),
(266,415,o),
(218,302,cs),
(188,232,o),
(166,159,o),
(166,92,cs),
(166,18,o),
(205,-14,o),
(269,-14,cs),
(330,-14,o),
(382,36,o),
(431,115,c),
(432,33,o),
(475,-13,o),
(551,-13,cs),
(687,-13,o),
(829,211,o),
(891,373,cs),
(907,414,o),
(921,466,o),
(921,510,cs),
(921,575,o),
(890,606,o),
(838,606,cs),
(801,606,o),
(788,598,o),
(788,590,cs),
(788,586,o),
(791,584,o),
(796,584,cs),
(809,584,o),
(813,575,o),
(813,550,cs),
(813,473,o),
(745,286,o),
(721,236,cs),
(669,127,o),
(606,28,o),
(561,28,cs),
(544,28,o),
(538,44,o),
(538,70,cs),
(538,126,o),
(568,231,o),
(610,332,cs),
(637,396,o),
(668,456,o),
(704,505,cs),
(710,513,o),
(714,517,o),
(714,520,cs),
(714,527,o),
(691,532,o),
(659,532,cs),
(595,532,o),
(582,526,o),
(556,486,cs),
(530,444,o),
(495,340,o),
(470,287,cs),
(404,146,o)
);
}
);
width = 851;
}
);
note = W;
unicode = 87;
},
{
color = 5;
glyphname = X;
layers = (
{
background = {
shapes = (
{
closed = 1;
nodes = (
(21,-10,o),
(28,-10,o),
(34,-8,cs),
(61,0,o),
(155,113,o),
(212,192,c),
(223,80,o),
(255,-3,o),
(324,-3,cs),
(372,-3,o),
(412,41,o),
(444,85,cs),
(462,110,o),
(468,126,o),
(468,134,cs),
(468,138,o),
(466,140,o),
(463,140,cs),
(458,140,o),
(451,135,o),
(445,127,cs),
(426,102,o),
(410,92,o),
(396,92,cs),
(378,92,o),
(365,109,o),
(355,132,cs),
(342,164,o),
(336,220,o),
(335,280,c),
(442,393,o),
(536,501,o),
(558,560,cs),
(560,566,o),
(561,572,o),
(561,578,cs),
(561,604,o),
(540,623,o),
(526,623,cs),
(521,623,o),
(517,621,o),
(515,616,cs),
(479,526,o),
(400,411,o),
(335,333,c),
(336,400,o),
(341,463,o),
(345,494,cs),
(346,505,o),
(350,522,o),
(350,538,cs),
(350,558,o),
(345,576,o),
(323,576,cs),
(303,576,o),
(271,558,o),
(222,514,c),
(201,454,o),
(165,339,o),
(63,264,cs),
(58,261,o),
(56,257,o),
(56,253,cs),
(56,245,o),
(63,239,o),
(72,239,cs),
(76,239,o),
(80,240,o),
(84,243,cs),
(140,280,o),
(180,319,o),
(209,360,c),
(208,332,o),
(208,305,o),
(208,279,cs),
(208,247,l),
(133,149,o),
(18,43,o),
(-19,20,cs),
(-27,15,o),
(-30,11,o),
(-30,7,cs),
(-30,-4,o),
(-7,-10,o),
(14,-10,cs)
);
}
);
};
layerId = "C623C401-2266-4A98-B253-3D45160C29C7";
shapes = (
{
closed = 1;
nodes = (
(21,-20,o),
(29,-19,o),
(35,-17,cs),
(41,-15,o),
(51,-8,o),
(64,4,cs),
(104,42,o),
(169,122,o),
(212,182,c),
(223,70,o),
(255,-13,o),
(324,-13,cs),
(372,-13,o),
(412,31,o),
(444,75,cs),
(462,100,o),
(468,116,o),
(468,124,cs),
(468,129,o),
(466,133,o),
(462,133,cs),
(458,133,o),
(455,129,o),
(449,122,cs),
(426,95,o),
(410,85,o),
(396,85,cs),
(378,85,o),
(365,99,o),
(355,122,cs),
(342,154,o),
(336,210,o),
(335,270,c),
(442,383,o),
(536,491,o),
(558,550,cs),
(560,556,o),
(561,562,o),
(561,568,cs),
(561,594,o),
(539,614,o),
(525,614,cs),
(520,614,o),
(517,611,o),
(515,606,cs),
(478,514,o),
(400,401,o),
(335,323,c),
(336,390,o),
(340,450,o),
(344,481,cs),
(345,492,o),
(350,526,o),
(350,541,cs),
(350,564,o),
(341,576,o),
(323,576,cs),
(303,576,o),
(271,558,o),
(222,514,c),
(201,454,o),
(165,339,o),
(63,264,cs),
(58,261,o),
(56,257,o),
(56,253,cs),
(56,245,o),
(62,239,o),
(72,239,cs),
(84,239,o),
(107,258,o),
(135,281,cs),
(165,306,o),
(193,335,o),
(209,360,c),
(208,332,o),
(208,305,o),
(208,269,cs),
(208,237,l),
(149,160,o),
(63,74,o),
(-4,21,cs),
(-19,9,o),
(-30,4,o),
(-30,-3,cs),
(-30,-14,o),
(-7,-20,o),
(14,-20,cs)
);
}
);
width = 466;
}
);
note = X;
unicode = 88;
},
{
color = 5;
glyphname = Y;
kernLeft = _Y;
kernRight = _Y;
layers = (
{
anchors = (
{
name = bottom;
pos = (655,-20);
},
{
name = top;
pos = (645,580);
},
{
name = topleft;
pos = (67,580);
}
);
background = {
anchors = (
{
name = bottom;
pos = (350,0);
},
{
name = top;
pos = (350,633);
},
{
name = topleft;
pos = (67,633);
}
);
shapes = (
{
closed = 1;
nodes = (
(454,-206,o),
(531,-50,o),
(583,68,cs),
(610,130,o),
(774,559,o),
(817,581,cs),
(823,584,o),
(826,588,o),
(826,591,cs),
(826,594,o),
(823,596,o),
(818,596,cs),
(709,596,ls),
(670,596,o),
(661,560,o),
(640,506,cs),
(607,418,o),
(431,127,o),
(385,93,cs),
(374,85,o),
(362,78,o),
(353,78,cs),
(345,78,o),
(339,83,o),
(339,97,cs),
(339,107,o),
(342,121,o),
(349,141,cs),
(364,184,o),
(391,243,o),
(418,302,cs),
(437,346,o),
(497,450,o),
(530,504,cs),
(545,530,o),
(555,548,o),
(555,566,cs),
(555,576,o),
(552,587,o),
(544,599,cs),
(535,612,o),
(523,624,o),
(510,627,cs),
(437,641,o),
(244,499,o),
(173,499,cs),
(162,499,o),
(151,502,o),
(151,511,cs),
(151,514,o),
(153,518,o),
(155,523,cs),
(157,526,o),
(158,529,o),
(158,531,cs),
(158,536,o),
(155,538,o),
(150,538,cs),
(144,538,o),
(134,534,o),
(127,523,cs),
(100,484,o),
(80,438,o),
(80,408,cs),
(80,393,o),
(85,382,o),
(97,378,cs),
(107,374,o),
(117,373,o),
(127,373,cs),
(224,373,o),
(336,532,o),
(393,553,cs),
(398,555,o),
(400,552,o),
(400,547,cs),
(400,507,o),
(291,303,o),
(245,201,cs),
(225,155,o),
(214,115,o),
(214,82,cs),
(214,30,o),
(241,-2,o),
(293,-12,cs),
(297,-13,o),
(301,-13,o),
(306,-13,cs),
(358,-13,o),
(405,48,o),
(446,119,cs),
(459,143,o),
(500,203,o),
(540,262,c),
(525,229,o),
(510,196,o),
(494,163,cs),
(456,79,o),
(385,-168,o),
(270,-168,cs),
(258,-168,o),
(246,-165,o),
(234,-160,cs),
(231,-159,o),
(228,-158,o),
(225,-158,cs),
(217,-158,o),
(213,-163,o),
(213,-169,cs),
(213,-173,o),
(215,-178,o),
(220,-182,cs),
(246,-203,o),
(274,-206,o),
(300,-206,cs)
);
}
);
};
layerId = "C623C401-2266-4A98-B253-3D45160C29C7";
shapes = (
{
closed = 1;
nodes = (
(534,229,l),
(505,165,o),
(424,-55,o),
(368,-126,cs),
(336,-166,o),
(306,-188,o),
(270,-188,cs),
(245,-188,o),
(235,-178,o),
(224,-178,cs),
(218,-178,o),
(213,-182,o),
(213,-189,cs),
(213,-207,o),
(253,-226,o),
(296,-226,cs),
(404,-226,o),
(487,-158,o),
(560,-2,cs),
(616,118,o),
(700,344,o),
(757,463,cs),
(779,507,o),
(799,546,o),
(815,560,cs),
(822,566,o),
(826,568,o),
(826,571,cs),
(826,574,o),
(824,576,o),
(817,576,cs),
(717,576,ls),
(682,576,o),
(672,569,o),
(652,517,cs),
(607,398,o),
(477,182,o),
(409,99,cs),
(387,72,o),
(367,58,o),
(353,58,cs),
(346,58,o),
(339,64,o),
(339,74,cs),
(339,144,o),
(477,398,o),
(512,456,cs),
(529,485,o),
(556,524,o),
(556,545,cs),
(556,568,o),
(530,608,o),
(500,608,cs),
(453,608,o),
(378,568,o),
(309,533,cs),
(254,504,o),
(203,479,o),
(175,479,cs),
(160,479,o),
(151,484,o),
(151,493,cs),
(151,500,o),
(157,508,o),
(157,513,cs),
(157,517,o),
(154,519,o),
(149,519,cs),
(142,519,o),
(133,513,o),
(116,487,cs),
(99,461,o),
(80,415,o),
(80,388,cs),
(80,362,o),
(92,353,o),
(126,353,cs),
(165,353,o),
(217,379,o),
(296,455,cs),
(341,498,o),
(380,533,o),
(395,533,cs),
(399,533,o),
(401,530,o),
(401,526,cs),
(401,496,o),
(337,369,o),
(295,287,cs),
(246,192,o),
(213,112,o),
(213,61,cs),
(213,5,o),
(258,-33,o),
(305,-33,cs),
(388,-33,o),
(441,91,o),
(533,230,c)
);
}
);
width = 691;
}
);
note = Y;
unicode = 89;
},
{
color = 5;
glyphname = Ydotbelow;
kernLeft = _Y;
kernRight = _Y;
layers = (
{
background = {
shapes = (
{
ref = Y;
},
{
pos = (256,0);
ref = dotbelowcomb;
}
);
};
layerId = "C623C401-2266-4A98-B253-3D45160C29C7";
shapes = (
{
closed = 1;
nodes = (
(579,-241,o),
(620,-199,o),
(620,-154,cs),
(620,-131,o),
(606,-114,o),
(583,-114,cs),
(545,-114,o),
(504,-154,o),
(504,-199,cs),
(504,-224,o),
(518,-241,o),
(541,-241,cs)
);
},
{
ref = Y;
}
);
width = 691;
}
);
unicode = 7924;
},
{
color = 5;
glyphname = Z;
kernLeft = _Z;
kernRight = _Z;
layers = (
{
anchors = (
{
name = bottom;
pos = (190,17);
},
{
name = center;
pos = (270,358);
},
{
name = top;
pos = (364,587);
}
);
background = {
anchors = (
{
name = bottom;
pos = (202,0);
},
{
name = center;
pos = (202,317);
},
{
name = top;
pos = (202,633);
}
);
shapes = (
{
closed = 1;
nodes = (
(283,-153,o),
(412,31,o),
(412,156,cs),
(412,236,o),
(365,262,o),
(307,262,cs),
(288,262,o),
(267,259,o),
(246,254,c),
(297,319,o),
(473,446,o),
(507,507,cs),
(519,528,o),
(527,555,o),
(527,590,cs),
(527,598,o),
(522,601,o),
(517,601,cs),
(511,601,o),
(506,598,o),
(504,591,cs),
(501,578,o),
(482,565,o),
(462,559,cs),
(451,555,o),
(436,553,o),
(415,553,cs),
(361,554,o),
(292,582,o),
(273,582,cs),
(239,582,o),
(205,547,o),
(184,517,cs),
(164,489,o),
(129,444,o),
(129,418,cs),
(129,411,o),
(133,408,o),
(137,408,cs),
(141,408,o),
(146,411,o),
(148,414,cs),
(175,463,o),
(236,472,o),
(266,469,cs),
(300,465,o),
(336,455,o),
(359,444,c),
(315,384,o),
(174,236,o),
(173,221,cs),
(172,208,o),
(196,191,o),
(212,191,cs),
(215,191,o),
(218,192,o),
(220,193,cs),
(233,202,o),
(258,228,o),
(274,228,cs),
(285,228,o),
(291,217,o),
(289,184,cs),
(283,98,o),
(152,-105,o),
(49,-107,cs),
(28,-108,o),
(19,-99,o),
(19,-85,cs),
(19,-44,o),
(98,44,o),
(159,74,cs),
(173,80,o),
(182,90,o),
(182,97,cs),
(182,101,o),
(179,103,o),
(173,103,cs),
(170,103,o),
(166,102,o),
(161,101,cs),
(120,91,o),
(56,51,o),
(25,23,cs),
(-8,-6,o),
(-28,-38,o),
(-28,-67,cs),
(-28,-83,o),
(-22,-98,o),
(-10,-111,cs),
(12,-135,o),
(48,-153,o),
(93,-153,cs)
);
}
);
};
layerId = "C623C401-2266-4A98-B253-3D45160C29C7";
shapes = (
{
closed = 1;
nodes = (
(271,-136,o),
(400,48,o),
(400,173,cs),
(400,253,o),
(353,279,o),
(295,279,cs),
(276,279,o),
(255,276,o),
(234,271,c),
(285,336,o),
(449,449,o),
(495,524,cs),
(508,545,o),
(515,575,o),
(515,605,cs),
(515,615,o),
(510,618,o),
(505,618,cs),
(499,618,o),
(497,615,o),
(493,607,cs),
(477,576,o),
(436,570,o),
(403,570,cs),
(349,571,o),
(290,599,o),
(259,599,cs),
(229,599,o),
(196,567,o),
(174,537,cs),
(154,509,o),
(117,461,o),
(117,435,cs),
(117,429,o),
(120,425,o),
(125,425,cs),
(129,425,o),
(132,427,o),
(136,431,cs),
(170,465,o),
(210,487,o),
(242,487,cs),
(270,488,o),
(320,474,o),
(347,461,c),
(303,401,o),
(162,253,o),
(161,238,cs),
(160,225,o),
(184,208,o),
(200,208,cs),
(214,208,o),
(241,245,o),
(262,245,cs),
(273,245,o),
(278,233,o),
(278,216,cs),
(278,120,o),
(138,-90,o),
(35,-90,cs),
(17,-90,o),
(7,-83,o),
(7,-68,cs),
(7,-30,o),
(69,42,o),
(147,91,cs),
(162,100,o),
(170,107,o),
(170,113,cs),
(170,117,o),
(167,120,o),
(161,120,cs),
(133,120,o),
(58,80,o),
(8,36,cs),
(-17,14,o),
(-40,-22,o),
(-40,-50,cs),
(-40,-100,o),
(22,-136,o),
(81,-136,cs)
);
}
);
width = 410;
}
);
note = Z;
unicode = 90;
},
{
color = 5;
glyphname = A.ss01;
kernLeft = _A_ss01;
kernRight = _A_ss01;
layers = (
{
anchors = (
{
name = bottom;
pos = (654,0);
},
{
name = ogonek;
pos = (858,23);
},
{
name = top;
pos = (1156,652);
}
);
background = {
anchors = (
{
name = bottom;
pos = (613,0);
},
{
name = ogonek;
pos = (901,22);
},
{
name = top;
pos = (1267,642);
}
);
shapes = (
{
closed = 1;
nodes = (
(385,-76,o),
(460,-52,o),
(529,-7,cs),
(597,38,o),
(661,106,o),
(725,195,cs),
(767,253,ls),
(783,276,o),
(801,301,o),
(820,326,c),
(912,320,l),
(893,268,o),
(881,220,o),
(873,181,cs),
(862,141,o),
(849,106,o),
(830,81,cs),
(803,49,o),
(766,37,o),
(731,40,cs),
(719,40,o),
(713,30,o),
(713,19,cs),
(713,9,o),
(719,-1,o),
(731,-1,c),
(749,10,o),
(773,14,o),
(797,14,cs),
(825,14,o),
(854,8,o),
(876,1,cs),
(907,-9,o),
(933,-14,o),
(956,-14,cs),
(1014,-14,o),
(1052,16,o),
(1086,68,cs),
(1114,111,o),
(1137,151,o),
(1158,194,cs),
(1160,198,o),
(1161,202,o),
(1161,205,cs),
(1161,212,o),
(1156,216,o),
(1150,216,cs),
(1144,216,o),
(1136,211,o),
(1131,200,cs),
(1124,184,o),
(1113,165,o),
(1094,134,cs),
(1064,79,o),
(1019,66,o),
(967,63,cs),
(962,62,o),
(952,62,o),
(939,62,cs),
(926,62,o),
(912,62,o),
(898,61,cs),
(844,59,l),
(922,78,o),
(961,144,o),
(997,216,cs),
(1005,233,o),
(1012,250,o),
(1020,267,cs),
(1041,318,l),
(1078,319,o),
(1120,322,o),
(1148,330,cs),
(1155,332,o),
(1159,338,o),
(1159,343,cs),
(1159,347,o),
(1156,351,o),
(1150,351,cs),
(1147,351,l),
(1116,344,o),
(1083,341,o),
(1050,341,c),
(1081,418,o),
(1111,493,o),
(1155,562,c),
(1166,584,o),
(1209,625,o),
(1247,625,cs),
(1251,625,o),
(1254,625,o),
(1258,624,cs),
(1262,622,o),
(1266,621,o),
(1269,621,cs),
(1278,621,o),
(1284,629,o),
(1284,637,cs),
(1284,644,o),
(1278,652,o),
(1264,653,cs),
(1152,660,o),
(1065,624,o),
(992,568,cs),
(919,511,o),
(858,432,o),
(798,352,c),
(756,354,o),
(714,356,o),
(673,356,cs),
(647,356,o),
(622,356,o),
(598,354,c),
(592,435,o),
(522,500,o),
(411,500,cs),
(322,500,o),
(229,465,o),
(159,405,cs),
(89,344,o),
(40,258,o),
(40,155,cs),
(40,1,o),
(160,-76,o),
(298,-76,cs)
);
},
{
closed = 1;
nodes = (
(247,39,o),
(184,110,o),
(184,209,cs),
(184,338,o),
(297,465,o),
(427,465,cs),
(516,465,o),
(554,415,o),
(548,349,c),
(517,344,o),
(487,338,o),
(459,329,cs),
(400,308,o),
(343,269,o),
(343,215,cs),
(343,175,o),
(368,149,o),
(425,149,cs),
(512,149,o),
(583,230,o),
(596,324,c),
(633,328,o),
(671,330,o),
(708,330,cs),
(732,330,o),
(756,329,o),
(780,328,c),
(724,255,o),
(669,183,o),
(605,129,cs),
(541,75,o),
(469,39,o),
(377,39,cs)
);
},
{
closed = 1;
nodes = (
(427,217,o),
(418,224,o),
(418,237,cs),
(418,260,o),
(450,289,o),
(486,301,cs),
(502,306,o),
(520,311,o),
(541,316,c),
(526,266,o),
(487,217,o),
(446,217,cs)
);
},
{
closed = 1;
nodes = (
(880,347,ls),
(866,348,o),
(852,349,o),
(838,350,c),
(901,434,o),
(995,551,o),
(1045,568,c),
(989,508,o),
(949,425,o),
(920,345,c)
);
}
);
};
layerId = "C623C401-2266-4A98-B253-3D45160C29C7";
shapes = (
{
closed = 1;
nodes = (
(1043,565,l),
(979,496,o),
(934,392,o),
(905,299,cs),
(876,207,o),
(865,126,o),
(830,81,cs),
(807,53,o),
(776,41,o),
(755,41,cs),
(745,41,o),
(739,43,o),
(731,43,cs),
(719,43,o),
(711,35,o),
(711,22,cs),
(711,7,o),
(719,0,o),
(730,0,cs),
(749,0,o),
(765,12,o),
(799,12,cs),
(827,12,o),
(854,8,o),
(876,1,cs),
(907,-9,o),
(930,-14,o),
(962,-14,cs),
(1002,-14,o),
(1042,9,o),
(1069,44,cs),
(1106,92,o),
(1144,165,o),
(1162,201,cs),
(1164,205,o),
(1165,208,o),
(1165,211,cs),
(1165,217,o),
(1158,227,o),
(1151,227,cs),
(1147,227,o),
(1144,224,o),
(1142,220,cs),
(1105,150,o),
(1083,106,o),
(1039,81,cs),
(1004,61,o),
(954,60,o),
(850,59,c),
(850,61,l),
(924,81,o),
(963,145,o),
(997,216,cs),
(1033,292,o),
(1107,496,o),
(1157,565,cs),
(1184,602,o),
(1218,625,o),
(1247,625,cs),
(1258,625,o),
(1262,621,o),
(1269,621,cs),
(1278,621,o),
(1284,629,o),
(1284,637,cs),
(1284,648,o),
(1275,654,o),
(1248,654,cs),
(1196,654,o),
(1155,648,o),
(1116,635,cs),
(1070,620,o),
(1029,596,o),
(992,568,cs),
(916,509,o),
(854,427,o),
(792,344,cs),
(758,299,o),
(723,253,o),
(686,211,cs),
(603,115,o),
(508,39,o),
(377,39,cs),
(247,39,o),
(184,110,o),
(184,209,cs),
(184,338,o),
(297,465,o),
(427,465,cs),
(514,465,o),
(549,418,o),
(549,356,cs),
(549,299,o),
(499,216,o),
(444,216,cs),
(425,216,o),
(418,226,o),
(418,239,cs),
(418,262,o),
(449,285,o),
(482,299,cs),
(530,318,o),
(618,330,o),
(673,330,cs),
(817,330,o),
(925,316,o),
(1002,316,cs),
(1040,316,o),
(1117,322,o),
(1148,330,cs),
(1156,332,o),
(1160,337,o),
(1160,343,cs),
(1160,347,o),
(1157,351,o),
(1150,351,cs),
(1140,351,o),
(1116,343,o),
(1057,341,cs),
(961,339,o),
(788,356,o),
(673,356,cs),
(602,356,o),
(524,350,o),
(459,329,cs),
(400,308,o),
(343,269,o),
(343,215,cs),
(343,175,o),
(374,149,o),
(425,149,cs),
(517,149,o),
(598,246,o),
(598,346,cs),
(598,429,o),
(527,500,o),
(411,500,cs),
(227,500,o),
(40,355,o),
(40,155,cs),
(40,1,o),
(160,-76,o),
(298,-76,cs),
(489,-76,o),
(614,40,o),
(725,195,cs),
(785,278,o),
(811,315,o),
(832,342,cs),
(894,424,o),
(989,545,o),
(1042,567,c)
);
}
);
userData = {
assembly = "SVTCA[0]	/* SetFreedomAndProjectionVectorToAxis */
PUSHW[ ]	/* 1 value pushed */
0 
RCVT[ ]	/* ReadCVT */
IF[ ]	/* If */
PUSHW[ ]	/* 1 value pushed */
86 
MDAP[1]	/* MoveDirectAbsPt */
ELSE[ ]	/* Else */
PUSHW[ ]	/* 2 values pushed */
86 8 
MIAP[0]	/* MoveIndirectAbsPt */
EIF[ ]	/* EndIf */
PUSHW[ ]	/* 1 value pushed */
0 
RCVT[ ]	/* ReadCVT */
IF[ ]	/* If */
PUSHW[ ]	/* 1 value pushed */
91 
MDAP[1]	/* MoveDirectAbsPt */
ELSE[ ]	/* Else */
PUSHW[ ]	/* 2 values pushed */
91 8 
MIAP[0]	/* MoveIndirectAbsPt */
EIF[ ]	/* EndIf */
PUSHW[ ]	/* 3 values pushed */
111 163 3 
CALL[ ]	/* CallFunction */
PUSHW[ ]	/* 1 value pushed */
111 
SRP0[ ]	/* SetRefPoint0 */
PUSHW[ ]	/* 1 value pushed */
0 
MDRP[10000]	/* MoveDirectRelPt */
PUSHW[ ]	/* 1 value pushed */
0 
MDAP[1]	/* MoveDirectAbsPt */
PUSHW[ ]	/* 1 value pushed */
86 
SRP0[ ]	/* SetRefPoint0 */
PUSHW[ ]	/* 1 value pushed */
52 
MDRP[11100]	/* MoveDirectRelPt */
NPUSHW[ ]	/* 27 values pushed */
7 52 23 52 39 52 55 52 71 52 87 52 103 52 119 52 135 52 151 52 167 52 183 52 199 52 13 
DELTAP1[ ]	/* DeltaExceptionP1 */
NPUSHW[ ]	/* 5 values pushed */
214 52 230 52 2 
DELTAP1[ ]	/* DeltaExceptionP1 */
PUSHW[ ]	/* 3 values pushed */
60 86 52 
SRP1[ ]	/* SetRefPoint1 */
SRP2[ ]	/* SetRefPoint2 */
IP[ ]	/* InterpolatePts */
PUSHW[ ]	/* 1 value pushed */
105 
MDRP[10000]	/* MoveDirectRelPt */
PUSHW[ ]	/* 1 value pushed */
105 
MDAP[1]	/* MoveDirectAbsPt */
PUSHW[ ]	/* 1 value pushed */
91 
SRP0[ ]	/* SetRefPoint0 */
PUSHW[ ]	/* 1 value pushed */
114 
MDRP[11100]	/* MoveDirectRelPt */
NPUSHW[ ]	/* 27 values pushed */
7 114 23 114 39 114 55 114 71 114 87 114 103 114 119 114 135 114 151 114 167 114 183 114 199 114 13 
DELTAP1[ ]	/* DeltaExceptionP1 */
NPUSHW[ ]	/* 5 values pushed */
214 114 230 114 2 
DELTAP1[ ]	/* DeltaExceptionP1 */
IUP[0]	/* InterpolateUntPts */
IUP[1]	/* InterpolateUntPts */";
};
width = 1075;
}
);
note = A;
},
{
color = 5;
glyphname = AE.ss01;
kernLeft = _A_ss01;
kernRight = _E_ss01;
layers = (
{
anchors = (
{
name = top;
pos = (1246,642);
}
);
background = {
anchors = (
{
name = bottom;
pos = (715,0);
},
{
name = top;
pos = (1226,629);
}
);
shapes = (
{
closed = 1;
nodes = (
(472,-76,o),
(597,17,o),
(725,195,cs),
(748,226,o),
(782,275,o),
(820,326,c),
(912,320,l),
(855,257,o),
(820,184,o),
(820,120,cs),
(820,33,o),
(886,-37,o),
(1049,-37,cs),
(1180,-37,o),
(1342,66,o),
(1353,196,cs),
(1359,267,o),
(1308,298,o),
(1250,298,cs),
(1224,298,o),
(1197,293,o),
(1174,284,cs),
(1080,246,o),
(1023,152,o),
(1023,57,cs),
(1023,48,o),
(1027,45,o),
(1032,45,cs),
(1037,45,o),
(1043,50,o),
(1043,57,cs),
(1043,58,ls),
(1043,123,o),
(1105,258,o),
(1210,258,cs),
(1247,258,o),
(1263,236,o),
(1263,205,cs),
(1263,127,o),
(1165,-8,o),
(1045,-8,cs),
(986,-8,o),
(963,35,o),
(963,91,cs),
(963,196,o),
(1044,349,o),
(1136,370,c),
(1160,353,o),
(1196,333,o),
(1229,333,cs),
(1268,333,o),
(1286,348,o),
(1286,363,cs),
(1286,377,o),
(1272,391,o),
(1246,395,cs),
(1239,396,o),
(1230,396,o),
(1220,396,cs),
(1194,396,o),
(1164,393,o),
(1148,387,c),
(1147,395,o),
(1146,404,o),
(1146,412,cs),
(1146,421,l),
(1265,422,o),
(1349,446,o),
(1395,472,cs),
(1442,498,o),
(1454,531,o),
(1454,551,cs),
(1454,642,o),
(1313,635,o),
(1255,635,cs),
(1011,635,o),
(917,511,o),
(798,352,c),
(756,354,o),
(714,356,o),
(673,356,cs),
(647,356,o),
(622,356,o),
(598,354,c),
(593,426,o),
(530,500,o),
(411,500,cs),
(232,500,o),
(40,360,o),
(40,155,cs),
(40,-4,o),
(167,-76,o),
(298,-76,cs)
);
},
{
closed = 1;
nodes = (
(238,39,o),
(184,118,o),
(184,209,cs),
(184,337,o),
(296,465,o),
(427,465,cs),
(516,465,o),
(549,417,o),
(549,363,cs),
(549,358,o),
(548,354,o),
(548,349,c),
(517,344,o),
(487,338,o),
(459,329,cs),
(399,309,o),
(343,269,o),
(343,215,cs),
(343,181,o),
(363,149,o),
(425,149,cs),
(511,150,o),
(582,227,o),
(596,324,c),
(631,328,o),
(668,329,o),
(704,329,cs),
(729,329,o),
(754,329,o),
(779,328,c),
(669,180,o),
(560,39,o),
(377,39,cs)
);
},
{
closed = 1;
nodes = (
(426,217,o),
(418,225,o),
(418,237,cs),
(418,260,o),
(450,289,o),
(486,301,cs),
(503,307,o),
(522,312,o),
(541,316,c),
(525,263,o),
(486,217,o),
(446,217,cs)
);
},
{
closed = 1;
nodes = (
(900,346,o),
(866,348,o),
(838,350,c),
(896,424,o),
(999,566,o),
(1115,595,c),
(1069,552,o),
(971,413,o),
(927,345,c)
);
},
{
closed = 1;
nodes = (
(1169,530,o),
(1282,601,o),
(1359,601,cs),
(1388,601,o),
(1400,585,o),
(1400,567,cs),
(1400,554,o),
(1394,540,o),
(1385,528,cs),
(1379,519,o),
(1371,512,o),
(1365,506,cs),
(1310,458,o),
(1227,442,o),
(1149,438,c)
);
},
{
pos = (775,0);
ref = E.ss01;
}
);
};
layerId = "C623C401-2266-4A98-B253-3D45160C29C7";
shapes = (
{
closed = 1;
nodes = (
(1101,584,l),
(1045,528,o),
(1048,436,o),
(1116,386,c),
(1115,384,l),
(931,370,o),
(820,251,o),
(820,119,cs),
(820,16,o),
(914,-37,o),
(1042,-37,cs),
(1195,-37,o),
(1354,81,o),
(1354,206,cs),
(1354,263,o),
(1314,298,o),
(1251,298,cs),
(1124,298,o),
(1023,184,o),
(1023,58,cs),
(1023,50,o),
(1027,46,o),
(1033,46,cs),
(1038,46,o),
(1042,50,o),
(1042,58,cs),
(1047,155,o),
(1127,258,o),
(1208,258,cs),
(1245,258,o),
(1263,238,o),
(1263,207,cs),
(1263,111,o),
(1141,-8,o),
(1046,-8,cs),
(995,-8,o),
(963,24,o),
(963,91,cs),
(963,207,o),
(1052,352,o),
(1136,370,c),
(1160,353,o),
(1197,333,o),
(1230,333,cs),
(1268,333,o),
(1286,347,o),
(1286,363,cs),
(1286,384,o),
(1261,397,o),
(1222,397,cs),
(1185,397,o),
(1162,390,o),
(1148,386,c),
(1147,393,o),
(1146,402,o),
(1146,412,cs),
(1146,501,o),
(1244,610,o),
(1339,608,cs),
(1378,607,o),
(1401,592,o),
(1401,565,cs),
(1401,531,o),
(1372,500,o),
(1316,478,cs),
(1306,475,o),
(1302,472,o),
(1302,469,cs),
(1302,463,o),
(1316,459,o),
(1336,459,cs),
(1401,459,o),
(1454,502,o),
(1454,554,cs),
(1454,619,o),
(1362,645,o),
(1260,645,cs),
(1056,645,o),
(928,527,o),
(792,344,cs),
(758,299,o),
(723,253,o),
(686,211,cs),
(603,115,o),
(508,39,o),
(377,39,cs),
(247,39,o),
(184,110,o),
(184,209,cs),
(184,338,o),
(297,465,o),
(427,465,cs),
(514,465,o),
(549,418,o),
(549,356,cs),
(549,299,o),
(499,216,o),
(444,216,cs),
(425,216,o),
(418,226,o),
(418,239,cs),
(418,308,o),
(598,336,o),
(703,336,cs),
(847,336,o),
(935,309,o),
(999,288,c),
(1024,307,l),
(950,331,o),
(842,361,o),
(707,361,cs),
(609,361,o),
(515,348,o),
(451,325,cs),
(381,300,o),
(346,255,o),
(346,216,cs),
(346,176,o),
(374,149,o),
(425,149,cs),
(517,149,o),
(598,246,o),
(598,346,cs),
(598,429,o),
(527,500,o),
(411,500,cs),
(227,500,o),
(40,355,o),
(40,155,cs),
(40,1,o),
(160,-76,o),
(298,-76,cs),
(403,-76,o),
(507,-39,o),
(604,53,cs),
(679,124,o),
(757,234,o),
(802,299,cs),
(920,470,o),
(1014,549,o),
(1100,586,c)
);
}
);
userData = {
assembly = "SVTCA[0]	/* SetFreedomAndProjectionVectorToAxis */
PUSHW[ ]	/* 1 value pushed */
0 
RCVT[ ]	/* ReadCVT */
IF[ ]	/* If */
PUSHW[ ]	/* 1 value pushed */
0 
MDAP[1]	/* MoveDirectAbsPt */
ELSE[ ]	/* Else */
PUSHW[ ]	/* 2 values pushed */
0 8 
MIAP[0]	/* MoveIndirectAbsPt */
EIF[ ]	/* EndIf */
PUSHW[ ]	/* 3 values pushed */
109 179 3 
CALL[ ]	/* CallFunction */
PUSHW[ ]	/* 1 value pushed */
0 
SRP0[ ]	/* SetRefPoint0 */
PUSHW[ ]	/* 1 value pushed */
39 
MDRP[11100]	/* MoveDirectRelPt */
PUSHW[ ]	/* 1 value pushed */
109 
SRP0[ ]	/* SetRefPoint0 */
PUSHW[ ]	/* 1 value pushed */
40 
MDRP[10000]	/* MoveDirectRelPt */
PUSHW[ ]	/* 1 value pushed */
40 
MDAP[1]	/* MoveDirectAbsPt */
PUSHW[ ]	/* 1 value pushed */
109 
SRP0[ ]	/* SetRefPoint0 */
PUSHW[ ]	/* 1 value pushed */
94 
MDRP[10000]	/* MoveDirectRelPt */
PUSHW[ ]	/* 1 value pushed */
94 
MDAP[1]	/* MoveDirectAbsPt */
PUSHW[ ]	/* 1 value pushed */
39 
SRP0[ ]	/* SetRefPoint0 */
PUSHW[ ]	/* 1 value pushed */
112 
MDRP[10000]	/* MoveDirectRelPt */
PUSHW[ ]	/* 1 value pushed */
112 
MDAP[1]	/* MoveDirectAbsPt */
IUP[0]	/* InterpolateUntPts */
IUP[1]	/* InterpolateUntPts */";
};
width = 1364;
}
);
metricLeft = A.ss01;
metricRight = E.ss01;
note = AE;
},
{
color = 5;
glyphname = AEacute.ss01;
kernLeft = _A_ss01;
kernRight = _E_ss01;
lastChange = "2022-11-23 04:35:08 +0000";
layers = (
{
background = {
shapes = (
{
closed = 1;
nodes = (
(314,-76,o),
(389,-52,o),
(458,-7,cs),
(526,38,o),
(590,106,o),
(654,195,cs),
(696,253,ls),
(712,276,o),
(730,301,o),
(749,326,c),
(841,320,l),
(829,269,o),
(819,217,o),
(819,171,cs),
(819,70,o),
(865,-6,o),
(1029,-6,cs),
(1161,-6,o),
(1322,98,o),
(1333,227,cs),
(1338,295,o),
(1292,329,o),
(1230,329,cs),
(1203,329,o),
(1178,324,o),
(1154,315,cs),
(1062,278,o),
(1003,183,o),
(1003,88,cs),
(1003,80,o),
(1008,76,o),
(1012,76,cs),
(1018,76,o),
(1023,81,o),
(1023,89,cs),
(1017,162,o),
(1093,289,o),
(1191,289,cs),
(1228,289,o),
(1243,268,o),
(1243,237,cs),
(1243,214,o),
(1234,186,o),
(1219,157,cs),
(1195,110,o),
(1155,70,o),
(1105,43,cs),
(1080,30,o),
(1053,23,o),
(1025,23,cs),
(966,23,o),
(943,65,o),
(943,122,cs),
(943,146,o),
(947,172,o),
(955,200,cs),
(973,262,o),
(1005,320,o),
(1048,362,cs),
(1069,383,o),
(1092,396,o),
(1116,401,c),
(1140,384,o),
(1176,364,o),
(1209,364,cs),
(1247,364,o),
(1266,380,o),
(1266,395,cs),
(1266,409,o),
(1252,422,o),
(1226,426,cs),
(1219,427,o),
(1210,427,o),
(1201,427,cs),
(1174,427,o),
(1143,424,o),
(1128,418,c),
(1128,433,o),
(1126,450,o),
(1129,469,cs),
(1147,557,o),
(1259,632,o),
(1339,632,cs),
(1368,632,o),
(1381,616,o),
(1381,596,cs),
(1381,584,o),
(1375,570,o),
(1365,559,cs),
(1337,523,o),
(1282,492,o),
(1242,485,c),
(1229,481,o),
(1222,477,o),
(1222,474,cs),
(1222,471,o),
(1227,469,o),
(1237,469,cs),
(1308,469,o),
(1434,506,o),
(1434,585,cs),
(1434,638,o),
(1368,662,o),
(1302,662,cs),
(1270,662,o),
(1234,659,o),
(1199,652,c),
(1197,653,o),
(1195,653,o),
(1193,653,cs),
(1081,660,o),
(994,624,o),
(921,568,cs),
(848,511,o),
(787,432,o),
(727,352,c),
(685,354,o),
(643,356,o),
(602,356,cs),
(576,356,o),
(551,356,o),
(527,354,c),
(521,435,o),
(451,500,o),
(340,500,cs),
(251,500,o),
(158,465,o),
(88,405,cs),
(18,344,o),
(-31,258,o),
(-31,155,cs),
(-31,1,o),
(89,-76,o),
(227,-76,cs)
);
},
{
closed = 1;
nodes = (
(176,39,o),
(113,110,o),
(113,209,cs),
(113,338,o),
(226,465,o),
(356,465,cs),
(445,465,o),
(483,415,o),
(477,349,c),
(446,344,o),
(416,338,o),
(388,329,cs),
(329,308,o),
(272,269,o),
(272,215,cs),
(272,175,o),
(297,149,o),
(354,149,cs),
(441,149,o),
(512,230,o),
(525,324,c),
(561,328,o),
(599,330,o),
(636,330,cs),
(660,330,o),
(685,329,o),
(709,328,c),
(653,255,o),
(598,183,o),
(534,129,cs),
(470,75,o),
(398,39,o),
(306,39,cs)
);
},
{
closed = 1;
nodes = (
(356,217,o),
(347,224,o),
(347,237,cs),
(347,260,o),
(379,289,o),
(415,301,cs),
(431,306,o),
(449,311,o),
(470,316,c),
(455,266,o),
(416,217,o),
(375,217,cs)
);
},
{
closed = 1;
nodes = (
(836,346,o),
(822,346,o),
(809,347,cs),
(767,350,l),
(830,434,o),
(924,551,o),
(974,568,c),
(918,508,o),
(878,425,o),
(849,345,c)
);
},
{
closed = 1;
nodes = (
(985,429,o),
(1006,477,o),
(1032,524,c),
(1030,517,o),
(1029,509,o),
(1029,502,cs),
(1029,495,o),
(1030,489,o),
(1032,483,cs),
(1038,462,l),
(1049,439,o),
(1068,423,o),
(1096,412,c),
(1053,408,o),
(1008,397,o),
(965,379,c)
);
}
);
};
layerId = "C623C401-2266-4A98-B253-3D45160C29C7";
shapes = (
{
ref = AE.ss01;
}
);
width = 1364;
}
);
},
{
color = 5;
glyphname = B.ss01;
layers = (
{
background = {
shapes = (
{
closed = 1;
nodes = (
(599,-13,o),
(671,26,o),
(715,82,c),
(717,82,ls),
(782,89,o),
(833,122,o),
(873,206,cs),
(879,217,o),
(870,229,o),
(861,229,cs),
(857,229,o),
(853,226,o),
(851,221,cs),
(822,158,o),
(779,122,o),
(735,110,c),
(751,137,o),
(759,165,o),
(759,193,cs),
(759,253,o),
(726,306,o),
(672,306,cs),
(668,306,ls),
(670,306,o),
(676,307,o),
(685,309,cs),
(773,326,o),
(838,382,o),
(846,471,cs),
(851,543,o),
(808,595,o),
(738,625,cs),
(684,647,o),
(617,658,o),
(545,658,cs),
(522,658,o),
(499,657,o),
(476,655,cs),
(380,646,o),
(283,617,o),
(211,571,cs),
(138,525,o),
(89,460,o),
(89,379,cs),
(89,297,o),
(151,263,o),
(211,263,cs),
(310,263,o),
(384,332,o),
(440,420,cs),
(465,460,o),
(473,498,o),
(473,519,cs),
(473,531,o),
(471,538,o),
(467,538,cs),
(464,538,o),
(460,533,o),
(456,520,cs),
(431,443,o),
(378,360,o),
(297,357,cs),
(254,357,o),
(235,387,o),
(235,423,cs),
(235,496,o),
(290,556,o),
(365,593,cs),
(402,612,o),
(443,625,o),
(486,632,cs),
(508,635,o),
(529,637,o),
(550,637,cs),
(610,637,o),
(662,622,o),
(699,590,cs),
(724,568,o),
(736,538,o),
(736,499,cs),
(736,462,o),
(726,427,o),
(710,396,cs),
(677,338,o),
(649,320,o),
(587,320,c),
(580,318,o),
(574,312,o),
(574,307,cs),
(574,304,o),
(575,302,o),
(579,300,cs),
(615,283,o),
(630,247,o),
(630,205,cs),
(630,169,o),
(619,130,o),
(600,97,c),
(573,97,o),
(549,96,o),
(524,92,cs),
(483,86,o),
(427,71,o),
(427,33,cs),
(427,2,o),
(460,-13,o),
(515,-13,cs)
);
},
{
closed = 1;
nodes = (
(483,25,o),
(474,31,o),
(474,38,cs),
(474,48,o),
(489,60,o),
(515,66,cs),
(526,68,o),
(537,70,o),
(548,71,cs),
(585,74,l),
(562,45,o),
(533,25,o),
(502,25,cs)
);
},
{
closed = 1;
nodes = (
(187,-65,o),
(226,-57,o),
(253,-47,cs),
(381,1,o),
(469,132,o),
(522,266,cs),
(532,293,o),
(563,367,o),
(585,409,cs),
(609,456,o),
(648,512,o),
(684,518,cs),
(696,520,o),
(702,527,o),
(702,532,cs),
(702,537,o),
(698,541,o),
(688,541,cs),
(686,541,ls),
(586,529,o),
(507,448,o),
(411,295,cs),
(393,266,o),
(361,208,o),
(340,171,cs),
(326,148,o),
(311,125,o),
(295,102,cs),
(263,56,o),
(228,18,o),
(189,-5,cs),
(170,-16,o),
(150,-22,o),
(129,-22,cs),
(103,-22,o),
(74,-8,o),
(79,26,cs),
(87,96,o),
(172,153,o),
(248,158,cs),
(266,159,o),
(276,166,o),
(276,171,cs),
(276,176,o),
(269,180,o),
(253,180,cs),
(173,180,o),
(48,107,o),
(45,23,cs),
(40,-41,o),
(90,-65,o),
(151,-65,cs)
);
}
);
};
layerId = "C623C401-2266-4A98-B253-3D45160C29C7";
shapes = (
{
closed = 1;
nodes = (
(194,-65,o),
(235,-56,o),
(272,-39,cs),
(382,10,o),
(466,125,o),
(522,266,cs),
(532,293,o),
(563,367,o),
(585,409,cs),
(609,456,o),
(648,507,o),
(689,521,cs),
(698,524,o),
(702,527,o),
(702,532,cs),
(702,537,o),
(698,541,o),
(688,541,cs),
(658,541,o),
(616,524,o),
(577,496,cs),
(521,455,o),
(470,389,o),
(411,295,cs),
(368,226,o),
(304,92,o),
(226,22,cs),
(196,-5,o),
(163,-22,o),
(129,-22,cs),
(98,-22,o),
(79,-5,o),
(79,23,cs),
(79,54,o),
(101,87,o),
(132,112,cs),
(167,140,o),
(220,155,o),
(253,159,cs),
(270,161,o),
(276,165,o),
(276,171,cs),
(276,176,o),
(269,180,o),
(253,180,cs),
(213,180,o),
(162,162,o),
(120,133,cs),
(78,104,o),
(45,62,o),
(45,20,cs),
(45,-44,o),
(90,-65,o),
(151,-65,cs)
);
},
{
closed = 1;
nodes = (
(815,114,o),
(846,145,o),
(871,201,cs),
(873,205,o),
(874,208,o),
(874,211,cs),
(874,217,o),
(867,227,o),
(860,227,cs),
(856,227,o),
(853,224,o),
(851,220,cs),
(814,141,o),
(769,115,o),
(725,109,cs),
(691,104,o),
(630,99,o),
(606,99,cs),
(490,99,o),
(427,72,o),
(427,33,cs),
(427,1,o),
(460,-13,o),
(515,-13,cs),
(649,-13,o),
(759,93,o),
(759,193,cs),
(759,249,o),
(728,302,o),
(678,306,c),
(678,308,l),
(774,321,o),
(846,392,o),
(846,480,cs),
(846,592,o),
(733,658,o),
(545,658,cs),
(442,658,o),
(314,636,o),
(211,571,cs),
(132,521,o),
(89,455,o),
(89,379,cs),
(89,308,o),
(136,263,o),
(211,263,cs),
(295,263,o),
(370,312,o),
(440,420,cs),
(466,460,o),
(473,498,o),
(473,519,cs),
(473,531,o),
(471,538,o),
(467,538,cs),
(463,538,o),
(460,533,o),
(456,520,cs),
(446,489,o),
(431,457,o),
(412,429,cs),
(381,386,o),
(341,357,o),
(297,357,cs),
(259,357,o),
(235,382,o),
(235,423,cs),
(235,488,o),
(285,554,o),
(365,593,cs),
(421,622,o),
(487,637,o),
(550,637,cs),
(664,637,o),
(736,584,o),
(736,499,cs),
(736,468,o),
(728,429,o),
(710,396,cs),
(680,339,o),
(647,320,o),
(589,320,cs),
(580,320,o),
(574,313,o),
(574,307,cs),
(574,304,o),
(575,302,o),
(579,300,cs),
(615,282,o),
(630,247,o),
(630,205,cs),
(630,130,o),
(576,25,o),
(502,25,cs),
(485,25,o),
(474,30,o),
(474,38,cs),
(474,48,o),
(493,65,o),
(538,70,cs),
(607,78,o),
(717,68,o),
(779,97,cs)
);
}
);
width = 784;
}
);
note = B;
},
{
color = 5;
glyphname = C.ss01;
kernLeft = _C_ss01;
kernRight = _C_ss01;
layers = (
{
anchors = (
{
name = bottom;
pos = (367,-25);
},
{
name = top;
pos = (759,647);
}
);
background = {
shapes = (
{
closed = 1;
nodes = (
(542,-36,o),
(711,84,o),
(711,227,cs),
(711,289,o),
(664,322,o),
(606,322,cs),
(579,322,o),
(553,317,o),
(529,308,cs),
(434,268,o),
(375,165,o),
(375,64,cs),
(375,55,o),
(379,51,o),
(384,51,cs),
(390,51,o),
(396,57,o),
(396,65,cs),
(390,146,o),
(468,291,o),
(575,291,cs),
(618,291,o),
(636,264,o),
(636,227,cs),
(636,203,o),
(628,174,o),
(615,146,cs),
(590,94,o),
(551,48,o),
(500,19,cs),
(475,4,o),
(448,-3,o),
(419,-3,cs),
(367,-3,o),
(344,37,o),
(344,85,cs),
(344,91,o),
(344,96,o),
(345,102,c),
(347,163,o),
(383,264,o),
(409,316,c),
(522,317,o),
(623,341,o),
(702,384,cs),
(739,405,o),
(771,431,o),
(798,462,c),
(812,460,o),
(829,459,o),
(845,459,cs),
(885,459,o),
(925,467,o),
(937,499,c),
(940,511,o),
(936,517,o),
(931,517,cs),
(927,517,o),
(924,515,o),
(922,511,cs),
(911,489,o),
(875,481,o),
(842,481,cs),
(833,481,o),
(823,482,o),
(815,483,c),
(838,515,o),
(852,549,o),
(852,584,cs),
(852,637,o),
(806,654,o),
(749,654,cs),
(676,654,o),
(591,624,o),
(510,575,c),
(439,600,o),
(349,631,o),
(264,631,cs),
(175,631,o),
(80,592,o),
(80,498,cs),
(80,450,o),
(98,412,o),
(135,384,cs),
(171,357,o),
(220,339,o),
(268,330,c),
(233,266,o),
(212,199,o),
(212,130,cs),
(212,31,o),
(272,-36,o),
(402,-36,cs)
);
},
{
closed = 1;
nodes = (
(226,381,o),
(181,426,o),
(181,493,cs),
(181,546,o),
(224,580,o),
(293,580,cs),
(350,580,o),
(419,567,o),
(475,552,c),
(400,501,o),
(334,434,o),
(285,358,c)
);
},
{
closed = 1;
nodes = (
(463,410,o),
(518,475,o),
(577,523,c),
(675,491,ls),
(707,480,o),
(737,472,o),
(764,467,c),
(748,447,o),
(726,427,o),
(695,408,cs),
(640,372,o),
(517,337,o),
(420,335,c)
);
},
{
closed = 1;
nodes = (
(730,502,o),
(668,522,o),
(604,543,c),
(652,578,o),
(699,599,o),
(738,599,cs),
(769,599,o),
(795,590,o),
(795,543,cs),
(795,528,o),
(790,510,o),
(779,490,c)
);
}
);
};
layerId = "C623C401-2266-4A98-B253-3D45160C29C7";
shapes = (
{
closed = 1;
nodes = (
(774,481,o),
(659,525,o),
(545,565,cs),
(444,600,o),
(346,631,o),
(264,631,cs),
(175,631,o),
(80,592,o),
(80,498,cs),
(80,450,o),
(98,412,o),
(135,384,cs),
(173,356,o),
(253,316,o),
(423,316,cs),
(495,316,o),
(601,335,o),
(678,372,cs),
(779,421,o),
(852,505,o),
(852,584,cs),
(852,630,o),
(817,654,o),
(749,654,cs),
(629,654,o),
(472,572,o),
(363,457,cs),
(273,363,o),
(212,248,o),
(212,131,cs),
(212,22,o),
(277,-36,o),
(402,-36,cs),
(547,-36,o),
(711,89,o),
(711,227,cs),
(711,285,o),
(669,322,o),
(606,322,cs),
(469,322,o),
(375,195,o),
(375,65,cs),
(375,56,o),
(378,51,o),
(385,51,cs),
(392,51,o),
(396,56,o),
(396,65,cs),
(396,158,o),
(471,291,o),
(575,291,cs),
(615,291,o),
(636,269,o),
(636,227,cs),
(636,187,o),
(606,119,o),
(570,77,cs),
(525,24,o),
(470,-3,o),
(419,-3,cs),
(370,-3,o),
(344,28,o),
(344,85,cs),
(344,239,o),
(463,432,o),
(583,528,c),
(596,537,ls),
(648,573,o),
(697,599,o),
(738,599,cs),
(777,599,o),
(795,582,o),
(795,543,cs),
(795,486,o),
(740,429,o),
(667,393,cs),
(590,355,o),
(474,337,o),
(405,340,cs),
(365,342,o),
(288,350,o),
(247,378,cs),
(205,405,o),
(181,445,o),
(181,493,cs),
(181,547,o),
(224,580,o),
(293,580,cs),
(380,580,o),
(467,554,o),
(545,530,cs),
(661,495,o),
(748,459,o),
(844,459,cs),
(864,459,o),
(889,462,o),
(907,470,cs),
(926,478,o),
(938,495,o),
(938,507,cs),
(938,513,o),
(935,517,o),
(931,517,cs),
(927,517,o),
(925,515,o),
(922,510,cs),
(908,486,o),
(874,481,o),
(846,481,cs)
);
}
);
width = 728;
}
);
note = C;
},
{
color = 5;
glyphname = D.ss01;
kernLeft = _D_ss01;
kernRight = _D_ss01;
layers = (
{
anchors = (
{
name = bottom;
pos = (447,0);
},
{
name = center;
pos = (452,226);
},
{
name = top;
pos = (792,582);
}
);
background = {
shapes = (
{
closed = 1;
nodes = (
(238,-35,o),
(292,-17,o),
(340,12,c),
(395,-12,o),
(452,-24,o),
(513,-24,cs),
(625,-24,o),
(720,20,o),
(788,89,cs),
(855,158,o),
(895,250,o),
(895,349,cs),
(895,458,o),
(847,536,o),
(775,586,cs),
(703,636,o),
(607,657,o),
(511,657,cs),
(407,657,o),
(308,635,o),
(234,589,cs),
(160,543,o),
(112,473,o),
(112,380,cs),
(112,311,o),
(163,263,o),
(231,263,cs),
(337,263,o),
(466,363,o),
(500,508,c),
(501,525,o),
(494,536,o),
(488,536,cs),
(484,536,o),
(480,533,o),
(479,524,cs),
(467,461,o),
(396,356,o),
(320,356,cs),
(289,356,o),
(258,373,o),
(258,429,cs),
(258,562,o),
(386,630,o),
(525,630,cs),
(681,630,o),
(800,542,o),
(800,403,cs),
(799,311,o),
(752,216,o),
(684,144,cs),
(616,72,o),
(525,23,o),
(437,23,cs),
(414,23,o),
(394,27,o),
(371,34,c),
(463,105,o),
(529,221,o),
(580,352,cs),
(611,432,o),
(674,515,o),
(710,518,cs),
(721,518,o),
(726,523,o),
(726,528,cs),
(726,534,o),
(719,541,o),
(705,541,cs),
(702,541,ls),
(669,540,o),
(625,519,o),
(574,472,cs),
(523,424,o),
(465,351,o),
(401,244,cs),
(361,176,o),
(320,118,o),
(280,75,c),
(241,103,o),
(199,128,o),
(154,128,cs),
(91,128,o),
(60,91,o),
(60,52,cs),
(60,10,o),
(98,-35,o),
(175,-35,cs)
);
},
{
closed = 1;
nodes = (
(131,5,o),
(103,19,o),
(103,46,cs),
(103,77,o),
(136,102,o),
(174,102,cs),
(187,102,o),
(201,99,o),
(214,92,cs),
(246,72,ls),
(252,68,o),
(259,64,o),
(266,60,c),
(229,25,o),
(192,5,o),
(155,5,cs)
);
}
);
};
layerId = "C623C401-2266-4A98-B253-3D45160C29C7";
shapes = (
{
closed = 1;
nodes = (
(354,37,o),
(322,54,cs),
(260,85,o),
(216,128,o),
(154,128,cs),
(98,128,o),
(60,97,o),
(60,52,cs),
(60,3,o),
(107,-35,o),
(175,-35,cs),
(242,-35,o),
(301,-15,o),
(353,21,cs),
(457,92,o),
(529,221,o),
(580,352,cs),
(611,432,o),
(674,515,o),
(710,518,cs),
(721,518,o),
(726,523,o),
(726,528,cs),
(726,534,o),
(719,541,o),
(705,541,cs),
(702,541,ls),
(669,541,o),
(625,519,o),
(574,472,cs),
(523,424,o),
(465,351,o),
(401,244,cs),
(376,202,o),
(327,121,o),
(272,66,cs),
(234,28,o),
(200,5,o),
(155,5,cs),
(125,5,o),
(103,23,o),
(103,46,cs),
(103,77,o),
(132,102,o),
(168,102,cs),
(207,102,o),
(250,65,o),
(307,31,cs),
(355,2,o),
(419,-24,o),
(513,-24,cs),
(735,-24,o),
(895,151,o),
(895,349,cs),
(895,558,o),
(720,657,o),
(511,657,cs),
(308,657,o),
(112,568,o),
(112,383,cs),
(112,312,o),
(161,263,o),
(231,263,cs),
(295,263,o),
(390,304,o),
(458,407,cs),
(485,447,o),
(500,490,o),
(500,512,cs),
(500,526,o),
(494,536,o),
(488,536,cs),
(484,536,o),
(481,534,o),
(479,524,cs),
(465,455,o),
(393,356,o),
(320,356,cs),
(282,356,o),
(258,381,o),
(258,427,cs),
(258,551,o),
(366,630,o),
(526,630,cs),
(682,630,o),
(800,542,o),
(800,403,cs),
(798,223,o),
(617,23,o),
(437,23,cs),
(395,23,o)
);
}
);
width = 875;
}
);
note = D;
},
{
color = 5;
glyphname = Eth.ss01;
kernLeft = _D_ss01;
kernRight = _D_ss01;
layers = (
{
anchors = (
{
name = _center;
pos = (452,226);
},
{
name = top;
pos = (452.827,255);
}
);
background = {
shapes = (
{
closed = 1;
nodes = (
(189.667,-35,o),
(244,-17.333,o),
(292,12,c),
(346.667,-12,o),
(404.333,-24,o),
(465,-24,cs),
(577,-24,o),
(672.167,19.667,o),
(739.5,89,cs),
(806.833,158.333,o),
(847,250.333,o),
(847,349,cs),
(847,458.333,o),
(799,535.5,o),
(727,585.5,cs),
(655,635.5,o),
(559,657,o),
(463,657,cs),
(359,657,o),
(259.5,634.5,o),
(185.5,588.5,cs),
(111.5,542.5,o),
(64,473.333,o),
(64,380,cs),
(64,310.916,o),
(114.91,263,o),
(183,263,cs),
(288.989,263,o),
(417.546,362.801,o),
(452,508,c),
(453,525,o),
(446,536,o),
(440,536,cs),
(436,536,o),
(432,533,o),
(431,524,cs),
(418.96,460.79,o),
(348.343,356,o),
(272,356,cs),
(241.333,356,o),
(210,373,o),
(210,429,cs),
(210,562.093,o),
(338.19,630,o),
(477,630,cs),
(633.377,630,o),
(752,541.676,o),
(752,403,cs),
(750.667,311,o),
(704,216,o),
(636,144,cs),
(568,72,o),
(477,23,o),
(389,23,cs),
(366.333,23,o),
(345.667,27.333,o),
(323,34,c),
(369.667,68.667,o),
(408.333,115.333,o),
(443,170,c),
(496,170,ls),
(508,170,o),
(525,203,o),
(525,220,cs),
(525,226,o),
(523,230,o),
(518,230,cs),
(477,230,l),
(497,268.667,o),
(516,309.333,o),
(532,352,cs),
(563.075,431.908,o),
(626.451,514.768,o),
(662,518,cs),
(673,518,o),
(678,523,o),
(678,528,cs),
(678,534,o),
(671,541,o),
(657,541,cs),
(654,541,ls),
(620.667,539.667,o),
(576.667,518.833,o),
(526,471.5,cs),
(475.333,424.167,o),
(417,350.667,o),
(353,244,cs),
(350.333,238.667,o),
(347.667,234,o),
(345,230,c),
(255,230,ls),
(240.765,230,o),
(204.916,170,o),
(221,170,cs),
(306,170,l),
(282,133.333,o),
(257.333,101.667,o),
(232,75,c),
(193.333,103,o),
(151.333,128,o),
(106,128,cs),
(43,128,o),
(12,91,o),
(12,52,cs),
(12,10,o),
(50,-35,o),
(127,-35,cs)
);
},
{
closed = 1;
nodes = (
(83,5,o),
(55,19.333,o),
(55,46,cs),
(55,77,o),
(88,102,o),
(126,102,cs),
(139,102,o),
(153,99,o),
(166,92,cs),
(198,72,ls),
(204,68,o),
(210.667,64,o),
(218,60,c),
(180.667,25.333,o),
(144.333,5,o),
(107,5,cs)
);
}
);
};
layerId = "C623C401-2266-4A98-B253-3D45160C29C7";
shapes = (
{
closed = 1;
nodes = (
(401,203,o),
(533,203,o),
(606,203,cs),
(610,203,o),
(612,204,o),
(615,206,cs),
(622,212,o),
(639,230,o),
(639,239,cs),
(639,243,o),
(637,245,o),
(631,245,cs),
(563,245,o),
(435,245,o),
(367,245,cs),
(357,245,o),
(354,244,o),
(346,237,cs),
(335,227,o),
(323,214,o),
(323,206,cs),
(323,204,o),
(326,203,o),
(328,203,cs)
);
},
{
ref = D.ss01;
}
);
width = 875;
}
);
note = Eth;
},
{
color = 5;
glyphname = Dzcaron.ss01;
kernLeft = _D_ss01;
lastChange = "2022-11-23 04:35:08 +0000";
layers = (
{
anchors = (
{
name = bottom;
pos = (1018,0);
},
{
name = center;
pos = (1072,213);
},
{
name = top;
pos = (1140,409);
}
);
background = {
shapes = (
{
pos = (-25,0);
ref = D.ss01;
},
{
pos = (772,0);
ref = zcaron.ss01;
}
);
};
layerId = "C623C401-2266-4A98-B253-3D45160C29C7";
shapes = (
{
closed = 1;
nodes = (
(1101,266,o),
(1057,229,o),
(1009,189,cs),
(958,148,o),
(919,108,o),
(919,92,cs),
(919,87,o),
(926,83,o),
(933,83,cs),
(938,83,o),
(941,85,o),
(943,90,cs),
(949,105,o),
(962,115,o),
(975,115,cs),
(987,115,o),
(995,105,o),
(995,88,cs),
(995,62,o),
(979,22,o),
(961,-2,c),
(920,-13,o),
(876,-22,o),
(837,-35,cs),
(780,-53,o),
(735,-77,o),
(735,-120,cs),
(735,-151,o),
(766,-171,o),
(816,-171,cs),
(925,-171,o),
(1055,-84,o),
(1102,22,c),
(1178,52,o),
(1228,113,o),
(1271,197,cs),
(1273,201,o),
(1276,208,o),
(1276,211,cs),
(1276,217,o),
(1269,227,o),
(1262,227,cs),
(1258,227,o),
(1255,224,o),
(1253,220,cs),
(1218,151,o),
(1178,90,o),
(1114,55,c),
(1116,64,o),
(1117,75,o),
(1117,83,cs),
(1117,119,o),
(1097,141,o),
(1065,141,cs),
(1052,141,o),
(1034,137,o),
(1020,130,c),
(1019,131,l),
(1173,240,o),
(1272,328,o),
(1272,434,cs),
(1272,440,o),
(1268,444,o),
(1259,444,cs),
(1251,444,o),
(1247,441,o),
(1246,434,cs),
(1241,406,o),
(1217,396,o),
(1186,396,cs),
(1138,397,o),
(1105,422,o),
(1071,422,cs),
(1044,422,o),
(1020,409,o),
(992,366,cs),
(976,341,o),
(964,322,o),
(964,304,cs),
(964,296,o),
(967,291,o),
(971,291,cs),
(974,291,o),
(977,293,o),
(980,298,cs),
(988,312,o),
(998,319,o),
(1015,319,cs),
(1043,319,o),
(1083,302,o),
(1122,302,cs),
(1132,302,o),
(1142,303,o),
(1150,305,c),
(1151,303,l)
);
},
{
closed = 1;
nodes = (
(783,-134,o),
(771,-128,o),
(771,-115,cs),
(771,-91,o),
(803,-74,o),
(844,-60,cs),
(876,-49,o),
(913,-41,o),
(946,-32,c),
(913,-86,o),
(847,-134,o),
(804,-134,cs)
);
},
{
pos = (10,0);
ref = D.ss01;
}
);
width = 1186;
}
);
metricLeft = D;
},
{
color = 5;
glyphname = E.ss01;
kernLeft = _E_ss01;
kernRight = _E_ss01;
layers = (
{
anchors = (
{
name = bottom;
pos = (257,-29);
},
{
name = ogonek;
pos = (476,40);
},
{
name = top;
pos = (555,619);
},
{
name = topleft;
pos = (40,600);
}
);
background = {
shapes = (
{
closed = 1;
nodes = (
(411,-37,o),
(579,73,o),
(579,206,cs),
(579,267,o),
(535,298,o),
(476,298,cs),
(449,298,o),
(424,293,o),
(400,284,cs),
(308,247,o),
(249,152,o),
(249,57,cs),
(249,49,o),
(254,45,o),
(258,45,cs),
(264,45,o),
(269,50,o),
(269,58,cs),
(263,131,o),
(339,258,o),
(437,258,cs),
(474,258,o),
(489,237,o),
(489,206,cs),
(489,183,o),
(480,155,o),
(465,126,cs),
(441,79,o),
(401,39,o),
(351,12,cs),
(326,-1,o),
(299,-8,o),
(271,-8,cs),
(212,-8,o),
(189,35,o),
(189,93,cs),
(189,116,o),
(193,141,o),
(201,169,cs),
(219,231,o),
(251,289,o),
(294,331,cs),
(315,352,o),
(338,365,o),
(362,370,c),
(386,353,o),
(422,333,o),
(455,333,cs),
(493,333,o),
(512,348,o),
(512,364,cs),
(512,378,o),
(498,391,o),
(472,395,cs),
(465,396,o),
(457,396,o),
(448,396,cs),
(421,396,o),
(389,393,o),
(374,387,c),
(373,396,o),
(372,405,o),
(372,413,cs),
(372,421,l),
(492,422,o),
(574,445,o),
(621,472,cs),
(670,500,o),
(680,534,o),
(680,554,cs),
(680,607,o),
(614,631,o),
(548,631,cs),
(477,631,o),
(390,619,o),
(332,571,cs),
(293,540,o),
(276,505,o),
(276,472,cs),
(276,465,o),
(277,458,o),
(278,452,c),
(213,460,o),
(124,485,o),
(124,551,cs),
(124,590,o),
(172,616,o),
(228,616,cs),
(267,616,o),
(308,607,o),
(327,598,c),
(328,598,o),
(334,607,o),
(334,612,cs),
(334,613,o),
(333,614,o),
(332,615,c),
(306,628,o),
(232,648,o),
(187,648,cs),
(117,648,o),
(35,628,o),
(35,557,cs),
(35,500,o),
(92,466,o),
(142,452,cs),
(187,439,o),
(245,431,o),
(284,431,c),
(295,408,o),
(314,392,o),
(342,381,c),
(208,369,o),
(44,286,o),
(44,133,cs),
(44,16,o),
(118,-37,o),
(275,-37,cs)
);
},
{
closed = 1;
nodes = (
(393,526,o),
(505,601,o),
(585,601,cs),
(614,601,o),
(627,585,o),
(627,566,cs),
(627,553,o),
(621,539,o),
(611,528,cs),
(604,519,o),
(598,513,o),
(591,506,cs),
(535,458,o),
(454,442,o),
(375,438,c)
);
}
);
};
layerId = "C623C401-2266-4A98-B253-3D45160C29C7";
shapes = (
{
closed = 1;
nodes = (
(283,451,l),
(218,459,o),
(124,483,o),
(124,551,cs),
(124,587,o),
(167,616,o),
(228,616,cs),
(267,616,o),
(307,606,o),
(326,598,c),
(331,602,o),
(334,608,o),
(334,612,cs),
(334,614,o),
(333,615,o),
(329,617,cs),
(308,627,o),
(237,648,o),
(185,648,cs),
(96,648,o),
(35,616,o),
(35,557,cs),
(35,500,o),
(92,466,o),
(142,452,cs),
(189,439,o),
(249,430,o),
(288,431,c)
);
},
{
closed = 1;
nodes = (
(372,407,o),
(372,416,cs),
(375,513,o),
(497,601,o),
(585,601,cs),
(611,601,o),
(627,588,o),
(627,566,cs),
(627,531,o),
(582,490,o),
(526,467,cs),
(474,446,o),
(414,440,o),
(371,438,c),
(366,421,l),
(489,421,o),
(573,445,o),
(621,472,cs),
(670,500,o),
(680,534,o),
(680,554,cs),
(680,607,o),
(614,631,o),
(548,631,cs),
(477,631,o),
(390,619,o),
(332,571,cs),
(293,540,o),
(276,505,o),
(276,472,cs),
(276,425,o),
(301,397,o),
(342,381,c),
(131,357,o),
(44,235,o),
(44,133,cs),
(44,16,o),
(120,-37,o),
(270,-37,cs),
(423,-37,o),
(579,81,o),
(579,206,cs),
(579,263,o),
(539,298,o),
(476,298,cs),
(349,298,o),
(249,185,o),
(249,57,cs),
(249,49,o),
(253,45,o),
(259,45,cs),
(264,45,o),
(268,49,o),
(268,57,cs),
(272,142,o),
(339,258,o),
(437,258,cs),
(474,258,o),
(489,237,o),
(489,206,cs),
(489,117,o),
(381,-8,o),
(271,-8,cs),
(212,-8,o),
(189,35,o),
(189,93,cs),
(189,209,o),
(278,352,o),
(362,370,c),
(386,353,o),
(422,333,o),
(455,333,cs),
(493,333,o),
(512,348,o),
(512,364,cs),
(512,385,o),
(487,398,o),
(448,398,cs),
(411,398,o),
(388,391,o),
(374,387,c),
(373,397,o)
);
}
);
width = 590;
}
);
note = E;
},
{
color = 5;
glyphname = F.ss01;
layers = (
{
background = {
shapes = (
{
closed = 1;
nodes = (
(316,-62,o),
(386,-20,o),
(443,41,cs),
(499,101,o),
(542,179,o),
(575,254,c),
(656,254,ls),
(669,254,o),
(681,267,o),
(681,277,cs),
(681,281,o),
(678,285,o),
(670,285,cs),
(588,285,l),
(626,373,ls),
(647,420,o),
(677,494,o),
(707,530,c),
(718,527,o),
(737,524,o),
(758,524,cs),
(779,524,o),
(811,532,o),
(811,559,cs),
(811,576,o),
(795,586,o),
(774,586,cs),
(731,586,o),
(699,569,o),
(686,560,c),
(646,569,o),
(604,580,o),
(560,592,cs),
(516,604,o),
(471,612,o),
(425,616,cs),
(407,618,o),
(388,618,o),
(370,618,cs),
(231,618,o),
(87,572,o),
(75,444,cs),
(67,367,o),
(136,314,o),
(208,308,cs),
(216,307,o),
(224,307,o),
(232,307,cs),
(327,307,o),
(425,353,o),
(490,455,c),
(493,461,o),
(494,467,o),
(494,472,cs),
(494,480,o),
(491,486,o),
(486,486,cs),
(483,486,o),
(479,483,o),
(475,477,cs),
(449,428,o),
(361,362,o),
(293,367,cs),
(246,372,o),
(220,409,o),
(223,446,cs),
(232,538,o),
(349,572,o),
(442,572,cs),
(452,572,o),
(463,572,o),
(473,571,cs),
(546,564,o),
(615,550,o),
(655,539,c),
(580,477,o),
(519,379,o),
(474,306,cs),
(461,285,l),
(348,285,ls),
(335,285,o),
(325,271,o),
(325,262,cs),
(325,258,o),
(328,254,o),
(334,254,cs),
(443,254,l),
(382,149,o),
(298,-11,o),
(192,-11,cs),
(166,-11,o),
(137,3,o),
(142,37,cs),
(150,107,o),
(235,164,o),
(311,169,cs),
(329,170,o),
(339,177,o),
(339,182,cs),
(339,187,o),
(332,191,o),
(316,191,cs),
(236,191,o),
(111,118,o),
(108,34,cs),
(103,-32,o),
(164,-62,o),
(225,-62,cs)
);
}
);
};
layerId = "C623C401-2266-4A98-B253-3D45160C29C7";
shapes = (
{
closed = 1;
nodes = (
(304,-62,o),
(369,-29,o),
(423,21,cs),
(492,85,o),
(542,178,o),
(582,270,cs),
(610,335,o),
(631,386,o),
(649,425,cs),
(672,476,o),
(689,508,o),
(706,528,c),
(717,525,o),
(734,522,o),
(755,522,cs),
(789,522,o),
(811,536,o),
(811,559,cs),
(811,576,o),
(797,586,o),
(774,586,cs),
(742,586,o),
(708,576,o),
(686,560,c),
(547,604,o),
(448,618,o),
(370,618,cs),
(189,618,o),
(75,547,o),
(75,435,cs),
(75,362,o),
(134,307,o),
(237,307,cs),
(297,307,o),
(344,320,o),
(390,348,cs),
(442,379,o),
(493,441,o),
(493,474,cs),
(493,482,o),
(491,490,o),
(486,490,cs),
(481,490,o),
(481,483,o),
(462,458,cs),
(427,412,o),
(370,367,o),
(299,367,cs),
(257,367,o),
(223,402,o),
(223,439,cs),
(223,518,o),
(317,572,o),
(441,572,cs),
(492,572,o),
(602,555,o),
(655,539,c),
(618,508,o),
(583,469,o),
(550,423,cs),
(517,377,o),
(485,324,o),
(451,267,cs),
(419,213,o),
(380,140,o),
(335,82,cs),
(293,29,o),
(246,-11,o),
(193,-11,cs),
(161,-11,o),
(141,5,o),
(141,34,cs),
(141,63,o),
(163,98,o),
(194,123,cs),
(229,151,o),
(282,166,o),
(315,170,cs),
(332,172,o),
(338,176,o),
(338,182,cs),
(338,187,o),
(331,191,o),
(315,191,cs),
(275,191,o),
(222,174,o),
(180,145,cs),
(138,116,o),
(107,73,o),
(107,31,cs),
(107,-36,o),
(164,-62,o),
(225,-62,cs)
);
},
{
closed = 1;
nodes = (
(656,254,ls),
(669,254,o),
(681,267,o),
(681,277,cs),
(681,281,o),
(678,285,o),
(670,285,cs),
(348,285,ls),
(335,285,o),
(325,271,o),
(325,262,cs),
(325,258,o),
(328,254,o),
(334,254,cs)
);
}
);
width = 661;
}
);
note = F;
},
{
color = 5;
glyphname = G.ss01;
kernLeft = _G_ss01;
kernRight = _G_ss01;
layers = (
{
anchors = (
{
name = bottom;
pos = (268,-259);
},
{
name = top;
pos = (743,636);
}
);
background = {
shapes = (
{
closed = 1;
nodes = (
(388,-272,o),
(492,-210,o),
(569,-118,c),
(635,-132,o),
(698,-143,o),
(766,-143,cs),
(844,-143,o),
(885,-111,o),
(885,-68,cs),
(885,-45,o),
(876,-24,o),
(853,-8,cs),
(848,-5,o),
(844,-3,o),
(840,-3,cs),
(836,-3,o),
(833,-5,o),
(833,-9,cs),
(833,-11,o),
(834,-14,o),
(837,-17,cs),
(845,-25,o),
(848,-32,o),
(849,-40,c),
(851,-87,o),
(800,-107,o),
(747,-110,cs),
(695,-112,o),
(637,-106,o),
(604,-101,cs),
(586,-98,l),
(672,14,o),
(722,178,o),
(735,316,cs),
(736,331,o),
(725,337,o),
(712,337,cs),
(699,337,o),
(685,330,o),
(683,318,cs),
(682,313,l),
(681,310,o),
(680,308,o),
(680,307,c),
(649,197,o),
(526,48,o),
(418,48,cs),
(368,48,o),
(345,84,o),
(345,129,cs),
(345,134,o),
(345,140,o),
(346,145,c),
(348,199,o),
(382,294,o),
(408,341,c),
(472,341,o),
(530,349,o),
(581,362,cs),
(658,381,o),
(746,423,o),
(800,482,cs),
(829,515,o),
(847,547,o),
(847,578,cs),
(847,625,o),
(816,652,o),
(740,652,cs),
(668,652,o),
(583,625,o),
(503,580,c),
(431,615,o),
(346,642,o),
(253,642,cs),
(164,642,o),
(69,603,o),
(69,509,cs),
(69,461,o),
(87,423,o),
(124,395,cs),
(159,368,o),
(209,350,o),
(257,341,c),
(228,286,o),
(211,230,o),
(211,170,cs),
(211,74,o),
(273,12,o),
(401,12,cs),
(484,12,o),
(580,85,o),
(639,164,c),
(604,80,o),
(552,-7,o),
(484,-75,c),
(433,-63,o),
(382,-50,o),
(335,-38,cs),
(271,-23,o),
(207,-11,o),
(139,-11,cs),
(61,-11,o),
(10,-52,o),
(10,-109,cs),
(10,-202,o),
(106,-272,o),
(247,-272,cs)
);
},
{
closed = 1;
nodes = (
(160,-189,o),
(80,-150,o),
(89,-93,cs),
(96,-55,o),
(136,-43,o),
(184,-43,cs),
(231,-43,o),
(286,-54,o),
(326,-61,c),
(464,-94,l),
(401,-151,o),
(329,-189,o),
(245,-189,cs)
);
},
{
closed = 1;
nodes = (
(215,392,o),
(170,437,o),
(170,504,cs),
(170,557,o),
(213,591,o),
(282,591,cs),
(337,591,o),
(401,577,o),
(465,557,c),
(389,508,o),
(321,444,o),
(274,369,c)
);
},
{
closed = 1;
nodes = (
(458,422,o),
(507,477,o),
(558,520,c),
(595,503,o),
(629,483,o),
(654,463,cs),
(660,458,o),
(665,456,o),
(669,456,cs),
(673,456,o),
(676,459,o),
(676,463,cs),
(676,468,o),
(673,475,o),
(664,483,c),
(653,490,o),
(640,499,o),
(627,509,cs),
(613,518,o),
(597,528,o),
(580,538,c),
(633,578,o),
(686,602,o),
(729,602,cs),
(755,602,o),
(785,590,o),
(785,550,cs),
(785,531,o),
(774,511,o),
(757,490,cs),
(716,444,o),
(642,397,o),
(573,382,cs),
(526,370,o),
(472,360,o),
(419,359,c)
);
}
);
};
layerId = "C623C401-2266-4A98-B253-3D45160C29C7";
shapes = (
{
closed = 1;
nodes = (
(562,-117,l),
(631,-131,o),
(696,-143,o),
(766,-143,cs),
(844,-143,o),
(885,-111,o),
(885,-68,cs),
(885,-45,o),
(876,-24,o),
(853,-8,cs),
(848,-5,o),
(844,-3,o),
(840,-3,cs),
(836,-3,o),
(833,-5,o),
(833,-9,cs),
(833,-11,o),
(834,-14,o),
(837,-17,cs),
(845,-25,o),
(849,-33,o),
(849,-43,cs),
(849,-87,o),
(799,-112,o),
(720,-111,cs),
(676,-111,o),
(631,-105,o),
(604,-101,cs),
(580,-97,l)
);
},
{
closed = 1;
nodes = (
(493,-216,o),
(580,-106,cs),
(693,37,o),
(735,249,o),
(735,316,cs),
(735,331,o),
(725,337,o),
(712,337,cs),
(699,337,o),
(686,330,o),
(683,318,cs),
(647,186,o),
(520,48,o),
(418,48,cs),
(368,48,o),
(345,84,o),
(345,129,cs),
(345,200,o),
(381,304,o),
(432,379,cs),
(511,497,o),
(635,602,o),
(729,602,cs),
(755,602,o),
(785,590,o),
(785,550,cs),
(785,531,o),
(774,511,o),
(757,490,cs),
(664,386,o),
(504,357,o),
(367,357,cs),
(228,357,o),
(170,431,o),
(170,504,cs),
(170,557,o),
(213,591,o),
(282,591,cs),
(396,591,o),
(548,528,o),
(654,462,cs),
(662,457,o),
(666,456,o),
(669,456,cs),
(674,456,o),
(677,460,o),
(677,464,cs),
(677,469,o),
(674,476,o),
(659,487,cs),
(566,556,o),
(425,642,o),
(253,642,cs),
(164,642,o),
(69,603,o),
(69,509,cs),
(69,372,o),
(230,333,o),
(362,335,cs),
(525,337,o),
(698,371,o),
(800,482,cs),
(829,515,o),
(847,547,o),
(847,578,cs),
(847,625,o),
(816,652,o),
(740,652,cs),
(601,652,o),
(427,557,o),
(318,429,cs),
(250,350,o),
(211,258,o),
(211,170,cs),
(211,74,o),
(273,12,o),
(401,12,cs),
(484,12,o),
(580,85,o),
(639,164,c),
(571,1,o),
(428,-189,o),
(245,-189,cs),
(160,-189,o),
(88,-154,o),
(88,-100,cs),
(88,-66,o),
(122,-43,o),
(184,-43,cs),
(231,-43,o),
(321,-55,o),
(471,-96,c),
(491,-77,l),
(389,-53,o),
(256,-11,o),
(139,-11,cs),
(61,-11,o),
(10,-52,o),
(10,-109,cs),
(10,-202,o),
(106,-272,o),
(247,-272,cs),
(377,-272,o)
);
}
);
width = 735;
}
);
note = G;
},
{
color = 5;
glyphname = H.ss01;
kernLeft = _H_ss01;
kernRight = _H_ss01;
layers = (
{
anchors = (
{
name = bottom;
pos = (483,0);
},
{
name = center;
pos = (483,300);
},
{
name = top;
pos = (882,597);
},
{
name = topleft;
pos = (87,600);
}
);
background = {
shapes = (
{
closed = 1;
nodes = (
(326,-62,o),
(400,-15,o),
(458,52,cs),
(516,118,o),
(558,203,o),
(591,279,cs),
(606,314,l),
(732,314,l),
(716,263,o),
(704,217,o),
(696,181,cs),
(685,141,o),
(672,106,o),
(653,81,cs),
(626,49,o),
(589,37,o),
(554,40,cs),
(542,40,o),
(536,30,o),
(536,19,cs),
(536,9,o),
(542,-1,o),
(554,-1,c),
(572,10,o),
(596,14,o),
(620,14,cs),
(648,14,o),
(677,8,o),
(699,1,cs),
(730,-9,o),
(756,-14,o),
(779,-14,cs),
(837,-14,o),
(875,16,o),
(909,68,cs),
(937,111,o),
(959,154,o),
(978,189,cs),
(981,195,o),
(982,200,o),
(982,204,cs),
(982,211,o),
(978,216,o),
(972,216,cs),
(967,216,o),
(959,211,o),
(954,199,cs),
(943,176,o),
(921,132,o),
(898,107,cs),
(867,72,o),
(830,66,o),
(790,63,cs),
(785,62,o),
(775,62,o),
(762,62,cs),
(749,62,o),
(735,62,o),
(721,61,cs),
(667,59,l),
(745,78,o),
(784,144,o),
(820,216,cs),
(843,264,o),
(876,348,o),
(895,395,cs),
(919,453,o),
(945,509,o),
(978,562,c),
(989,584,o),
(1032,625,o),
(1070,625,cs),
(1074,625,o),
(1077,625,o),
(1081,624,cs),
(1085,622,o),
(1089,621,o),
(1092,621,cs),
(1101,621,o),
(1107,627,o),
(1107,634,cs),
(1107,642,o),
(1101,650,o),
(1087,653,cs),
(1073,656,o),
(1059,658,o),
(1045,658,cs),
(1004,658,o),
(967,644,o),
(933,622,cs),
(910,607,o),
(889,588,o),
(870,566,cs),
(831,522,o),
(798,472,o),
(774,418,cs),
(761,391,o),
(751,365,o),
(742,341,c),
(617,341,l),
(631,373,ls),
(652,420,o),
(682,494,o),
(712,530,c),
(723,527,o),
(742,524,o),
(763,524,cs),
(784,524,o),
(816,532,o),
(816,559,cs),
(816,576,o),
(800,586,o),
(779,586,cs),
(736,586,o),
(704,569,o),
(691,560,c),
(651,569,o),
(609,580,o),
(565,592,cs),
(521,604,o),
(476,612,o),
(430,616,cs),
(412,618,o),
(393,618,o),
(375,618,cs),
(236,618,o),
(92,572,o),
(80,444,cs),
(72,367,o),
(141,314,o),
(213,308,cs),
(221,307,o),
(229,307,o),
(237,307,cs),
(332,307,o),
(430,353,o),
(495,455,c),
(498,461,o),
(499,467,o),
(499,472,cs),
(499,480,o),
(496,486,o),
(491,486,cs),
(488,486,o),
(484,483,o),
(480,477,cs),
(454,428,o),
(366,362,o),
(298,367,cs),
(251,372,o),
(225,409,o),
(228,446,cs),
(237,538,o),
(354,572,o),
(447,572,cs),
(457,572,o),
(468,572,o),
(478,571,cs),
(551,564,o),
(620,550,o),
(660,539,c),
(585,477,o),
(524,379,o),
(479,306,cs),
(461,277,o),
(429,219,o),
(408,182,cs),
(394,159,o),
(379,136,o),
(363,113,cs),
(331,67,o),
(296,29,o),
(257,6,cs),
(238,-5,o),
(218,-11,o),
(197,-11,cs),
(171,-11,o),
(142,3,o),
(147,37,cs),
(155,107,o),
(240,164,o),
(316,169,cs),
(334,170,o),
(344,177,o),
(344,182,cs),
(344,187,o),
(337,191,o),
(321,191,cs),
(241,191,o),
(116,118,o),
(113,34,cs),
(108,-32,o),
(169,-62,o),
(230,-62,cs)
);
}
);
};
layerId = "C623C401-2266-4A98-B253-3D45160C29C7";
shapes = (
{
closed = 1;
nodes = (
(990,658,o),
(939,632,o),
(895,592,cs),
(815,519,o),
(759,401,o),
(728,301,cs),
(699,209,o),
(689,126,o),
(654,81,cs),
(631,53,o),
(600,41,o),
(579,41,cs),
(569,41,o),
(563,43,o),
(555,43,cs),
(543,43,o),
(535,35,o),
(535,22,cs),
(535,7,o),
(543,0,o),
(554,0,cs),
(573,0,o),
(589,12,o),
(623,12,cs),
(651,12,o),
(678,8,o),
(700,1,cs),
(731,-9,o),
(754,-14,o),
(786,-14,cs),
(826,-14,o),
(866,9,o),
(893,44,cs),
(930,92,o),
(968,165,o),
(986,201,cs),
(988,205,o),
(989,208,o),
(989,211,cs),
(989,217,o),
(982,227,o),
(975,227,cs),
(971,227,o),
(968,224,o),
(966,220,cs),
(929,150,o),
(907,106,o),
(863,81,cs),
(828,61,o),
(778,60,o),
(674,59,c),
(674,61,l),
(748,81,o),
(787,145,o),
(821,216,cs),
(857,292,o),
(931,496,o),
(981,565,cs),
(1008,602,o),
(1042,625,o),
(1071,625,cs),
(1082,625,o),
(1086,621,o),
(1093,621,cs),
(1102,621,o),
(1108,629,o),
(1108,637,cs),
(1108,647,o),
(1088,658,o),
(1049,658,cs)
);
},
{
closed = 1;
nodes = (
(309,-62,o),
(374,-29,o),
(428,21,cs),
(497,85,o),
(547,178,o),
(587,270,cs),
(615,335,o),
(636,386,o),
(654,425,cs),
(677,476,o),
(694,508,o),
(711,528,c),
(722,525,o),
(739,522,o),
(760,522,cs),
(794,522,o),
(816,536,o),
(816,559,cs),
(816,576,o),
(802,586,o),
(779,586,cs),
(747,586,o),
(713,576,o),
(691,560,c),
(552,604,o),
(453,618,o),
(375,618,cs),
(194,618,o),
(80,547,o),
(80,435,cs),
(80,362,o),
(139,307,o),
(242,307,cs),
(302,307,o),
(349,320,o),
(395,348,cs),
(447,379,o),
(498,441,o),
(498,474,cs),
(498,482,o),
(496,490,o),
(491,490,cs),
(486,490,o),
(486,483,o),
(467,458,cs),
(432,412,o),
(375,367,o),
(304,367,cs),
(262,367,o),
(228,392,o),
(228,439,cs),
(228,518,o),
(322,572,o),
(446,572,cs),
(497,572,o),
(607,555,o),
(660,539,c),
(623,508,o),
(588,469,o),
(555,423,cs),
(522,377,o),
(490,324,o),
(456,267,cs),
(424,213,o),
(385,140,o),
(340,82,cs),
(298,29,o),
(251,-11,o),
(198,-11,cs),
(166,-11,o),
(146,5,o),
(146,34,cs),
(146,63,o),
(168,98,o),
(199,123,cs),
(234,151,o),
(287,166,o),
(320,170,cs),
(337,172,o),
(343,176,o),
(343,182,cs),
(343,187,o),
(336,191,o),
(320,191,cs),
(280,191,o),
(227,174,o),
(185,145,cs),
(143,116,o),
(112,73,o),
(112,31,cs),
(112,-36,o),
(169,-62,o),
(230,-62,cs)
);
},
{
closed = 1;
nodes = (
(829,314,l),
(843,341,l),
(521,341,l),
(507,314,l)
);
}
);
userData = {
assembly = "SVTCA[0]	/* SetFreedomAndProjectionVectorToAxis */
PUSHW[ ]	/* 4 values pushed */
121 2 136 4 
CALL[ ]	/* CallFunction */
IUP[0]	/* InterpolateUntPts */
IUP[1]	/* InterpolateUntPts */";
};
width = 899;
}
);
note = H;
},
{
color = 5;
glyphname = Hbar.ss01;
kernLeft = _H_ss01;
kernRight = _H_ss01;
layers = (
{
background = {
shapes = (
{
ref = H.ss01;
},
{
pos = (338,292);
ref = emdash;
scale = (0.8179,0.6967);
}
);
};
layerId = "C623C401-2266-4A98-B253-3D45160C29C7";
shapes = (
{
closed = 1;
nodes = (
(555,423,o),
(910,423,o),
(952,423,cs),
(954,423,o),
(956,424,o),
(957,425,cs),
(961,428,o),
(971,441,o),
(971,446,cs),
(971,449,o),
(970,450,o),
(967,450,cs),
(927,450,o),
(577,450,o),
(538,450,cs),
(532,450,o),
(528,449,o),
(523,444,cs),
(516,437,o),
(511,430,o),
(511,426,cs),
(511,424,o),
(512,423,o),
(514,423,cs)
);
},
{
ref = H.ss01;
}
);
width = 899;
}
);
},
{
color = 5;
glyphname = Hcircumflex.ss01;
kernLeft = _H_ss01;
kernRight = _H_ss01;
lastChange = "2022-11-23 04:35:08 +0000";
layers = (
{
anchors = (
{
name = bottom;
pos = (483,0);
},
{
name = center;
pos = (483,300);
},
{
name = top;
pos = (882,597);
},
{
name = topleft;
pos = (87,600);
}
);
background = {
shapes = (
{
ref = H.ss01;
},
{
pos = (293,205);
ref = circumflexcomb;
}
);
};
layerId = "C623C401-2266-4A98-B253-3D45160C29C7";
shapes = (
{
closed = 1;
nodes = (
(972,616,o),
(917,594,o),
(873,552,cs),
(795,478,o),
(759,381,o),
(728,281,cs),
(699,189,o),
(689,126,o),
(654,81,cs),
(631,53,o),
(600,41,o),
(579,41,cs),
(569,41,o),
(563,43,o),
(555,43,cs),
(543,43,o),
(535,35,o),
(535,22,cs),
(535,7,o),
(543,0,o),
(554,0,cs),
(573,0,o),
(589,12,o),
(623,12,cs),
(651,12,o),
(678,8,o),
(700,1,cs),
(731,-9,o),
(754,-14,o),
(786,-14,cs),
(826,-14,o),
(866,9,o),
(893,44,cs),
(930,92,o),
(968,165,o),
(986,201,cs),
(988,205,o),
(989,208,o),
(989,211,cs),
(989,217,o),
(982,227,o),
(975,227,cs),
(971,227,o),
(968,224,o),
(966,220,cs),
(929,150,o),
(907,106,o),
(863,81,cs),
(828,61,o),
(778,60,o),
(674,59,c),
(674,61,l),
(748,81,o),
(787,145,o),
(821,216,cs),
(857,292,o),
(913,454,o),
(963,523,cs),
(990,560,o),
(1024,583,o),
(1053,583,cs),
(1064,583,o),
(1068,579,o),
(1075,579,cs),
(1084,579,o),
(1090,587,o),
(1090,595,cs),
(1090,605,o),
(1070,616,o),
(1031,616,cs)
);
},
{
closed = 1;
nodes = (
(309,-62,o),
(374,-29,o),
(428,21,cs),
(497,85,o),
(547,178,o),
(587,270,cs),
(615,335,o),
(636,386,o),
(654,425,cs),
(677,476,o),
(694,508,o),
(711,528,c),
(722,525,o),
(739,522,o),
(760,522,cs),
(794,522,o),
(816,536,o),
(816,559,cs),
(816,576,o),
(802,586,o),
(779,586,cs),
(747,586,o),
(713,576,o),
(691,560,c),
(552,604,o),
(453,618,o),
(375,618,cs),
(194,618,o),
(80,547,o),
(80,435,cs),
(80,362,o),
(139,307,o),
(242,307,cs),
(302,307,o),
(349,320,o),
(395,348,cs),
(447,379,o),
(498,441,o),
(498,474,cs),
(498,482,o),
(496,490,o),
(491,490,cs),
(486,490,o),
(486,483,o),
(467,458,cs),
(432,412,o),
(375,367,o),
(304,367,cs),
(262,367,o),
(228,392,o),
(228,439,cs),
(228,518,o),
(322,572,o),
(446,572,cs),
(497,572,o),
(607,555,o),
(660,539,c),
(623,508,o),
(588,469,o),
(555,423,cs),
(522,377,o),
(490,324,o),
(456,267,cs),
(424,213,o),
(385,140,o),
(340,82,cs),
(298,29,o),
(251,-11,o),
(198,-11,cs),
(166,-11,o),
(146,5,o),
(146,34,cs),
(146,63,o),
(168,98,o),
(199,123,cs),
(234,151,o),
(287,166,o),
(320,170,cs),
(337,172,o),
(343,176,o),
(343,182,cs),
(343,187,o),
(336,191,o),
(320,191,cs),
(280,191,o),
(227,174,o),
(185,145,cs),
(143,116,o),
(112,73,o),
(112,31,cs),
(112,-36,o),
(169,-62,o),
(230,-62,cs)
);
},
{
closed = 1;
nodes = (
(829,314,l),
(843,341,l),
(521,341,l),
(507,314,l)
);
}
);
width = 899;
}
);
},
{
color = 5;
glyphname = I.ss01;
kernLeft = _I_ss01;
kernRight = _I_ss01;
layers = (
{
anchors = (
{
name = bottom;
pos = (188,-49);
},
{
name = ogonek;
pos = (217,-42);
},
{
name = top;
pos = (681,582);
},
{
name = topleft;
pos = (34,600);
}
);
background = {
shapes = (
{
closed = 1;
nodes = (
(273,-62,o),
(347,-15,o),
(405,52,cs),
(463,118,o),
(505,203,o),
(538,279,cs),
(579,375,o),
(624,492,o),
(654,537,c),
(664,536,o),
(680,535,o),
(693,535,cs),
(719,535,o),
(754,543,o),
(756,572,cs),
(756,592,o),
(739,603,o),
(716,600,cs),
(679,595,o),
(633,576,o),
(620,563,c),
(565,573,o),
(452,580,o),
(387,580,cs),
(253,580,o),
(102,523,o),
(102,390,cs),
(102,314,o),
(164,278,o),
(229,278,cs),
(316,278,o),
(399,322,o),
(454,437,cs),
(456,442,o),
(457,447,o),
(457,451,cs),
(457,460,o),
(453,465,o),
(449,465,cs),
(446,465,o),
(442,462,o),
(439,455,cs),
(423,408,o),
(358,346,o),
(301,346,cs),
(262,346,o),
(231,372,o),
(231,407,cs),
(231,497,o),
(352,537,o),
(430,543,cs),
(462,544,o),
(500,545,o),
(534,545,cs),
(560,545,o),
(584,545,o),
(598,543,c),
(546,493,o),
(467,373,o),
(426,306,cs),
(408,277,o),
(376,219,o),
(355,182,cs),
(341,159,o),
(326,136,o),
(310,113,cs),
(278,67,o),
(243,29,o),
(204,6,cs),
(185,-5,o),
(165,-11,o),
(144,-11,cs),
(118,-11,o),
(89,3,o),
(94,37,cs),
(102,107,o),
(187,164,o),
(263,169,cs),
(281,170,o),
(291,177,o),
(291,182,cs),
(291,187,o),
(284,191,o),
(268,191,cs),
(188,191,o),
(63,118,o),
(60,34,cs),
(55,-32,o),
(116,-62,o),
(177,-62,cs)
);
}
);
};
layerId = "C623C401-2266-4A98-B253-3D45160C29C7";
shapes = (
{
closed = 1;
nodes = (
(692,600,o),
(642,583,o),
(610,554,cs),
(568,516,o),
(533,465,o),
(503,423,cs),
(470,377,o),
(440,328,o),
(406,271,cs),
(374,217,o),
(333,140,o),
(288,82,cs),
(246,29,o),
(199,-11,o),
(146,-11,cs),
(114,-11,o),
(94,5,o),
(94,34,cs),
(94,63,o),
(116,98,o),
(147,123,cs),
(182,151,o),
(235,166,o),
(268,170,cs),
(285,172,o),
(291,176,o),
(291,182,cs),
(291,187,o),
(284,191,o),
(268,191,cs),
(228,191,o),
(175,174,o),
(133,145,cs),
(91,116,o),
(60,73,o),
(60,31,cs),
(60,-36,o),
(117,-62,o),
(178,-62,cs),
(257,-62,o),
(322,-29,o),
(376,21,cs),
(445,85,o),
(494,179,o),
(535,270,cs),
(564,335,o),
(618,479,o),
(654,537,c),
(669,536,o),
(681,535,o),
(696,535,cs),
(733,535,o),
(756,550,o),
(756,573,cs),
(756,590,o),
(744,600,o),
(721,600,cs)
);
},
{
closed = 1;
nodes = (
(582,573,o),
(478,580,o),
(416,580,cs),
(324,580,o),
(253,567,o),
(194,535,cs),
(138,504,o),
(102,457,o),
(102,390,cs),
(102,321,o),
(151,278,o),
(229,278,cs),
(270,278,o),
(323,289,o),
(370,326,cs),
(416,363,o),
(457,427,o),
(457,453,cs),
(457,462,o),
(454,465,o),
(450,465,cs),
(445,465,o),
(442,459,o),
(434,444,cs),
(407,394,o),
(351,346,o),
(301,346,cs),
(258,346,o),
(231,370,o),
(231,407,cs),
(231,457,o),
(268,494,o),
(318,515,cs),
(374,538,o),
(447,545,o),
(505,545,cs),
(563,545,o),
(599,542,o),
(617,539,c),
(637,560,l)
);
}
);
width = 556;
}
);
note = I;
},
{
color = 5;
glyphname = J.ss01;
kernLeft = _J_ss01;
kernRight = _J_ss01;
layers = (
{
anchors = (
{
name = bottom;
pos = (404,0);
},
{
name = top;
pos = (809,577);
}
);
background = {
shapes = (
{
closed = 1;
nodes = (
(309,-163,o),
(390,-123,o),
(453,-63,cs),
(484,-32,o),
(511,3,o),
(534,43,cs),
(579,122,o),
(614,209,o),
(643,297,cs),
(658,340,o),
(672,381,o),
(687,419,cs),
(697,448,o),
(732,513,o),
(751,539,c),
(758,539,o),
(762,538,o),
(769,537,cs),
(782,535,o),
(794,534,o),
(804,534,cs),
(822,534,o),
(836,537,o),
(846,542,cs),
(862,550,o),
(870,560,o),
(871,572,cs),
(871,592,o),
(854,603,o),
(831,600,cs),
(794,595,o),
(748,576,o),
(735,563,c),
(680,573,o),
(567,580,o),
(502,580,cs),
(368,580,o),
(217,523,o),
(217,390,cs),
(217,314,o),
(279,278,o),
(344,278,cs),
(431,278,o),
(514,322,o),
(569,437,cs),
(571,442,o),
(572,447,o),
(572,451,cs),
(572,460,o),
(568,465,o),
(564,465,cs),
(561,465,o),
(557,462,o),
(554,455,cs),
(538,408,o),
(473,346,o),
(416,346,cs),
(377,346,o),
(346,372,o),
(346,407,cs),
(346,497,o),
(467,537,o),
(545,543,cs),
(570,544,o),
(598,546,o),
(628,546,cs),
(657,546,o),
(689,544,o),
(723,541,c),
(666,481,o),
(589,369,o),
(496,198,cs),
(428,74,o),
(335,-115,o),
(194,-115,cs),
(151,-115,o),
(106,-82,o),
(106,-24,cs),
(106,28,o),
(135,70,o),
(176,103,cs),
(196,120,o),
(219,134,o),
(244,147,cs),
(295,171,o),
(346,188,o),
(391,197,cs),
(413,202,o),
(431,205,o),
(446,206,cs),
(454,206,o),
(461,216,o),
(461,223,cs),
(461,227,o),
(459,230,o),
(454,230,cs),
(395,227,o),
(310,211,o),
(230,182,cs),
(121,144,o),
(30,74,o),
(30,-29,cs),
(30,-111,o),
(88,-163,o),
(200,-163,cs)
);
}
);
};
layerId = "C623C401-2266-4A98-B253-3D45160C29C7";
shapes = (
{
closed = 1;
nodes = (
(697,573,o),
(593,580,o),
(531,580,cs),
(439,580,o),
(368,567,o),
(309,535,cs),
(253,504,o),
(217,457,o),
(217,390,cs),
(217,321,o),
(266,278,o),
(344,278,cs),
(385,278,o),
(438,289,o),
(485,326,cs),
(531,363,o),
(572,427,o),
(572,453,cs),
(572,462,o),
(569,465,o),
(565,465,cs),
(560,465,o),
(557,459,o),
(549,444,cs),
(522,394,o),
(466,346,o),
(416,346,cs),
(373,346,o),
(346,370,o),
(346,407,cs),
(346,457,o),
(383,494,o),
(433,515,cs),
(489,538,o),
(562,545,o),
(620,545,cs),
(678,545,o),
(714,542,o),
(732,539,c),
(752,560,l)
);
},
{
closed = 1;
nodes = (
(497,201,o),
(444,87,o),
(377,1,cs),
(325,-65,o),
(264,-115,o),
(194,-115,cs),
(143,-115,o),
(106,-79,o),
(106,-24,cs),
(106,58,o),
(178,114,o),
(244,147,cs),
(300,175,o),
(383,200,o),
(455,207,cs),
(466,208,o),
(471,216,o),
(471,223,cs),
(471,228,o),
(468,230,o),
(461,230,cs),
(405,230,o),
(317,215,o),
(237,186,cs),
(128,148,o),
(30,74,o),
(30,-29,cs),
(30,-111,o),
(88,-163,o),
(200,-163,cs),
(309,-163,o),
(390,-123,o),
(453,-63,cs),
(522,6,o),
(568,97,o),
(604,189,cs),
(635,269,o),
(657,348,o),
(693,432,cs),
(712,477,o),
(733,510,o),
(749,536,c),
(773,532,o),
(787,531,o),
(804,531,cs),
(842,531,o),
(871,550,o),
(871,573,cs),
(871,590,o),
(859,600,o),
(836,600,cs),
(807,600,o),
(767,584,o),
(736,554,cs),
(659,480,o),
(569,329,o),
(536,271,cs)
);
}
);
width = 681;
}
);
note = J;
},
{
color = 5;
glyphname = K.ss01;
kernLeft = _K_ss01;
kernRight = _K_ss01;
layers = (
{
anchors = (
{
name = bottom;
pos = (477,20);
},
{
name = top;
pos = (392,600);
}
);
background = {
shapes = (
{
closed = 1;
nodes = (
(268,-62,o),
(342,-15,o),
(400,52,cs),
(458,118,o),
(500,203,o),
(533,279,cs),
(574,375,o),
(619,492,o),
(649,537,c),
(659,536,o),
(675,535,o),
(688,535,cs),
(714,535,o),
(749,543,o),
(751,572,cs),
(751,592,o),
(734,603,o),
(711,600,cs),
(674,595,o),
(628,576,o),
(615,563,c),
(560,573,o),
(447,580,o),
(382,580,cs),
(248,580,o),
(97,523,o),
(97,390,cs),
(97,314,o),
(159,278,o),
(224,278,cs),
(311,278,o),
(394,322,o),
(449,437,cs),
(451,442,o),
(452,447,o),
(452,451,cs),
(452,460,o),
(448,465,o),
(444,465,cs),
(441,465,o),
(437,462,o),
(434,455,cs),
(418,408,o),
(353,346,o),
(296,346,cs),
(257,346,o),
(226,372,o),
(226,407,cs),
(226,497,o),
(347,537,o),
(425,543,cs),
(457,544,o),
(495,545,o),
(529,545,cs),
(555,545,o),
(579,545,o),
(593,543,c),
(541,493,o),
(462,373,o),
(421,306,cs),
(403,277,o),
(371,219,o),
(350,182,cs),
(336,159,o),
(321,136,o),
(305,113,cs),
(273,67,o),
(238,29,o),
(199,6,cs),
(180,-5,o),
(160,-11,o),
(139,-11,cs),
(113,-11,o),
(84,3,o),
(89,37,cs),
(97,107,o),
(182,164,o),
(258,169,cs),
(276,170,o),
(286,177,o),
(286,182,cs),
(286,187,o),
(279,191,o),
(263,191,cs),
(183,191,o),
(58,118,o),
(55,34,cs),
(50,-32,o),
(111,-62,o),
(172,-62,cs)
);
},
{
closed = 1;
nodes = (
(869,-153,o),
(908,-136,o),
(923,-115,cs),
(928,-108,o),
(930,-103,o),
(930,-99,cs),
(930,-90,o),
(917,-89,o),
(895,-82,cs),
(770,-43,o),
(627,141,o),
(608,260,c),
(683,273,o),
(752,319,o),
(795,380,cs),
(822,417,o),
(890,515,o),
(926,567,cs),
(939,587,o),
(981,627,o),
(1018,627,cs),
(1023,627,o),
(1028,626,o),
(1032,625,cs),
(1036,623,o),
(1040,622,o),
(1044,622,cs),
(1053,622,o),
(1059,628,o),
(1059,635,cs),
(1059,642,o),
(1053,650,o),
(1040,654,cs),
(1018,660,o),
(998,663,o),
(979,663,cs),
(948,663,o),
(920,655,o),
(895,643,cs),
(874,633,o),
(856,620,o),
(839,605,cs),
(793,563,o),
(755,501,o),
(730,455,cs),
(690,386,o),
(639,320,o),
(592,293,c),
(584,299,o),
(577,302,o),
(571,302,cs),
(549,302,o),
(534,271,o),
(534,223,cs),
(534,214,o),
(535,203,o),
(536,192,cs),
(553,27,o),
(653,-153,o),
(822,-153,cs)
);
}
);
};
layerId = "C623C401-2266-4A98-B253-3D45160C29C7";
shapes = (
{
closed = 1;
nodes = (
(857,-153,o),
(888,-144,o),
(907,-130,cs),
(918,-123,o),
(930,-107,o),
(930,-99,cs),
(930,-93,o),
(927,-91,o),
(906,-85,cs),
(769,-45,o),
(641,121,o),
(608,260,c),
(683,273,o),
(752,319,o),
(795,380,cs),
(822,417,o),
(890,516,o),
(926,567,cs),
(953,606,o),
(989,627,o),
(1015,627,cs),
(1032,627,o),
(1036,622,o),
(1046,622,cs),
(1052,622,o),
(1059,627,o),
(1059,635,cs),
(1059,642,o),
(1055,649,o),
(1040,654,cs),
(1022,660,o),
(1004,663,o),
(976,663,cs),
(921,663,o),
(874,638,o),
(835,601,cs),
(792,561,o),
(758,507,o),
(730,455,cs),
(690,386,o),
(639,320,o),
(592,293,c),
(586,299,o),
(580,302,o),
(571,302,cs),
(549,302,o),
(534,271,o),
(534,223,cs),
(534,117,o),
(584,-12,o),
(657,-83,cs),
(706,-131,o),
(766,-153,o),
(822,-153,cs)
);
},
{
closed = 1;
nodes = (
(284,278,o),
(329,297,o),
(367,328,cs),
(417,370,o),
(452,430,o),
(452,455,cs),
(452,462,o),
(449,466,o),
(445,466,cs),
(440,466,o),
(437,462,o),
(434,455,cs),
(424,432,o),
(409,409,o),
(390,391,cs),
(363,364,o),
(330,346,o),
(296,346,cs),
(253,346,o),
(226,370,o),
(226,408,cs),
(226,485,o),
(305,547,o),
(487,547,cs),
(587,547,o),
(615,538,o),
(642,535,c),
(600,549,l),
(555,508,o),
(499,435,o),
(399,267,cs),
(367,214,o),
(328,140,o),
(283,82,cs),
(241,29,o),
(194,-11,o),
(141,-11,cs),
(109,-11,o),
(89,5,o),
(89,34,cs),
(89,63,o),
(111,98,o),
(142,123,cs),
(177,151,o),
(230,166,o),
(263,170,cs),
(280,172,o),
(286,176,o),
(286,182,cs),
(286,187,o),
(279,191,o),
(263,191,cs),
(223,191,o),
(170,174,o),
(128,145,cs),
(86,116,o),
(55,73,o),
(55,31,cs),
(55,-36,o),
(112,-62,o),
(173,-62,cs),
(252,-62,o),
(317,-29,o),
(371,21,cs),
(440,85,o),
(490,178,o),
(530,270,cs),
(558,335,o),
(612,480,o),
(647,533,c),
(661,530,o),
(675,528,o),
(691,528,cs),
(731,528,o),
(751,549,o),
(751,572,cs),
(751,589,o),
(739,600,o),
(714,600,cs),
(674,600,o),
(637,581,o),
(615,563,c),
(560,573,o),
(478,586,o),
(383,586,cs),
(215,586,o),
(97,501,o),
(97,391,cs),
(97,322,o),
(146,278,o),
(224,278,cs)
);
}
);
width = 789;
}
);
note = K;
},
{
color = 5;
glyphname = L.ss01;
kernLeft = _L_ss01;
kernRight = _L_ss01;
layers = (
{
anchors = (
{
name = bottom;
pos = (530,-33);
},
{
name = center;
pos = (592,215);
},
{
name = top;
pos = (948,622);
},
{
name = topright;
pos = (1100,600);
}
);
background = {
shapes = (
{
closed = 1;
nodes = (
(927,-154,o),
(970,-133,o),
(994,-103,cs),
(1006,-88,o),
(1014,-71,o),
(1017,-52,cs),
(1018,-44,o),
(1019,-36,o),
(1019,-28,cs),
(1019,22,o),
(993,72,o),
(950,99,cs),
(916,120,o),
(860,144,o),
(814,144,cs),
(805,144,o),
(797,143,o),
(789,141,cs),
(772,138,o),
(745,122,o),
(745,94,c),
(757,97,o),
(772,99,o),
(788,99,cs),
(840,99,o),
(906,83,o),
(940,59,cs),
(968,40,o),
(980,20,o),
(980,4,cs),
(980,-25,o),
(945,-47,o),
(894,-47,cs),
(804,-47,o),
(679,25,o),
(585,82,c),
(624,133,o),
(660,199,o),
(704,283,c),
(856,302,o),
(1029,411,o),
(1029,554,cs),
(1029,601,o),
(998,629,o),
(942,636,cs),
(932,637,o),
(921,638,o),
(909,638,cs),
(877,638,o),
(839,631,o),
(802,609,cs),
(753,582,o),
(697,497,o),
(657,424,cs),
(627,370,ls),
(617,352,o),
(607,334,o),
(598,315,c),
(552,315,o),
(457,323,o),
(401,344,cs),
(350,363,o),
(308,393,o),
(308,449,cs),
(308,524,o),
(406,554,o),
(474,554,cs),
(536,554,o),
(608,538,o),
(649,513,cs),
(659,508,o),
(667,514,o),
(667,521,cs),
(667,525,o),
(665,529,o),
(659,532,c),
(607,569,o),
(499,595,o),
(403,595,cs),
(362,595,o),
(322,590,o),
(291,579,cs),
(226,558,o),
(194,515,o),
(194,470,cs),
(194,413,o),
(225,374,o),
(271,347,cs),
(294,334,o),
(319,323,o),
(348,316,cs),
(404,300,o),
(464,293,o),
(517,292,cs),
(585,291,l),
(557,235,o),
(529,179,o),
(500,131,c),
(421,171,o),
(336,199,o),
(253,199,cs),
(180,199,o),
(95,165,o),
(95,82,cs),
(95,-27,o),
(207,-65,o),
(293,-65,cs),
(397,-65,o),
(463,-41,o),
(524,14,c),
(628,-60,o),
(756,-154,o),
(860,-154,cs)
);
},
{
closed = 1;
nodes = (
(209,-25,o),
(147,40,o),
(147,94,cs),
(147,119,o),
(160,142,o),
(190,155,cs),
(202,160,o),
(216,162,o),
(230,162,cs),
(301,162,o),
(390,106,o),
(453,63,c),
(410,11,o),
(363,-25,o),
(306,-25,cs)
);
},
{
closed = 1;
nodes = (
(741,361,o),
(772,424,o),
(806,480,cs),
(836,528,o),
(880,585,o),
(911,593,cs),
(916,595,o),
(921,596,o),
(926,596,cs),
(949,596,o),
(961,576,o),
(961,548,cs),
(961,538,o),
(959,526,o),
(955,513,cs),
(926,408,o),
(817,347,o),
(718,314,c)
);
}
);
};
layerId = "C623C401-2266-4A98-B253-3D45160C29C7";
shapes = (
{
closed = 1;
nodes = (
(607,312,l),
(423,312,o),
(308,360,o),
(308,449,cs),
(308,524,o),
(406,554,o),
(474,554,cs),
(520,554,o),
(566,545,o),
(595,536,cs),
(631,525,o),
(648,511,o),
(656,511,cs),
(662,511,o),
(667,516,o),
(667,521,cs),
(667,525,o),
(666,528,o),
(655,535,cs),
(602,569,o),
(499,595,o),
(403,595,cs),
(275,595,o),
(194,547,o),
(194,470,cs),
(194,349,o),
(335,289,o),
(559,289,cs),
(569,289,o),
(581,289,o),
(596,289,c)
);
},
{
closed = 1;
nodes = (
(209,-25,o),
(147,40,o),
(147,94,cs),
(147,138,o),
(186,162,o),
(230,162,cs),
(301,162,o),
(390,106,o),
(453,63,c),
(410,11,o),
(363,-25,o),
(306,-25,cs)
);
},
{
closed = 1;
nodes = (
(715,308,l),
(738,355,o),
(769,421,o),
(806,480,cs),
(856,559,o),
(895,596,o),
(926,596,cs),
(946,596,o),
(961,576,o),
(961,548,cs),
(961,483,o),
(914,420,o),
(853,377,cs),
(808,346,o),
(756,325,o),
(710,312,c),
(696,288,l),
(753,294,o),
(814,308,o),
(868,337,cs),
(959,385,o),
(1029,462,o),
(1029,554,cs),
(1029,608,o),
(988,638,o),
(909,638,cs),
(818,638,o),
(754,590,o),
(683,469,cs),
(612,347,o),
(530,181,o),
(500,131,c),
(421,171,o),
(336,199,o),
(253,199,cs),
(156,199,o),
(95,154,o),
(95,82,cs),
(95,-3,o),
(179,-65,o),
(293,-65,cs),
(397,-65,o),
(463,-41,o),
(524,14,c),
(628,-60,o),
(756,-154,o),
(860,-154,cs),
(953,-154,o),
(1019,-111,o),
(1019,-28,cs),
(1019,23,o),
(994,68,o),
(952,97,cs),
(906,129,o),
(844,144,o),
(814,144,cs),
(772,144,o),
(745,124,o),
(745,91,c),
(756,95,o),
(774,99,o),
(795,99,cs),
(851,99,o),
(904,83,o),
(939,60,cs),
(964,43,o),
(980,23,o),
(980,4,cs),
(980,-25,o),
(945,-47,o),
(894,-47,cs),
(804,-47,o),
(679,25,o),
(585,82,c),
(625,135,o),
(663,204,o),
(709,292,c)
);
}
);
width = 1019;
}
);
note = L;
},
{
color = 5;
glyphname = LJ.ss01;
kernLeft = _L_ss01;
layers = (
{
anchors = (
{
name = center;
pos = (520,300);
},
{
name = top;
pos = (928,622);
},
{
name = topright;
pos = (1100,600);
}
);
background = {
shapes = (
{
pos = (36,14);
ref = L.ss01;
},
{
pos = (925,14);
ref = J.ss01;
}
);
};
layerId = "C623C401-2266-4A98-B253-3D45160C29C7";
shapes = (
{
closed = 1;
nodes = (
(607,312,l),
(423,312,o),
(308,360,o),
(308,449,cs),
(308,524,o),
(406,554,o),
(474,554,cs),
(520,554,o),
(566,545,o),
(595,536,cs),
(631,525,o),
(648,511,o),
(656,511,cs),
(662,511,o),
(667,516,o),
(667,521,cs),
(667,525,o),
(666,528,o),
(655,535,cs),
(602,569,o),
(499,595,o),
(403,595,cs),
(275,595,o),
(194,547,o),
(194,470,cs),
(194,349,o),
(335,289,o),
(559,289,cs),
(569,289,o),
(581,289,o),
(596,289,c)
);
},
{
closed = 1;
nodes = (
(209,-25,o),
(147,40,o),
(147,94,cs),
(147,138,o),
(186,162,o),
(230,162,cs),
(301,162,o),
(390,106,o),
(453,63,c),
(410,11,o),
(363,-25,o),
(306,-25,cs)
);
},
{
closed = 1;
nodes = (
(715,308,l),
(738,355,o),
(769,421,o),
(806,480,cs),
(856,559,o),
(895,596,o),
(926,596,cs),
(946,596,o),
(961,576,o),
(961,548,cs),
(961,483,o),
(914,420,o),
(853,377,cs),
(808,346,o),
(756,325,o),
(710,312,c),
(696,288,l),
(753,294,o),
(814,308,o),
(868,337,cs),
(959,385,o),
(1029,462,o),
(1029,554,cs),
(1029,608,o),
(988,638,o),
(909,638,cs),
(818,638,o),
(754,590,o),
(683,469,cs),
(612,347,o),
(530,181,o),
(500,131,c),
(421,171,o),
(336,199,o),
(253,199,cs),
(156,199,o),
(95,154,o),
(95,82,cs),
(95,-3,o),
(179,-65,o),
(293,-65,cs),
(397,-65,o),
(463,-41,o),
(524,14,c),
(625,-61,o),
(698,-106,o),
(773,-107,cs),
(854,-108,o),
(914,-55,o),
(914,17,cs),
(914,127,o),
(805,179,o),
(741,179,cs),
(699,179,o),
(672,159,o),
(672,126,c),
(683,130,o),
(701,134,o),
(722,134,cs),
(772,134,o),
(804,126,o),
(836,105,cs),
(861,88,o),
(875,68,o),
(875,49,cs),
(875,20,o),
(842,-2,o),
(791,-2,cs),
(737,-2,o),
(708,10,o),
(585,82,c),
(625,135,o),
(663,204,o),
(709,292,c)
);
},
{
closed = 1;
nodes = (
(1535,573,o),
(1431,580,o),
(1369,580,cs),
(1277,580,o),
(1206,567,o),
(1147,535,cs),
(1091,504,o),
(1055,457,o),
(1055,390,cs),
(1055,321,o),
(1104,278,o),
(1182,278,cs),
(1223,278,o),
(1276,289,o),
(1323,326,cs),
(1369,363,o),
(1410,427,o),
(1410,453,cs),
(1410,462,o),
(1407,465,o),
(1403,465,cs),
(1398,465,o),
(1395,459,o),
(1387,444,cs),
(1360,394,o),
(1304,346,o),
(1254,346,cs),
(1211,346,o),
(1184,370,o),
(1184,407,cs),
(1184,457,o),
(1221,494,o),
(1271,515,cs),
(1327,538,o),
(1400,545,o),
(1458,545,cs),
(1516,545,o),
(1552,542,o),
(1570,539,c),
(1590,560,l)
);
},
{
closed = 1;
nodes = (
(1300,127,o),
(1282,70,o),
(1235,0,cs),
(1188,-70,o),
(1138,-98,o),
(1100,-97,cs),
(1059,-97,o),
(1031,-66,o),
(1031,-20,cs),
(1031,34,o),
(1062,81,o),
(1100,115,cs),
(1154,163,o),
(1232,188,o),
(1273,196,cs),
(1284,198,o),
(1289,205,o),
(1289,212,cs),
(1289,217,o),
(1286,219,o),
(1279,219,cs),
(1235,219,o),
(1143,198,o),
(1069,151,cs),
(1007,112,o),
(955,58,o),
(955,-20,cs),
(955,-94,o),
(1016,-146,o),
(1100,-145,cs),
(1215,-144,o),
(1354,-66,o),
(1430,159,cs),
(1462,254,o),
(1496,349,o),
(1531,432,cs),
(1551,480,o),
(1571,510,o),
(1587,536,c),
(1611,532,o),
(1625,531,o),
(1642,531,cs),
(1680,531,o),
(1709,550,o),
(1709,573,cs),
(1709,590,o),
(1697,600,o),
(1674,600,cs),
(1645,600,o),
(1605,584,o),
(1574,554,cs),
(1497,480,o),
(1424,370,o),
(1363,251,cs)
);
}
);
width = 1519;
}
);
metricLeft = L.ss01;
metricRight = J.ss01;
},
{
color = 5;
glyphname = Lj.ss01;
kernLeft = _L_ss01;
layers = (
{
anchors = (
{
name = bottom;
pos = (1066,-230);
}
);
background = {
shapes = (
{
closed = 1;
nodes = (
(794,-73,o),
(852,-23,o),
(852,34,cs),
(852,126,o),
(783,164,o),
(719,164,cs),
(713,164,o),
(709,163,o),
(704,162,cs),
(694,159,o),
(678,147,o),
(678,126,c),
(685,129,o),
(694,130,o),
(703,130,cs),
(734,130,o),
(773,118,o),
(793,100,cs),
(810,86,o),
(817,70,o),
(817,58,cs),
(817,37,o),
(796,20,o),
(766,20,cs),
(728,20,o),
(639,61,o),
(545,102,c),
(584,153,o),
(620,219,o),
(664,303,c),
(816,322,o),
(989,431,o),
(989,574,cs),
(989,621,o),
(958,649,o),
(902,656,cs),
(892,657,o),
(881,658,o),
(869,658,cs),
(837,658,o),
(799,651,o),
(762,629,cs),
(713,602,o),
(657,517,o),
(617,444,cs),
(587,390,ls),
(577,372,o),
(567,354,o),
(558,335,c),
(512,335,o),
(417,343,o),
(361,364,cs),
(310,383,o),
(268,413,o),
(268,469,cs),
(268,544,o),
(366,574,o),
(434,574,cs),
(496,574,o),
(568,558,o),
(609,533,cs),
(619,528,o),
(627,534,o),
(627,541,cs),
(627,545,o),
(625,549,o),
(619,552,c),
(567,589,o),
(459,615,o),
(363,615,cs),
(322,615,o),
(282,610,o),
(251,599,cs),
(186,578,o),
(154,535,o),
(154,490,cs),
(154,433,o),
(185,394,o),
(231,367,cs),
(254,354,o),
(279,343,o),
(308,336,cs),
(364,320,o),
(424,313,o),
(477,312,cs),
(545,311,l),
(517,255,o),
(489,199,o),
(460,151,c),
(381,191,o),
(296,219,o),
(213,219,cs),
(140,219,o),
(55,185,o),
(55,102,cs),
(55,-7,o),
(167,-45,o),
(253,-45,cs),
(357,-45,o),
(423,-21,o),
(484,34,c),
(588,-40,o),
(674,-73,o),
(735,-73,cs)
);
},
{
closed = 1;
nodes = (
(169,-5,o),
(107,60,o),
(107,114,cs),
(107,139,o),
(120,162,o),
(150,175,cs),
(162,180,o),
(176,182,o),
(190,182,cs),
(261,182,o),
(350,126,o),
(413,83,c),
(370,31,o),
(323,-5,o),
(266,-5,cs)
);
},
{
closed = 1;
nodes = (
(701,381,o),
(732,444,o),
(766,500,cs),
(796,548,o),
(840,605,o),
(871,613,c),
(876,615,o),
(881,616,o),
(886,616,cs),
(909,616,o),
(921,596,o),
(921,568,cs),
(921,558,o),
(919,546,o),
(915,533,cs),
(886,428,o),
(777,367,o),
(678,334,c)
);
},
{
closed = 1;
nodes = (
(903,-177,o),
(953,-134,o),
(999,-58,c),
(1032,5,l),
(1076,28,o),
(1117,63,o),
(1141,90,cs),
(1173,125,o),
(1203,170,o),
(1228,223,cs),
(1234,234,o),
(1225,243,o),
(1217,243,cs),
(1212,243,o),
(1208,241,o),
(1205,235,cs),
(1186,198,o),
(1165,159,o),
(1141,130,cs),
(1114,97,o),
(1084,70,o),
(1051,47,c),
(1097,150,o),
(1160,314,o),
(1176,368,cs),
(1178,375,o),
(1179,382,o),
(1179,388,cs),
(1179,430,o),
(1133,443,o),
(1049,448,cs),
(1043,448,o),
(1040,448,o),
(1040,445,cs),
(1040,444,o),
(1040,443,o),
(1042,441,cs),
(1045,437,o),
(1046,432,o),
(1046,426,cs),
(1046,416,o),
(1043,404,o),
(1040,391,cs),
(1035,372,o),
(1029,354,o),
(1022,338,cs),
(1000,288,ls),
(981,248,o),
(964,213,o),
(957,200,cs),
(953,193,o),
(951,187,o),
(951,183,cs),
(951,177,o),
(954,174,o),
(958,174,cs),
(964,174,o),
(973,180,o),
(982,194,cs),
(997,221,l),
(990,196,o),
(984,176,o),
(981,168,cs),
(955,101,o),
(951,64,o),
(920,-4,c),
(847,-23,ls),
(782,-43,o),
(725,-83,o),
(725,-124,cs),
(725,-149,o),
(747,-172,o),
(783,-176,cs),
(793,-177,o),
(803,-177,o),
(813,-177,cs)
);
},
{
closed = 1;
nodes = (
(778,-137,o),
(768,-128,o),
(768,-115,cs),
(768,-100,o),
(780,-81,o),
(807,-67,cs),
(823,-59,o),
(865,-45,o),
(906,-34,c),
(876,-92,o),
(840,-137,o),
(796,-137,cs)
);
},
{
closed = 1;
nodes = (
(1174,476,o),
(1209,508,o),
(1220,546,cs),
(1222,553,o),
(1223,559,o),
(1223,565,cs),
(1223,590,o),
(1207,608,o),
(1183,608,cs),
(1144,608,o),
(1101,565,o),
(1101,519,cs),
(1101,493,o),
(1116,476,o),
(1141,476,cs)
);
}
);
};
layerId = "C623C401-2266-4A98-B253-3D45160C29C7";
shapes = (
{
closed = 1;
nodes = (
(607,312,l),
(423,312,o),
(308,360,o),
(308,449,cs),
(308,524,o),
(406,554,o),
(474,554,cs),
(520,554,o),
(566,545,o),
(595,536,cs),
(631,525,o),
(648,511,o),
(656,511,cs),
(662,511,o),
(667,516,o),
(667,521,cs),
(667,525,o),
(666,528,o),
(655,535,cs),
(602,569,o),
(499,595,o),
(403,595,cs),
(275,595,o),
(194,547,o),
(194,470,cs),
(194,349,o),
(335,289,o),
(559,289,cs),
(569,289,o),
(581,289,o),
(596,289,c)
);
},
{
closed = 1;
nodes = (
(492,36,l),
(585,-34,o),
(665,-70,o),
(731,-71,cs),
(800,-72,o),
(854,-22,o),
(854,39,cs),
(854,132,o),
(778,169,o),
(735,169,cs),
(699,169,o),
(676,152,o),
(676,125,c),
(685,128,o),
(701,130,o),
(720,130,cs),
(780,130,o),
(817,90,o),
(817,60,cs),
(817,17,o),
(745,-13,o),
(575,91,c)
);
},
{
closed = 1;
nodes = (
(209,-25,o),
(147,40,o),
(147,94,cs),
(147,138,o),
(186,162,o),
(230,162,cs),
(301,162,o),
(390,106,o),
(453,63,c),
(410,11,o),
(363,-25,o),
(306,-25,cs)
);
},
{
closed = 1;
nodes = (
(1221,456,o),
(1263,501,o),
(1263,545,cs),
(1263,570,o),
(1246,588,o),
(1222,588,cs),
(1183,588,o),
(1141,544,o),
(1141,499,cs),
(1141,474,o),
(1157,456,o),
(1182,456,cs)
);
},
{
closed = 1;
nodes = (
(814,-158,o),
(807,-148,o),
(807,-135,cs),
(807,-95,o),
(889,-68,o),
(948,-52,c),
(923,-113,o),
(880,-158,o),
(839,-158,cs)
);
},
{
closed = 1;
nodes = (
(1087,327,o),
(1002,60,o),
(962,-21,c),
(888,-40,o),
(765,-73,o),
(765,-142,cs),
(765,-180,o),
(799,-199,o),
(861,-199,cs),
(952,-199,o),
(1017,-136,o),
(1073,-13,c),
(1108,3,o),
(1150,36,o),
(1181,70,cs),
(1213,105,o),
(1242,150,o),
(1266,197,cs),
(1268,201,o),
(1271,208,o),
(1271,211,cs),
(1271,217,o),
(1264,227,o),
(1257,227,cs),
(1253,227,o),
(1250,224,o),
(1248,220,cs),
(1229,182,o),
(1208,143,o),
(1181,110,cs),
(1155,77,o),
(1124,50,o),
(1091,27,c),
(1123,100,o),
(1163,196,o),
(1189,268,cs),
(1206,316,o),
(1219,352,o),
(1219,368,cs),
(1219,386,o),
(1211,400,o),
(1192,409,cs),
(1164,423,o),
(1123,428,o),
(1088,428,cs),
(1083,428,o),
(1080,426,o),
(1080,423,cs),
(1080,419,o),
(1087,415,o),
(1087,399,cs)
);
},
{
closed = 1;
nodes = (
(577,72,l),
(620,126,o),
(660,198,o),
(709,292,c),
(715,308,l),
(738,355,o),
(769,421,o),
(806,480,cs),
(856,559,o),
(895,596,o),
(926,596,cs),
(946,596,o),
(961,576,o),
(961,548,cs),
(961,483,o),
(914,420,o),
(853,377,cs),
(808,346,o),
(756,325,o),
(710,312,c),
(696,288,l),
(753,294,o),
(814,308,o),
(868,337,cs),
(959,385,o),
(1029,462,o),
(1029,554,cs),
(1029,608,o),
(988,638,o),
(909,638,cs),
(818,638,o),
(754,590,o),
(683,469,cs),
(612,347,o),
(530,181,o),
(500,131,c),
(421,171,o),
(336,199,o),
(253,199,cs),
(156,199,o),
(95,154,o),
(95,82,cs),
(95,-3,o),
(179,-65,o),
(293,-65,cs),
(404,-65,o),
(471,-38,o),
(536,25,c)
);
}
);
width = 1181;
}
);
metricLeft = L.ss01;
metricRight = j;
},
{
color = 5;
glyphname = M.ss01;
kernLeft = _N_ss01;
kernRight = _N_ss01;
layers = (
{
background = {
shapes = (
{
closed = 1;
nodes = (
(1059,600,l),
(984,537,o),
(924,424,o),
(894,335,cs),
(874,276,o),
(859,222,o),
(850,181,cs),
(839,141,o),
(826,106,o),
(807,81,cs),
(780,49,o),
(743,37,o),
(708,40,cs),
(696,40,o),
(690,30,o),
(690,19,cs),
(690,9,o),
(696,-1,o),
(708,-1,c),
(726,10,o),
(750,14,o),
(774,14,cs),
(802,14,o),
(831,8,o),
(853,1,cs),
(884,-9,o),
(910,-14,o),
(933,-14,cs),
(991,-14,o),
(1029,16,o),
(1063,68,cs),
(1091,111,o),
(1114,151,o),
(1135,194,cs),
(1137,198,o),
(1137,201,o),
(1137,204,cs),
(1137,211,o),
(1133,216,o),
(1127,216,cs),
(1121,216,o),
(1113,211,o),
(1108,200,cs),
(1100,184,o),
(1090,165,o),
(1071,134,cs),
(1041,79,o),
(996,66,o),
(944,63,cs),
(939,62,o),
(929,62,o),
(916,62,cs),
(903,62,o),
(889,62,o),
(875,61,cs),
(821,59,l),
(899,78,o),
(938,144,o),
(974,216,cs),
(997,264,o),
(1030,348,o),
(1049,395,cs),
(1073,453,o),
(1099,509,o),
(1132,562,c),
(1143,584,o),
(1186,625,o),
(1224,625,cs),
(1228,625,o),
(1231,625,o),
(1235,624,cs),
(1239,622,o),
(1243,621,o),
(1246,621,cs),
(1255,621,o),
(1261,627,o),
(1261,634,cs),
(1261,642,o),
(1255,650,o),
(1241,653,cs),
(1226,656,o),
(1212,658,o),
(1199,658,cs),
(1152,658,o),
(1112,640,o),
(1074,614,c)
);
},
{
closed = 1;
nodes = (
(679,544,l),
(646,516,o),
(618,475,o),
(591,430,cs),
(570,395,o),
(535,336,o),
(515,303,cs),
(498,276,o),
(465,217,o),
(441,179,cs),
(426,155,o),
(410,132,o),
(393,109,cs),
(359,63,o),
(322,25,o),
(282,2,cs),
(262,-9,o),
(242,-15,o),
(221,-15,cs),
(196,-15,o),
(162,3,o),
(167,37,cs),
(175,107,o),
(260,164,o),
(336,169,cs),
(354,170,o),
(364,177,o),
(364,182,cs),
(364,187,o),
(357,191,o),
(341,191,cs),
(261,191,o),
(136,118,o),
(133,34,cs),
(128,-32,o),
(189,-62,o),
(250,-62,cs),
(346,-62,o),
(410,-12,o),
(459,59,cs),
(502,121,o),
(544,225,o),
(574,294,cs),
(623,409,o),
(666,505,o),
(698,538,c)
);
},
{
closed = 1;
nodes = (
(782,525,ls),
(806,523,o),
(828,523,o),
(846,524,cs),
(877,526,o),
(903,554,o),
(903,574,cs),
(903,580,o),
(901,586,o),
(894,589,c),
(895,594,o),
(888,597,o),
(873,598,cs),
(821,598,o),
(779,580,o),
(746,551,c),
(731,556,ls),
(725,557,o),
(718,559,o),
(711,560,cs),
(625,578,o),
(548,607,o),
(450,616,cs),
(432,618,o),
(413,618,o),
(395,618,cs),
(256,618,o),
(112,572,o),
(100,444,cs),
(92,367,o),
(161,314,o),
(233,308,cs),
(241,307,o),
(249,307,o),
(257,307,cs),
(352,307,o),
(450,353,o),
(515,455,c),
(518,461,o),
(519,467,o),
(519,472,cs),
(519,480,o),
(516,486,o),
(511,486,cs),
(508,486,o),
(504,483,o),
(500,477,cs),
(474,428,o),
(386,362,o),
(318,367,cs),
(271,372,o),
(245,409,o),
(248,446,cs),
(257,538,o),
(374,572,o),
(467,572,cs),
(477,572,o),
(488,572,o),
(498,571,cs),
(561,564,o),
(639,551,o),
(679,540,c),
(691,538,l),
(706,531,o),
(724,532,o),
(744,529,c)
);
},
{
closed = 1;
nodes = (
(1094,622,l),
(1001,604,o),
(940,546,o),
(891,475,cs),
(867,440,o),
(846,404,o),
(828,366,cs),
(791,289,o),
(759,218,o),
(724,163,cs),
(707,136,o),
(688,116,o),
(667,105,c),
(687,122,o),
(707,161,o),
(720,214,cs),
(731,255,o),
(744,327,o),
(752,365,cs),
(762,414,o),
(773,462,o),
(793,509,cs),
(796,515,l),
(806,539,l),
(737,543,l),
(676,482,o),
(644,377,o),
(638,304,cs),
(633,246,o),
(624,111,o),
(598,77,c),
(594,73,o),
(591,67,o),
(591,61,cs),
(591,54,o),
(596,47,o),
(608,47,cs),
(666,47,o),
(723,102,o),
(763,161,cs),
(791,204,o),
(817,250,o),
(838,293,cs),
(866,350,ls),
(919,456,o),
(969,562,o),
(1060,598,c)
);
}
);
};
layerId = "C623C401-2266-4A98-B253-3D45160C29C7";
shapes = (
{
closed = 1;
nodes = (
(1046,589,l),
(968,515,o),
(912,395,o),
(882,299,cs),
(853,207,o),
(842,126,o),
(807,81,cs),
(784,53,o),
(753,41,o),
(732,41,cs),
(722,41,o),
(716,43,o),
(708,43,cs),
(696,43,o),
(688,35,o),
(688,22,cs),
(688,7,o),
(696,0,o),
(707,0,cs),
(726,0,o),
(742,12,o),
(776,12,cs),
(804,12,o),
(831,8,o),
(853,1,cs),
(884,-9,o),
(907,-14,o),
(939,-14,cs),
(979,-14,o),
(1019,9,o),
(1046,44,cs),
(1083,92,o),
(1121,165,o),
(1139,201,cs),
(1141,205,o),
(1142,208,o),
(1142,211,cs),
(1142,217,o),
(1135,227,o),
(1128,227,cs),
(1124,227,o),
(1121,224,o),
(1119,220,cs),
(1082,150,o),
(1060,106,o),
(1016,81,cs),
(981,61,o),
(931,60,o),
(827,59,c),
(827,61,l),
(901,81,o),
(940,145,o),
(974,216,cs),
(1010,292,o),
(1084,496,o),
(1134,565,cs),
(1161,602,o),
(1195,625,o),
(1224,625,cs),
(1235,625,o),
(1239,621,o),
(1246,621,cs),
(1255,621,o),
(1261,629,o),
(1261,637,cs),
(1261,647,o),
(1241,658,o),
(1202,658,cs),
(1159,658,o),
(1119,644,o),
(1084,620,c),
(997,600,o),
(938,543,o),
(891,475,cs),
(820,371,o),
(786,260,o),
(724,163,cs),
(709,139,o),
(692,120,o),
(673,108,c),
(672,110,l),
(690,129,o),
(708,166,o),
(720,214,cs),
(731,255,o),
(744,327,o),
(752,365,cs),
(768,444,o),
(774,468,o),
(806,539,c),
(737,543,l),
(676,482,o),
(644,377,o),
(638,304,cs),
(635,267,o),
(630,196,o),
(620,143,cs),
(617,126,o),
(613,105,o),
(605,89,cs),
(599,77,o),
(591,71,o),
(591,61,cs),
(591,54,o),
(596,47,o),
(608,47,cs),
(656,47,o),
(716,90,o),
(763,161,cs),
(834,267,o),
(862,355,o),
(925,462,cs),
(958,518,o),
(996,566,o),
(1045,591,c)
);
},
{
closed = 1;
nodes = (
(369,-62,o),
(452,14,o),
(525,181,cs),
(566,275,o),
(652,490,o),
(703,545,c),
(689,551,l),
(628,511,o),
(545,358,o),
(503,282,cs),
(372,49,o),
(292,-15,o),
(225,-15,cs),
(189,-15,o),
(167,4,o),
(167,34,cs),
(167,63,o),
(189,98,o),
(220,123,cs),
(255,151,o),
(308,166,o),
(341,170,cs),
(358,172,o),
(364,176,o),
(364,182,cs),
(364,187,o),
(357,191,o),
(341,191,cs),
(301,191,o),
(248,174,o),
(206,145,cs),
(164,116,o),
(133,73,o),
(133,31,cs),
(133,-36,o),
(191,-62,o),
(252,-62,cs)
);
},
{
closed = 1;
nodes = (
(582,572,o),
(735,521,o),
(810,521,cs),
(874,521,o),
(903,550,o),
(903,576,cs),
(903,589,o),
(894,597,o),
(869,598,cs),
(828,600,o),
(779,580,o),
(746,551,c),
(682,569,o),
(523,618,o),
(395,618,cs),
(214,618,o),
(100,547,o),
(100,435,cs),
(100,362,o),
(159,307,o),
(262,307,cs),
(322,307,o),
(369,320,o),
(415,348,cs),
(467,379,o),
(518,441,o),
(518,474,cs),
(518,482,o),
(516,490,o),
(511,490,cs),
(506,490,o),
(506,483,o),
(487,458,cs),
(452,412,o),
(395,367,o),
(324,367,cs),
(282,367,o),
(248,402,o),
(248,439,cs),
(248,518,o),
(342,572,o),
(466,572,cs)
);
}
);
userData = {
assembly = "SVTCA[0]	/* SetFreedomAndProjectionVectorToAxis */
PUSHW[ ]	/* 3 values pushed */
140 202 3 
CALL[ ]	/* CallFunction */
PUSHW[ ]	/* 1 value pushed */
140 
SRP0[ ]	/* SetRefPoint0 */
PUSHW[ ]	/* 1 value pushed */
142 
MDRP[10000]	/* MoveDirectRelPt */
PUSHW[ ]	/* 1 value pushed */
142 
MDAP[1]	/* MoveDirectAbsPt */
PUSHW[ ]	/* 1 value pushed */
140 
SRP0[ ]	/* SetRefPoint0 */
PUSHW[ ]	/* 1 value pushed */
145 
MDRP[10000]	/* MoveDirectRelPt */
PUSHW[ ]	/* 1 value pushed */
145 
MDAP[1]	/* MoveDirectAbsPt */
PUSHW[ ]	/* 1 value pushed */
202 
SRP0[ ]	/* SetRefPoint0 */
PUSHW[ ]	/* 1 value pushed */
176 
MDRP[10000]	/* MoveDirectRelPt */
PUSHW[ ]	/* 1 value pushed */
176 
MDAP[1]	/* MoveDirectAbsPt */
IUP[0]	/* InterpolateUntPts */
IUP[1]	/* InterpolateUntPts */";
};
width = 1052;
}
);
note = M;
},
{
color = 5;
glyphname = N.ss01;
kernLeft = _N_ss01;
kernRight = _N_ss01;
layers = (
{
anchors = (
{
name = bottom;
pos = (485,0);
},
{
name = top;
pos = (895,600);
}
);
background = {
anchors = (
{
name = bottom;
pos = (475,0);
},
{
name = top;
pos = (915,600);
}
);
shapes = (
{
closed = 1;
nodes = (
(345,-62,o),
(409,-12,o),
(458,59,cs),
(501,121,o),
(543,225,o),
(573,294,cs),
(621,407,o),
(663,501,o),
(695,536,c),
(702,535,o),
(708,534,o),
(715,534,cs),
(722,533,o),
(729,533,o),
(736,532,c),
(671,455,o),
(633,301,o),
(625,225,cs),
(618,168,o),
(602,31,o),
(573,-3,cs),
(569,-7,o),
(566,-13,o),
(566,-19,cs),
(566,-27,o),
(571,-33,o),
(582,-33,cs),
(645,-33,o),
(699,10,o),
(747,71,cs),
(771,102,o),
(793,136,o),
(814,175,cs),
(854,251,o),
(888,328,o),
(916,395,cs),
(929,428,o),
(941,456,o),
(952,477,cs),
(983,537,o),
(1060,666,o),
(1126,666,cs),
(1135,666,o),
(1140,671,o),
(1140,677,cs),
(1140,683,o),
(1134,689,o),
(1123,689,cs),
(1080,689,o),
(1036,656,o),
(1001,625,cs),
(940,573,o),
(894,499,o),
(858,420,cs),
(839,381,o),
(822,342,o),
(807,303,cs),
(776,225,o),
(748,158,o),
(717,111,cs),
(702,87,o),
(685,71,o),
(666,64,c),
(685,79,o),
(712,120,o),
(724,171,cs),
(734,214,o),
(741,293,o),
(747,343,cs),
(754,403,o),
(762,462,o),
(782,509,c),
(783,515,o),
(787,522,o),
(794,531,c),
(809,531,o),
(823,532,o),
(835,533,cs),
(864,535,o),
(890,560,o),
(890,578,cs),
(890,583,o),
(888,588,o),
(883,591,c),
(882,595,o),
(875,597,o),
(862,598,cs),
(822,598,o),
(789,583,o),
(761,558,c),
(754,557,o),
(747,556,o),
(739,556,cs),
(731,556,o),
(721,557,o),
(710,560,cs),
(624,578,o),
(547,607,o),
(449,616,cs),
(431,618,o),
(412,619,o),
(393,619,cs),
(254,619,o),
(110,571,o),
(99,444,cs),
(91,367,o),
(160,314,o),
(232,308,cs),
(240,307,o),
(249,307,o),
(257,307,cs),
(352,307,o),
(450,353,o),
(514,455,c),
(517,462,o),
(519,468,o),
(519,473,cs),
(519,481,o),
(516,486,o),
(511,486,cs),
(507,486,o),
(503,483,o),
(499,477,cs),
(474,430,o),
(391,367,o),
(324,367,cs),
(273,367,o),
(244,407,o),
(247,446,cs),
(256,537,o),
(374,572,o),
(466,572,cs),
(477,572,o),
(487,572,o),
(497,571,cs),
(558,564,o),
(633,552,o),
(674,541,c),
(643,513,o),
(616,473,o),
(590,430,cs),
(514,303,ls),
(498,276,o),
(464,217,o),
(440,179,cs),
(425,155,o),
(409,132,o),
(392,109,cs),
(358,63,o),
(321,25,o),
(281,2,cs),
(261,-9,o),
(241,-15,o),
(220,-15,cs),
(195,-15,o),
(161,3,o),
(166,37,cs),
(174,107,o),
(259,164,o),
(335,169,cs),
(354,171,o),
(363,177,o),
(363,182,cs),
(363,187,o),
(356,191,o),
(340,191,cs),
(260,191,o),
(135,118,o),
(132,34,cs),
(127,-32,o),
(188,-62,o),
(249,-62,cs)
);
}
);
};
layerId = "C623C401-2266-4A98-B253-3D45160C29C7";
shapes = (
{
closed = 1;
nodes = (
(678,544,l),
(645,516,o),
(617,475,o),
(590,430,cs),
(481,248,o),
(439,172,o),
(392,109,cs),
(340,40,o),
(282,-15,o),
(220,-15,cs),
(195,-15,o),
(165,1,o),
(165,35,cs),
(165,105,o),
(269,171,o),
(340,171,cs),
(356,171,o),
(362,175,o),
(362,181,cs),
(362,188,o),
(356,191,o),
(340,191,cs),
(250,191,o),
(132,117,o),
(132,31,cs),
(132,-35,o),
(188,-62,o),
(249,-62,cs),
(330,-62,o),
(395,-30,o),
(458,59,cs),
(518,143,o),
(570,299,o),
(628,421,cs),
(650,467,o),
(673,508,o),
(697,538,c)
);
},
{
closed = 1;
nodes = (
(536,572,o),
(619,550,o),
(695,537,cs),
(731,531,o),
(744,530,o),
(799,530,cs),
(819,530,o),
(837,532,o),
(854,538,cs),
(878,547,o),
(890,566,o),
(890,578,cs),
(890,591,o),
(881,598,o),
(862,598,cs),
(822,598,o),
(789,583,o),
(761,558,c),
(758,557,o),
(750,556,o),
(742,556,cs),
(678,556,o),
(542,619,o),
(393,619,cs),
(254,619,o),
(100,566,o),
(100,439,cs),
(100,355,o),
(167,307,o),
(257,307,cs),
(308,307,o),
(369,321,o),
(422,358,cs),
(474,393,o),
(519,449,o),
(519,475,cs),
(519,480,o),
(517,486,o),
(511,486,cs),
(506,486,o),
(503,482,o),
(499,476,cs),
(468,429,o),
(391,367,o),
(324,367,cs),
(273,367,o),
(248,403,o),
(248,442,cs),
(248,533,o),
(374,572,o),
(466,572,cs)
);
},
{
closed = 1;
nodes = (
(672,69,l),
(690,87,o),
(713,125,o),
(724,171,cs),
(734,214,o),
(741,293,o),
(747,343,cs),
(755,412,o),
(762,496,o),
(809,549,c),
(751,547,l),
(687,486,o),
(640,350,o),
(625,225,cs),
(610,102,o),
(595,22,o),
(575,0,cs),
(567,-9,o),
(564,-13,o),
(564,-20,cs),
(564,-27,o),
(570,-33,o),
(582,-33,cs),
(635,-33,o),
(690,1,o),
(744,67,cs),
(821,164,o),
(880,312,o),
(908,377,cs),
(948,470,o),
(986,552,o),
(1043,615,cs),
(1073,647,o),
(1102,666,o),
(1126,666,cs),
(1135,666,o),
(1140,671,o),
(1140,677,cs),
(1140,683,o),
(1134,689,o),
(1123,689,cs),
(1089,689,o),
(1056,672,o),
(1001,625,cs),
(924,560,o),
(870,459,o),
(807,303,cs),
(784,246,o),
(729,95,o),
(673,67,c)
);
}
);
width = 880;
}
);
note = N;
},
{
color = 5;
glyphname = Nj.ss01;
kernLeft = _N_ss01;
kernRight = _N_ss01;
layers = (
{
background = {
shapes = (
{
ref = N.ss01;
},
{
pos = (777,0);
ref = j.ss01;
}
);
};
layerId = "C623C401-2266-4A98-B253-3D45160C29C7";
shapes = (
{
closed = 1;
nodes = (
(1171,456,o),
(1213,501,o),
(1213,545,cs),
(1213,570,o),
(1196,588,o),
(1172,588,cs),
(1133,588,o),
(1091,544,o),
(1091,499,cs),
(1091,474,o),
(1107,456,o),
(1132,456,cs)
);
},
{
closed = 1;
nodes = (
(764,-158,o),
(757,-148,o),
(757,-135,cs),
(757,-95,o),
(839,-68,o),
(898,-52,c),
(873,-113,o),
(830,-158,o),
(789,-158,cs)
);
},
{
closed = 1;
nodes = (
(1037,327,o),
(952,60,o),
(912,-21,c),
(838,-40,o),
(715,-73,o),
(715,-142,cs),
(715,-180,o),
(749,-199,o),
(811,-199,cs),
(902,-199,o),
(967,-136,o),
(1023,-13,c),
(1058,3,o),
(1100,36,o),
(1131,70,cs),
(1163,105,o),
(1192,150,o),
(1216,197,cs),
(1218,201,o),
(1221,208,o),
(1221,211,cs),
(1221,217,o),
(1214,227,o),
(1207,227,cs),
(1203,227,o),
(1200,224,o),
(1198,220,cs),
(1179,182,o),
(1158,143,o),
(1131,110,cs),
(1105,77,o),
(1074,50,o),
(1041,27,c),
(1073,100,o),
(1113,196,o),
(1139,268,cs),
(1156,316,o),
(1169,352,o),
(1169,368,cs),
(1169,386,o),
(1161,400,o),
(1142,409,cs),
(1114,423,o),
(1073,428,o),
(1038,428,cs),
(1033,428,o),
(1030,426,o),
(1030,423,cs),
(1030,419,o),
(1037,415,o),
(1037,399,cs)
);
},
{
ref = N.ss01;
}
);
width = 1131;
}
);
metricLeft = N.ss01;
metricRight = j;
},
{
color = 5;
glyphname = Eng.ss01;
kernLeft = _N_ss01;
kernRight = _N_ss01;
layers = (
{
anchors = (
{
name = bottom;
pos = (505,0);
},
{
name = top;
pos = (915,600);
}
);
background = {
shapes = (
{
closed = 1;
nodes = (
(518,-300,o),
(578,-272,o),
(626,-229,cs),
(649,-207,o),
(670,-182,o),
(687,-154,cs),
(699,-135,o),
(930,381,o),
(936,395,cs),
(949,428,o),
(961,456,o),
(972,477,cs),
(1003,537,o),
(1080,666,o),
(1146,666,cs),
(1155,666,o),
(1160,671,o),
(1160,677,cs),
(1160,683,o),
(1154,689,o),
(1143,689,cs),
(1100,689,o),
(1056,656,o),
(1021,625,cs),
(960,573,o),
(914,499,o),
(878,420,cs),
(859,381,o),
(842,342,o),
(827,303,cs),
(796,225,o),
(761,132,o),
(730,85,c),
(728,147,o),
(745,259,o),
(759,334,cs),
(770,394,o),
(782,462,o),
(802,509,c),
(803,515,o),
(807,522,o),
(814,531,c),
(829,531,o),
(843,532,o),
(855,533,cs),
(884,535,o),
(910,560,o),
(910,578,cs),
(910,583,o),
(908,588,o),
(903,591,c),
(902,595,o),
(895,597,o),
(882,598,cs),
(842,598,o),
(809,583,o),
(781,558,c),
(774,557,o),
(767,556,o),
(759,556,cs),
(751,556,o),
(741,557,o),
(730,560,cs),
(644,578,o),
(567,607,o),
(469,616,cs),
(451,618,o),
(432,619,o),
(413,619,cs),
(274,619,o),
(130,571,o),
(119,444,cs),
(111,367,o),
(180,314,o),
(252,308,cs),
(260,307,o),
(269,307,o),
(277,307,cs),
(372,307,o),
(470,353,o),
(534,455,c),
(537,462,o),
(539,468,o),
(539,473,cs),
(539,481,o),
(536,486,o),
(531,486,cs),
(527,486,o),
(523,483,o),
(519,477,cs),
(494,430,o),
(411,367,o),
(344,367,cs),
(293,367,o),
(264,407,o),
(267,446,cs),
(276,537,o),
(394,572,o),
(486,572,cs),
(497,572,o),
(507,572,o),
(517,571,cs),
(578,564,o),
(653,552,o),
(694,541,c),
(663,513,o),
(636,473,o),
(610,430,cs),
(534,303,ls),
(518,276,o),
(484,217,o),
(460,179,cs),
(445,155,o),
(429,132,o),
(412,109,cs),
(378,63,o),
(341,25,o),
(301,2,cs),
(281,-9,o),
(261,-15,o),
(240,-15,cs),
(215,-15,o),
(181,3,o),
(186,37,cs),
(194,107,o),
(279,164,o),
(355,169,cs),
(374,171,o),
(383,177,o),
(383,182,cs),
(383,187,o),
(376,191,o),
(360,191,cs),
(280,191,o),
(155,118,o),
(152,34,cs),
(147,-32,o),
(208,-62,o),
(269,-62,cs),
(365,-62,o),
(429,-12,o),
(478,59,cs),
(521,121,o),
(563,225,o),
(593,294,cs),
(641,407,o),
(683,501,o),
(715,536,c),
(722,535,o),
(728,534,o),
(735,534,cs),
(742,533,o),
(749,533,o),
(756,532,c),
(691,455,o),
(653,301,o),
(645,225,cs),
(643,203,o),
(642,182,o),
(642,161,cs),
(642,86,o),
(657,27,o),
(683,7,c),
(639,-94,o),
(536,-266,o),
(430,-266,cs),
(398,-266,o),
(364,-244,o),
(364,-201,cs),
(364,-161,o),
(387,-119,o),
(408,-102,cs),
(417,-94,o),
(421,-89,o),
(421,-85,cs),
(421,-80,o),
(415,-78,o),
(409,-78,cs),
(405,-78,o),
(402,-79,o),
(400,-80,cs),
(346,-108,o),
(307,-151,o),
(307,-207,cs),
(307,-264,o),
(350,-300,o),
(435,-300,cs)
);
},
{
closed = 1;
nodes = (
(518,-300,o),
(578,-272,o),
(626,-229,cs),
(649,-207,o),
(670,-182,o),
(687,-154,cs),
(699,-135,o),
(930,381,o),
(936,395,cs),
(949,428,o),
(961,456,o),
(972,477,cs),
(1003,537,o),
(1080,666,o),
(1146,666,cs),
(1155,666,o),
(1160,671,o),
(1160,677,cs),
(1160,683,o),
(1154,689,o),
(1143,689,cs),
(1100,689,o),
(1056,656,o),
(1021,625,cs),
(960,573,o),
(914,499,o),
(878,420,cs),
(859,381,o),
(842,342,o),
(827,303,cs),
(796,225,o),
(761,132,o),
(730,85,c),
(728,147,o),
(745,259,o),
(759,334,cs),
(770,394,o),
(782,462,o),
(802,509,c),
(803,515,o),
(807,522,o),
(814,531,c),
(829,531,o),
(843,532,o),
(855,533,cs),
(884,535,o),
(910,560,o),
(910,578,cs),
(910,583,o),
(908,588,o),
(903,591,c),
(902,595,o),
(895,597,o),
(882,598,cs),
(842,598,o),
(809,583,o),
(781,558,c),
(774,557,o),
(767,556,o),
(759,556,cs),
(751,556,o),
(741,557,o),
(730,560,cs),
(644,578,o),
(567,607,o),
(469,616,cs),
(451,618,o),
(432,619,o),
(413,619,cs),
(274,619,o),
(130,571,o),
(119,444,cs),
(111,367,o),
(180,314,o),
(252,308,cs),
(260,307,o),
(269,307,o),
(277,307,cs),
(372,307,o),
(470,353,o),
(534,455,c),
(537,462,o),
(539,468,o),
(539,473,cs),
(539,481,o),
(536,486,o),
(531,486,cs),
(527,486,o),
(523,483,o),
(519,477,cs),
(494,430,o),
(411,367,o),
(344,367,cs),
(293,367,o),
(264,407,o),
(267,446,cs),
(276,537,o),
(394,572,o),
(486,572,cs),
(497,572,o),
(507,572,o),
(517,571,cs),
(578,564,o),
(653,552,o),
(694,541,c),
(663,513,o),
(636,473,o),
(610,430,cs),
(534,303,ls),
(518,276,o),
(484,217,o),
(460,179,cs),
(445,155,o),
(429,132,o),
(412,109,cs),
(378,63,o),
(341,25,o),
(301,2,cs),
(281,-9,o),
(261,-15,o),
(240,-15,cs),
(215,-15,o),
(181,3,o),
(186,37,cs),
(194,107,o),
(279,164,o),
(355,169,cs),
(374,171,o),
(383,177,o),
(383,182,cs),
(383,187,o),
(376,191,o),
(360,191,cs),
(280,191,o),
(155,118,o),
(152,34,cs),
(147,-32,o),
(208,-62,o),
(269,-62,cs),
(365,-62,o),
(429,-12,o),
(478,59,cs),
(521,121,o),
(563,225,o),
(593,294,cs),
(641,407,o),
(683,501,o),
(715,536,c),
(722,535,o),
(728,534,o),
(735,534,cs),
(742,533,o),
(749,533,o),
(756,532,c),
(691,455,o),
(653,301,o),
(645,225,cs),
(643,203,o),
(642,182,o),
(642,161,cs),
(642,86,o),
(657,27,o),
(683,7,c),
(639,-94,o),
(536,-266,o),
(430,-266,cs),
(398,-266,o),
(364,-244,o),
(364,-201,cs),
(364,-161,o),
(387,-119,o),
(408,-102,cs),
(417,-94,o),
(421,-89,o),
(421,-85,cs),
(421,-80,o),
(415,-78,o),
(409,-78,cs),
(405,-78,o),
(402,-79,o),
(400,-80,cs),
(346,-108,o),
(307,-151,o),
(307,-207,cs),
(307,-264,o),
(350,-300,o),
(435,-300,cs)
);
}
);
};
layerId = "C623C401-2266-4A98-B253-3D45160C29C7";
shapes = (
{
closed = 1;
nodes = (
(561,-300,o),
(673,-201,o),
(740,-51,cs),
(828,146,o),
(893,308,o),
(948,425,cs),
(988,511,o),
(1024,570,o),
(1063,615,cs),
(1093,647,o),
(1122,666,o),
(1146,666,cs),
(1155,666,o),
(1160,671,o),
(1160,677,cs),
(1160,683,o),
(1154,689,o),
(1143,689,cs),
(1109,689,o),
(1076,672,o),
(1021,625,cs),
(944,560,o),
(893,466,o),
(827,303,cs),
(795,224,o),
(766,147,o),
(733,92,c),
(730,92,l),
(730,218,o),
(770,490,o),
(827,547,c),
(771,547,l),
(707,491,o),
(642,307,o),
(642,181,cs),
(642,93,o),
(655,38,o),
(683,7,c),
(609,-163,o),
(512,-266,o),
(430,-266,cs),
(389,-266,o),
(364,-241,o),
(364,-201,cs),
(364,-165,o),
(383,-122,o),
(408,-102,cs),
(417,-94,o),
(421,-89,o),
(421,-85,cs),
(421,-81,o),
(418,-78,o),
(411,-78,cs),
(389,-78,o),
(307,-127,o),
(307,-207,cs),
(307,-261,o),
(350,-300,o),
(438,-300,cs)
);
},
{
closed = 1;
nodes = (
(350,-62,o),
(415,-30,o),
(478,59,cs),
(538,143,o),
(590,299,o),
(648,421,cs),
(670,467,o),
(693,508,o),
(717,538,c),
(698,544,l),
(665,516,o),
(637,475,o),
(610,430,cs),
(501,248,o),
(459,172,o),
(412,109,cs),
(360,40,o),
(302,-15,o),
(240,-15,cs),
(215,-15,o),
(185,1,o),
(185,35,cs),
(185,105,o),
(289,171,o),
(360,171,cs),
(376,171,o),
(382,175,o),
(382,181,cs),
(382,188,o),
(376,191,o),
(360,191,cs),
(270,191,o),
(152,117,o),
(152,31,cs),
(152,-35,o),
(208,-62,o),
(269,-62,cs)
);
},
{
closed = 1;
nodes = (
(328,307,o),
(389,321,o),
(442,358,cs),
(494,393,o),
(539,449,o),
(539,475,cs),
(539,480,o),
(537,486,o),
(531,486,cs),
(526,486,o),
(523,482,o),
(519,476,cs),
(488,429,o),
(411,367,o),
(344,367,cs),
(293,367,o),
(268,403,o),
(268,442,cs),
(268,533,o),
(394,572,o),
(486,572,cs),
(556,572,o),
(639,550,o),
(715,537,cs),
(751,531,o),
(764,530,o),
(819,530,cs),
(839,530,o),
(857,532,o),
(874,538,cs),
(898,547,o),
(910,566,o),
(910,578,cs),
(910,591,o),
(901,598,o),
(882,598,cs),
(842,598,o),
(809,583,o),
(781,558,c),
(778,557,o),
(770,556,o),
(762,556,cs),
(698,556,o),
(562,619,o),
(413,619,cs),
(274,619,o),
(120,566,o),
(120,439,cs),
(120,355,o),
(187,307,o),
(277,307,cs)
);
}
);
width = 900;
}
);
},
{
color = 5;
glyphname = O.ss01;
kernLeft = _O_ss01;
kernRight = _O_ss01;
layers = (
{
anchors = (
{
name = bottom;
pos = (341,-30);
},
{
name = center;
pos = (410,300);
},
{
name = ogonek;
pos = (392,-26);
},
{
name = top;
pos = (764,650);
},
{
name = topleft;
pos = (96,600);
},
{
name = topright;
pos = (854,600);
}
);
background = {
anchors = (
{
name = bottom;
pos = (341,-30);
},
{
name = center;
pos = (410,300);
},
{
name = ogonek;
pos = (392,-26);
},
{
name = top;
pos = (774,654);
},
{
name = topleft;
pos = (96,600);
},
{
name = topright;
pos = (854,600);
}
);
shapes = (
{
closed = 1;
nodes = (
(469,-38,o),
(539,-9,o),
(600,35,cs),
(631,57,o),
(658,83,o),
(683,112,cs),
(732,170,o),
(769,236,o),
(787,301,cs),
(796,334,o),
(800,364,o),
(799,393,c),
(826,424,o),
(847,460,o),
(863,501,cs),
(871,523,o),
(876,544,o),
(876,562,cs),
(876,619,o),
(835,654,o),
(750,654,cs),
(630,654,o),
(522,607,o),
(434,537,cs),
(346,467,o),
(279,373,o),
(239,280,c),
(199,299,o),
(169,331,o),
(169,383,cs),
(169,430,o),
(199,476,o),
(258,487,cs),
(265,488,o),
(269,493,o),
(269,498,cs),
(269,504,o),
(265,509,o),
(258,509,cs),
(256,509,ls),
(153,509,o),
(85,430,o),
(85,366,cs),
(85,334,o),
(101,303,o),
(137,278,cs),
(160,261,o),
(190,250,o),
(225,243,c),
(214,208,o),
(208,174,o),
(208,143,cs),
(208,37,o),
(271,-38,o),
(392,-38,cs)
);
},
{
closed = 1;
nodes = (
(363,-1,o),
(341,41,o),
(341,102,cs),
(341,140,o),
(349,184,o),
(363,231,c),
(487,231,o),
(618,258,o),
(721,325,c),
(698,252,o),
(649,169,o),
(593,106,cs),
(537,42,o),
(472,-3,o),
(419,-3,cs)
);
},
{
closed = 1;
nodes = (
(414,378,o),
(515,490,o),
(613,561,cs),
(652,589,o),
(720,615,o),
(766,615,cs),
(801,615,o),
(820,597,o),
(820,563,cs),
(820,549,o),
(816,531,o),
(809,511,cs),
(802,494,o),
(795,478,o),
(787,463,c),
(768,508,o),
(730,535,o),
(638,538,cs),
(616,538,o),
(604,530,o),
(604,523,cs),
(604,515,o),
(616,507,o),
(638,506,cs),
(707,504,o),
(735,464,o),
(735,408,cs),
(735,403,o),
(734,398,o),
(734,393,c),
(646,300,o),
(505,258,o),
(372,258,c)
);
}
);
};
layerId = "C623C401-2266-4A98-B253-3D45160C29C7";
shapes = (
{
closed = 1;
nodes = (
(583,256,o),
(665,294,cs),
(802,358,o),
(876,485,o),
(876,562,cs),
(876,619,o),
(835,654,o),
(750,654,cs),
(630,654,o),
(522,607,o),
(434,537,cs),
(311,440,o),
(208,270,o),
(208,143,cs),
(208,37,o),
(271,-38,o),
(392,-38,cs),
(477,-38,o),
(565,0,o),
(638,66,cs),
(731,151,o),
(799,277,o),
(799,375,cs),
(799,497,o),
(743,538,o),
(638,538,cs),
(618,538,o),
(608,532,o),
(608,522,cs),
(608,513,o),
(617,507,o),
(634,506,cs),
(708,500,o),
(735,464,o),
(735,408,cs),
(735,327,o),
(681,212,o),
(608,123,cs),
(550,52,o),
(480,-2,o),
(419,-2,cs),
(363,-2,o),
(341,41,o),
(341,102,cs),
(341,205,o),
(390,345,o),
(504,465,cs),
(609,575,o),
(695,615,o),
(770,615,cs),
(800,615,o),
(820,597,o),
(820,563,cs),
(820,491,o),
(746,385,o),
(658,332,cs),
(570,279,o),
(471,258,o),
(365,258,cs),
(237,258,o),
(169,306,o),
(169,383,cs),
(169,428,o),
(196,471,o),
(252,486,cs),
(263,489,o),
(270,492,o),
(270,499,cs),
(270,505,o),
(266,509,o),
(254,509,cs),
(154,509,o),
(85,430,o),
(85,366,cs),
(85,267,o),
(222,231,o),
(347,231,cs),
(492,231,o)
);
}
);
width = 776;
}
);
note = O;
},
